<svg width="103" height="88" viewBox="0 0 103 88" fill="none" xmlns="http://www.w3.org/2000/svg"><path d="M72.134 20.997c-6.343 0-12.242 1.967-17.19 5.265l3.552-18.015h27.276L96.746.064H51.773l-8.437 42.437h8.563c3.426-7.675 11.164-13.067 20.172-13.067 12.179 0 22.074 9.895 22.074 22.074 0 12.18-9.832 22.075-22.01 22.075v8.436c16.809-.063 30.447-13.701 30.447-30.51.063-16.874-13.638-30.512-30.448-30.512z" fill="#fff"/><path d="M72.327 44.34v3.807l2.03-2.157-.444-1.65h-1.586zm2.536 3.426l-1.713 1.712h2.22l-.507-1.712zm-2.536 9.262l3.806-4.06h-3.806v4.06z" fill="#fff"/><path d="M72.2 37.429c-7.866 0-14.272 6.406-14.272 14.272 0 7.866 6.406 14.272 14.272 14.272 7.866 0 14.272-6.406 14.272-14.272 0-7.866-6.406-14.272-14.272-14.272zm6.66 24.675l-.253-.951-1.84-6.534-4.504 4.63v4.758h-.126c-6.851 0-12.37-5.582-12.37-12.37 0-4.947 2.918-9.197 7.105-11.227v2.157c-3.108 1.84-5.202 5.201-5.202 9.07 0 5.266 3.933 9.642 9.008 10.34V52.97h-1.46v-3.49h1.46v-5.2h-1.142v-4.822c.825-.19 1.713-.253 2.6-.253 6.851 0 12.37 5.582 12.37 12.37.063 4.44-2.22 8.309-5.645 10.529z" fill="#fff"/><path d="M72.2 41.17c-.317 0-.634 0-.951.064v1.396h4.123l1.903 6.85h1.713v3.49h-.761l1.585 5.772c1.776-1.84 2.791-4.377 2.791-7.105.064-5.772-4.63-10.466-10.402-10.466zM47.205 0h-35.65L.583 8.246h36.664l-12.37 62.291h8.374L47.205 0zM18.976 79.607l.381 1.713h.127l.317-1.776 2.03-5.836h2.727l-3.679 9.261c-.253.698-.57 1.332-.824 1.903-.254.508-.571.952-.825 1.332-.317.38-.634.635-1.015.761-.38.19-.824.254-1.332.254-.444 0-.761 0-1.015-.063a2.403 2.403 0 01-.824-.38l.697-2.094c.19.127.444.19.571.19.19 0 .38.064.571.064.571 0 1.015-.445 1.269-1.396l-5.011-9.769h3.108l2.727 5.836zm44.498 0l.381 1.713h.127l.317-1.776 2.03-5.836h2.728l-3.68 9.261c-.253.698-.57 1.332-.824 1.903-.254.508-.571.952-.825 1.332-.317.38-.634.635-1.015.761-.38.19-.824.254-1.332.254-.444 0-.761 0-1.015-.063a2.404 2.404 0 01-.824-.38l.697-2.094c.19.127.444.19.571.19.19 0 .38.064.571.064.571 0 1.015-.445 1.269-1.396l-5.011-9.769h3.108l2.727 5.836zM33.12 75.99h-5.138v11.038h-2.665V73.644h7.803v2.347zm8.754 5.456h-4.885v5.582h-2.6V73.644h2.6v5.455h4.885v-5.455h2.6v13.384h-2.6v-5.582zM56.34 75.99h-3.933v11.038h-2.601V75.99h-3.933v-2.347h10.466v2.347z" fill="#fff"/></svg>