<svg width="246" height="50" viewBox="0 0 246 50" fill="none" xmlns="http://www.w3.org/2000/svg">
<g clip-path="url(#clip0_1_3039)">
<path d="M16.4427 3.83618V20.561H12.3184V8.22291H5.07857V20.561H0.954346V3.83618H16.4427Z" fill="white"/>
<path d="M37.1536 8.61054C37.6164 9.69514 37.8513 10.8833 37.8513 12.1821C37.8513 13.4808 37.6164 14.6691 37.1536 15.7537C36.6907 16.8383 36.069 17.7639 35.2883 18.5446C34.5077 19.3253 33.6096 19.9332 32.5941 20.3615C31.5786 20.7967 30.5148 21.0109 29.4094 21.0109C28.1728 21.0109 27.1228 20.7967 26.2454 20.3753C25.3681 19.9539 24.7878 19.4288 24.5114 18.8002V27.4701H20.3872V3.83693H24.3802V5.59163C24.6634 4.96297 25.2506 4.43795 26.1487 4.01654C27.0468 3.59514 28.1106 3.38098 29.3472 3.38098C30.4733 3.38098 31.5509 3.59514 32.5803 4.01654C33.6096 4.43795 34.5146 5.03897 35.2883 5.8196C36.069 6.60023 36.6907 7.53282 37.1536 8.61054ZM33.3402 13.9852C33.5751 13.4325 33.6994 12.8315 33.6994 12.1821C33.6994 11.5328 33.582 10.9386 33.3402 10.3928C33.0984 9.85402 32.7737 9.38427 32.3523 8.99737C31.9309 8.61054 31.4197 8.30656 30.8256 8.08549C30.2315 7.87138 29.5752 7.76084 28.8636 7.76084C27.8274 7.76084 26.9017 7.97496 26.1073 8.39636C25.3059 8.81777 24.774 9.34282 24.5183 9.97145V14.4204C24.7809 15.049 25.3059 15.5741 26.1073 15.9955C26.9086 16.4169 27.8274 16.631 28.8636 16.631C29.5752 16.631 30.2315 16.5205 30.8256 16.3063C31.4197 16.0922 31.9309 15.7882 32.3523 15.3945C32.7737 15.0076 33.1053 14.5378 33.3402 13.9852Z" fill="white"/>
<path d="M44.8357 3.83618V13.8739L52.4003 3.83618H56.5245V20.561H52.4625V10.5303L44.8979 20.561H40.7737V3.83618H44.8357Z" fill="white"/>
<path d="M77.1109 12.2166C77.1109 13.4947 76.8688 14.6691 76.3995 15.7398C75.9225 16.8106 75.28 17.7363 74.465 18.517C73.65 19.2976 72.7172 19.9055 71.6531 20.3477C70.5896 20.7898 69.4701 21.0109 68.2753 21.0109C67.0869 21.0109 65.961 20.7898 64.897 20.3477C63.8331 19.9055 62.9005 19.2907 62.0853 18.517C61.2771 17.7363 60.6277 16.8106 60.151 15.7398C59.6744 14.6691 59.4395 13.4947 59.4395 12.2166C59.4395 10.9594 59.6812 9.79184 60.151 8.70723C60.6277 7.62263 61.2702 6.69004 62.0853 5.89559C62.9005 5.10805 63.8331 4.48631 64.897 4.04418C65.9539 3.60205 67.0798 3.38098 68.2753 3.38098C69.463 3.38098 70.5896 3.60205 71.6531 4.04418C72.7172 4.48631 73.65 5.10805 74.465 5.89559C75.2729 6.68313 75.9225 7.62263 76.3995 8.70723C76.8688 9.79184 77.1109 10.9594 77.1109 12.2166ZM63.9575 10.4136C63.7157 10.9662 63.5982 11.5673 63.5982 12.2166C63.5982 12.866 63.7157 13.4601 63.9575 14.0059C64.1923 14.5447 64.5239 15.0145 64.9453 15.4014C65.3668 15.7882 65.8644 16.0922 66.4374 16.3132C67.011 16.5274 67.6187 16.6379 68.2682 16.6379C68.9178 16.6379 69.5255 16.5274 70.0849 16.3132C70.6443 16.0991 71.1419 15.7951 71.5636 15.4014C71.9846 15.0145 72.3232 14.5447 72.5717 14.0059C72.8209 13.4671 72.9451 12.866 72.9451 12.2166C72.9451 11.5673 72.8209 10.9662 72.5717 10.4136C72.3232 9.86091 71.9846 9.39116 71.5636 9.00433C71.1419 8.61743 70.6514 8.31351 70.0849 8.09244C69.5184 7.87826 68.9178 7.76773 68.2682 7.76773C67.6187 7.76773 67.0039 7.87826 66.4374 8.09244C65.8644 8.30656 65.3668 8.61054 64.9453 9.00433C64.5239 9.39116 64.1923 9.86091 63.9575 10.4136Z" fill="white"/>
<path d="M96.7305 8.61054C97.1934 9.69514 97.4284 10.8833 97.4284 12.1821C97.4284 13.4808 97.1934 14.6691 96.7305 15.7537C96.2677 16.8383 95.6458 17.7639 94.8649 18.5446C94.0847 19.3253 93.1867 19.9332 92.1708 20.3615C91.1556 20.7967 90.0915 21.0109 88.9861 21.0109C87.7495 21.0109 86.6995 20.7967 85.8221 20.3753C84.9453 19.9539 84.3646 19.4288 84.0884 18.8002V27.4701H79.9639V3.83693H83.9571V5.59163C84.2404 4.96297 84.8275 4.43795 85.7255 4.01654C86.6236 3.59514 87.6877 3.38098 88.9243 3.38098C90.0503 3.38098 91.1279 3.59514 92.1573 4.01654C93.1867 4.43795 94.0918 5.03897 94.8649 5.8196C95.6387 6.60023 96.2606 7.53282 96.7305 8.61054ZM92.9105 13.9852C93.1448 13.4325 93.2697 12.8315 93.2697 12.1821C93.2697 11.5328 93.1519 10.9386 92.9105 10.3928C92.6684 9.85402 92.344 9.38427 91.9223 8.99737C91.5007 8.61054 90.9895 8.30656 90.3953 8.08549C89.8018 7.87138 89.1452 7.76084 88.4338 7.76084C87.3973 7.76084 86.4716 7.97496 85.6772 8.39636C84.8757 8.81777 84.344 9.34282 84.0884 9.97145V14.4204C84.3511 15.049 84.8757 15.5741 85.6772 15.9955C86.4787 16.4169 87.3973 16.631 88.4338 16.631C89.1452 16.631 89.8018 16.5205 90.3953 16.3063C90.9895 16.0922 91.5007 15.7882 91.9223 15.3945C92.344 15.0007 92.6755 14.5378 92.9105 13.9852Z" fill="white"/>
<path d="M104.399 3.83618V13.8739L111.963 3.83618H116.087V20.561H112.025V10.5303L104.46 20.561H100.336V3.83618H104.399Z" fill="white"/>
<path d="M133.282 8.22291H128.115V20.561H123.991V8.22291H118.83V3.83618H133.282V8.22291Z" fill="white"/>
<path d="M144.225 16.8584C145.261 16.8584 146.262 16.6719 147.209 16.2919C148.163 15.9119 148.874 15.4077 149.35 14.779L150.615 17.9637C150.096 18.8272 149.268 19.5526 148.128 20.1398C146.988 20.727 145.641 21.0171 144.086 21.0171C142.808 21.0171 141.627 20.8099 140.529 20.4023C139.437 19.9878 138.491 19.4075 137.689 18.6476C136.888 17.8877 136.259 16.9689 135.804 15.8912C135.347 14.8066 135.119 13.5838 135.119 12.2229C135.119 11.0347 135.32 9.90868 135.721 8.8448C136.121 7.78781 136.695 6.84831 137.441 6.03313C138.187 5.22486 139.085 4.57549 140.135 4.09882C141.185 3.62215 142.366 3.38727 143.692 3.38727C144.929 3.38727 146.048 3.62906 147.05 4.11954C148.059 4.60312 148.915 5.2525 149.613 6.06767C150.318 6.88284 150.863 7.81543 151.25 8.87931C151.637 9.94318 151.837 11.0554 151.837 12.2229C151.837 12.4647 151.831 12.7134 151.824 12.9828C151.81 13.2522 151.782 13.4871 151.741 13.6806H139.341C139.534 14.7859 140.072 15.5942 140.964 16.0985C141.862 16.6027 142.947 16.8584 144.225 16.8584ZM147.637 10.3025C147.506 9.4182 147.071 8.74116 146.339 8.2714C145.599 7.80854 144.722 7.5737 143.706 7.5737C142.691 7.5737 141.779 7.80854 140.978 8.2714C140.176 8.74116 139.693 9.41124 139.52 10.3025H147.637Z" fill="white"/>
<path d="M168.162 8.22291H162.995V20.561H158.877V8.22291H153.71V3.83618H168.162V8.22291Z" fill="white"/>
<path d="M176.203 7.26286C175.795 7.26286 175.422 7.32503 175.084 7.4494C174.739 7.57371 174.428 7.73954 174.151 7.93988C173.875 8.14022 173.619 8.37506 173.391 8.63759C173.163 8.90011 172.97 9.18337 172.797 9.4804L171.325 6.95889C171.45 6.47531 171.664 6.01937 171.968 5.59106C172.272 5.16275 172.645 4.7897 173.087 4.47192C173.53 4.15414 174.041 3.89854 174.621 3.71201C175.194 3.52549 175.823 3.42877 176.493 3.42877C177.363 3.42877 178.137 3.56003 178.807 3.82255C179.477 4.08506 180.037 4.4512 180.493 4.92096C180.942 5.39072 181.288 5.93647 181.523 6.55822C181.757 7.17996 181.875 7.85008 181.875 8.56851C181.875 9.17641 181.805 9.73603 181.667 10.2403C181.529 10.7446 181.322 11.242 181.046 11.7256C180.769 12.2092 180.431 12.6996 180.03 13.1971C179.622 13.6944 179.159 14.2402 178.628 14.8343L176.949 16.7272H182.206V20.5612H171.457V17.5907L176.244 12.3819C176.583 12.0088 176.88 11.6841 177.129 11.4009C177.377 11.1177 177.585 10.8551 177.75 10.5926C177.916 10.3301 178.04 10.0884 178.124 9.84657C178.207 9.60477 178.255 9.33536 178.255 9.03826C178.255 8.5409 178.068 8.11949 177.702 7.77405C177.322 7.43556 176.832 7.26286 176.203 7.26286Z" fill="white"/>
<path d="M189.315 4.07124C190.385 3.64293 191.511 3.42877 192.707 3.42877C193.895 3.42877 195.021 3.64293 196.099 4.07124C197.169 4.49955 198.109 5.10057 198.91 5.87429C199.718 6.64802 200.354 7.57371 200.824 8.65143C201.294 9.72908 201.528 10.9104 201.528 12.1953C201.528 13.4941 201.294 14.6754 200.824 15.7462C200.354 16.817 199.718 17.7426 198.91 18.5164C198.102 19.2901 197.169 19.8911 196.099 20.3195C195.027 20.7478 193.895 20.9619 192.707 20.9619C191.518 20.9619 190.385 20.7478 189.315 20.3195C188.244 19.8911 187.304 19.2901 186.503 18.5164C185.695 17.7426 185.059 16.817 184.589 15.7462C184.119 14.6754 183.885 13.4941 183.885 12.1953C183.885 10.9104 184.119 9.72908 184.589 8.65143C185.059 7.57371 185.695 6.64802 186.503 5.87429C187.304 5.10748 188.244 4.50646 189.315 4.07124ZM192.707 17.1279C193.425 17.1279 194.102 17.0104 194.738 16.7617C195.373 16.5199 195.919 16.1814 196.382 15.7531C196.845 15.3248 197.204 14.8067 197.473 14.2056C197.736 13.6046 197.874 12.9345 197.874 12.2023C197.874 11.4838 197.743 10.8206 197.473 10.2058C197.204 9.59782 196.845 9.07972 196.382 8.64448C195.919 8.21618 195.373 7.8777 194.738 7.6359C194.102 7.39411 193.425 7.26976 192.707 7.26976C191.974 7.26976 191.29 7.39411 190.668 7.6359C190.047 7.8777 189.501 8.21618 189.038 8.64448C188.576 9.07283 188.209 9.59782 187.947 10.2058C187.684 10.8137 187.546 11.4838 187.546 12.2023C187.546 12.9414 187.678 13.6046 187.947 14.2056C188.209 14.8067 188.576 15.3248 189.038 15.7531C189.501 16.1814 190.04 16.5199 190.668 16.7617C191.29 17.0035 191.968 17.1279 192.707 17.1279Z" fill="white"/>
<path d="M207.38 17.1415C208.126 17.1415 208.734 16.9619 209.19 16.6026C209.653 16.2434 209.881 15.7598 209.881 15.1519C209.881 14.6062 209.674 14.1709 209.259 13.8532C208.844 13.5354 208.291 13.3764 207.587 13.3764C207.104 13.3764 206.689 13.4317 206.337 13.5423C205.984 13.6528 205.722 13.7702 205.556 13.8946L204.969 11.2764L207.843 7.67719H203.214V3.83618H212.589V6.57185L209.735 10.0744C210.143 10.171 210.565 10.3299 211.007 10.551C211.449 10.7789 211.857 11.0898 212.236 11.4836C212.609 11.8843 212.92 12.3817 213.162 12.9896C213.404 13.5975 213.521 14.3298 213.521 15.1864C213.521 15.9809 213.376 16.727 213.086 17.4316C212.796 18.1294 212.388 18.7442 211.849 19.2692C211.311 19.7943 210.668 20.2018 209.909 20.5058C209.148 20.8097 208.306 20.9617 207.373 20.9617C206.669 20.9617 206.04 20.8858 205.48 20.7269C204.921 20.568 204.43 20.3676 204.009 20.1051C203.587 19.8495 203.235 19.5662 202.959 19.2485C202.675 18.9376 202.475 18.6199 202.351 18.2883L203.194 15.2003C203.642 15.746 204.195 16.202 204.851 16.5681C205.515 16.955 206.358 17.1415 207.38 17.1415Z" fill="white"/>
<path d="M220.63 4.07124C221.701 3.64293 222.827 3.42877 224.022 3.42877C225.21 3.42877 226.336 3.64293 227.414 4.07124C228.485 4.49955 229.424 5.10057 230.226 5.87429C231.033 6.64802 231.669 7.57371 232.139 8.65143C232.609 9.72908 232.844 10.9104 232.844 12.1953C232.844 13.4941 232.609 14.6754 232.139 15.7462C231.669 16.817 231.033 17.7426 230.226 18.5164C229.417 19.2901 228.485 19.8911 227.414 20.3195C226.343 20.7478 225.217 20.9619 224.022 20.9619C222.834 20.9619 221.701 20.7478 220.63 20.3195C219.559 19.8911 218.62 19.2901 217.811 18.5164C217.003 17.7426 216.367 16.817 215.898 15.7462C215.428 14.6754 215.193 13.4941 215.193 12.1953C215.193 10.9104 215.428 9.72908 215.898 8.65143C216.367 7.57371 217.003 6.64802 217.811 5.87429C218.62 5.10748 219.559 4.50646 220.63 4.07124ZM224.022 17.1279C224.74 17.1279 225.417 17.0104 226.053 16.7617C226.689 16.5199 227.234 16.1814 227.697 15.7531C228.16 15.3248 228.526 14.8067 228.789 14.2056C229.051 13.6046 229.189 12.9345 229.189 12.2023C229.189 11.4838 229.058 10.8206 228.789 10.2058C228.526 9.59782 228.16 9.07972 227.697 8.64448C227.234 8.21618 226.689 7.8777 226.053 7.6359C225.417 7.39411 224.74 7.26976 224.022 7.26976C223.29 7.26976 222.605 7.39411 221.984 7.6359C221.355 7.8777 220.816 8.21618 220.353 8.64448C219.891 9.07283 219.531 9.59782 219.262 10.2058C218.993 10.8137 218.861 11.4838 218.861 12.2023C218.861 12.9414 218.993 13.6046 219.262 14.2056C219.531 14.8067 219.891 15.3248 220.353 15.7531C220.816 16.1814 221.355 16.5199 221.984 16.7617C222.605 17.0035 223.283 17.1279 224.022 17.1279Z" fill="white"/>
<path d="M241.721 0.99707H238.37L234.509 7.68424H237.852L241.721 0.99707Z" fill="white"/>
<path d="M238.37 0.99707H241.72L245.582 7.68424H242.239L238.37 0.99707Z" fill="white"/>
<path d="M12.878 37.3619V42.3289L16.6222 37.3619H18.6671V45.6449H16.6568V40.6778L12.9056 45.6449H10.8677V37.3619H12.878Z" fill="white"/>
<path d="M20.774 43.4756C20.9467 43.1855 21.1125 42.8609 21.2714 42.4947C21.4303 42.1286 21.5754 41.7279 21.7066 41.2788C21.8379 40.8367 21.9346 40.3532 22.0106 39.842C22.0866 39.3307 22.1211 38.7781 22.1211 38.184V37.3619H28.1037V43.4688H29.2643V47.8417H27.2885V45.638H21.9001V47.8417H19.9243V43.4688H20.774V43.4756ZM26.0588 43.4756V39.538H23.9518C23.8551 40.4706 23.71 41.2512 23.5166 41.8798C23.3232 42.5085 23.1159 43.0405 22.8879 43.4756H26.0588Z" fill="white"/>
<path d="M34.6319 43.8071C35.1431 43.8071 35.6404 43.7103 36.1102 43.5238C36.58 43.3373 36.9323 43.0886 37.1741 42.7777L37.8028 44.3528C37.5471 44.7811 37.1327 45.1404 36.5731 45.4305C36.0066 45.7206 35.3434 45.8657 34.5697 45.8657C33.9341 45.8657 33.3538 45.7621 32.8081 45.5618C32.2692 45.3614 31.7995 45.0713 31.3988 44.6913C30.9981 44.3113 30.6941 43.8623 30.4662 43.3235C30.2382 42.7915 30.1277 42.1836 30.1277 41.5066C30.1277 40.9194 30.2244 40.3598 30.4247 39.8348C30.6251 39.3098 30.9083 38.8469 31.2745 38.4462C31.6475 38.0456 32.0896 37.7278 32.6078 37.4929C33.1259 37.258 33.713 37.1406 34.3693 37.1406C34.9772 37.1406 35.5369 37.258 36.0342 37.4998C36.5316 37.7416 36.953 38.0663 37.3053 38.467C37.6508 38.8676 37.9271 39.3305 38.1205 39.8556C38.314 40.3805 38.4107 40.9332 38.4107 41.5135C38.4107 41.631 38.4107 41.7553 38.4038 41.8934C38.3968 42.0247 38.383 42.1422 38.3623 42.2389H32.2209C32.3176 42.7847 32.587 43.1853 33.0222 43.434C33.4643 43.6827 33.9963 43.8071 34.6319 43.8071ZM36.3175 40.5601C36.2553 40.118 36.0411 39.7865 35.675 39.5585C35.3088 39.3305 34.8737 39.2131 34.3762 39.2131C33.8789 39.2131 33.4229 39.3305 33.0222 39.5585C32.6285 39.7865 32.3867 40.125 32.2969 40.5601H36.3175Z" fill="white"/>
<path d="M48.2411 39.7243C48.469 40.2631 48.5865 40.8503 48.5865 41.4928C48.5865 42.1352 48.469 42.7294 48.2411 43.2613C48.0131 43.8001 47.7022 44.2561 47.3154 44.6429C46.9285 45.0298 46.4864 45.3269 45.9821 45.541C45.4777 45.7552 44.9528 45.8657 44.407 45.8657C43.7921 45.8657 43.274 45.7621 42.8388 45.5548C42.4036 45.3476 42.1204 45.0851 41.9753 44.7742V49.0643H39.9304V37.3616H41.9062V38.2321C42.0443 37.9212 42.3345 37.6587 42.7836 37.4514C43.2257 37.2442 43.7576 37.1406 44.3655 37.1406C44.9251 37.1406 45.457 37.2442 45.9682 37.4514C46.4794 37.6587 46.9216 37.9558 47.3085 38.3426C47.7022 38.7295 48.0062 39.1924 48.2411 39.7243ZM46.3482 42.384C46.4657 42.1076 46.5278 41.8106 46.5278 41.4928C46.5278 41.175 46.4657 40.878 46.3482 40.6086C46.2308 40.3391 46.065 40.1111 45.8577 39.9177C45.6505 39.7243 45.3948 39.5723 45.1047 39.4687C44.8077 39.3651 44.483 39.3098 44.1307 39.3098C43.6194 39.3098 43.1635 39.4134 42.7628 39.6206C42.3622 39.8279 42.0996 40.0904 41.9753 40.4013V42.605C42.1065 42.9159 42.369 43.1784 42.7628 43.3857C43.1566 43.5929 43.6125 43.6965 44.1307 43.6965C44.483 43.6965 44.8077 43.6412 45.1047 43.5377C45.4018 43.434 45.6505 43.282 45.8577 43.0886C46.0719 42.8952 46.2308 42.6603 46.3482 42.384Z" fill="white"/>
<path d="M50.0027 38.5989C50.1547 38.364 50.3412 38.1568 50.5761 37.9702C50.804 37.7906 51.0597 37.6386 51.3429 37.5143C51.6192 37.3899 51.9163 37.3001 52.2341 37.231C52.5518 37.1688 52.8696 37.1343 53.1874 37.1343C53.7331 37.1343 54.2306 37.2103 54.6726 37.3554C55.1148 37.5073 55.5017 37.7215 55.8194 37.9979C56.1372 38.2742 56.3928 38.6196 56.5655 39.0341C56.7451 39.4486 56.8281 39.9183 56.8281 40.4434V45.6384H54.8522V44.913C54.6519 45.2239 54.3341 45.4588 53.9059 45.6177C53.4776 45.7765 53.0354 45.8595 52.5863 45.8595C52.1442 45.8595 51.7435 45.7973 51.3774 45.666C51.0113 45.5347 50.6935 45.3551 50.4241 45.1272C50.1478 44.8992 49.9405 44.616 49.7885 44.2775C49.6366 43.9389 49.5605 43.559 49.5605 43.1445C49.5605 42.7024 49.6504 42.3155 49.8231 41.977C50.0027 41.6385 50.2376 41.3553 50.5415 41.1273C50.8386 40.8993 51.184 40.7197 51.5778 40.6023C51.9716 40.4848 52.3722 40.4227 52.7936 40.4227C53.3325 40.4227 53.7677 40.4848 54.1062 40.6092C54.4447 40.7335 54.6726 40.8648 54.7901 41.0029V40.7888C54.7901 40.3052 54.6312 39.9183 54.3134 39.6282C53.9957 39.3381 53.5328 39.1929 52.9249 39.1929C52.3998 39.1929 51.9232 39.2966 51.5018 39.4969C51.0804 39.6973 50.7418 39.9598 50.4932 40.2707L50.0027 38.5989ZM54.7901 42.6678C54.7072 42.5158 54.5138 42.3846 54.2306 42.274C53.9404 42.1635 53.6088 42.1083 53.2358 42.1083C52.6969 42.1083 52.2962 42.1912 52.0268 42.3638C51.7574 42.5366 51.6261 42.7576 51.6261 43.0409C51.6261 43.3172 51.7643 43.5452 52.0337 43.711C52.31 43.8767 52.7038 43.9597 53.215 43.9597C53.5881 43.9597 53.9196 43.8906 54.2098 43.7593C54.5 43.6281 54.6934 43.4623 54.7901 43.2688V42.6678Z" fill="white"/>
<path d="M66.2094 37.3619H68.1857L69.4842 45.6449H67.4602L66.7418 41.2719L64.8073 45.6449H63.17L61.2426 41.2719L60.5034 45.6449H58.4241L59.709 37.3619H61.5466L63.8746 42.6536L66.2094 37.3619Z" fill="white"/>
<path d="M73.1525 37.3619V42.3289L76.8966 37.3619H78.9419V45.6449H76.9314V40.6778L73.1873 45.6449H71.1421V37.3619H73.1525Z" fill="white"/>
<path d="M91.9359 44.3874C91.6868 44.7949 91.2864 45.1404 90.727 45.4305C90.1676 45.7206 89.518 45.8657 88.779 45.8657C88.1983 45.8657 87.653 45.7552 87.1277 45.541C86.6095 45.3269 86.1466 45.0298 85.7462 44.6429C85.3452 44.2561 85.0278 43.7932 84.7857 43.2613C84.5508 42.7294 84.4336 42.1352 84.4336 41.4928C84.4336 40.8503 84.5508 40.2562 84.7857 39.7243C85.0207 39.1854 85.3387 38.7295 85.7462 38.3426C86.1537 37.9558 86.6095 37.6587 87.1277 37.4514C87.6459 37.2442 88.1983 37.1406 88.779 37.1406C89.518 37.1406 90.1605 37.2857 90.6993 37.5758C91.2381 37.8659 91.6321 38.2114 91.8664 38.6051L91.2864 40.3115C91.072 40.0559 90.7682 39.821 90.3678 39.6206C89.9738 39.4203 89.518 39.3167 88.9998 39.3167C88.2466 39.3167 87.653 39.517 87.1966 39.9177C86.7479 40.3184 86.52 40.8503 86.52 41.4997C86.52 42.156 86.7479 42.681 87.1966 43.0886C87.6459 43.4962 88.2466 43.6965 88.9998 43.6965C89.5251 43.6965 89.9879 43.5929 90.3813 43.3787C90.7753 43.1646 91.0862 42.9297 91.3141 42.6741L91.9359 44.3874Z" fill="white"/>
<path d="M99.8735 39.5311H97.3177V45.6449H95.2796V39.5311H92.7168V37.3619H99.8735V39.5311Z" fill="white"/>
<path d="M101.097 38.5989C101.249 38.364 101.435 38.1568 101.67 37.9702C101.898 37.7906 102.154 37.6386 102.437 37.5143C102.713 37.3899 103.01 37.3001 103.328 37.231C103.646 37.1688 103.963 37.1343 104.281 37.1343C104.827 37.1343 105.324 37.2103 105.767 37.3554C106.209 37.5073 106.596 37.7215 106.913 37.9979C107.231 38.2742 107.487 38.6196 107.659 39.0341C107.839 39.4486 107.922 39.9183 107.922 40.4434V45.6384H105.946V44.913C105.739 45.2239 105.428 45.4588 105 45.6177C104.572 45.7765 104.13 45.8595 103.68 45.8595C103.238 45.8595 102.838 45.7973 102.471 45.666C102.106 45.5347 101.788 45.3551 101.518 45.1272C101.242 44.8992 101.034 44.616 100.882 44.2775C100.731 43.9389 100.655 43.559 100.655 43.1445C100.655 42.7024 100.745 42.3155 100.917 41.977C101.097 41.6385 101.332 41.3553 101.636 41.1273C101.932 40.8993 102.278 40.7197 102.672 40.6023C103.065 40.4848 103.466 40.4227 103.887 40.4227C104.426 40.4227 104.862 40.4848 105.2 40.6092C105.539 40.7335 105.767 40.8648 105.884 41.0029V40.7888C105.884 40.3052 105.725 39.9183 105.407 39.6282C105.089 39.3381 104.627 39.1929 104.019 39.1929C103.494 39.1929 103.017 39.2966 102.596 39.4969C102.174 39.6973 101.836 39.9598 101.587 40.2707L101.097 38.5989ZM105.891 42.6678C105.808 42.5158 105.615 42.3846 105.331 42.274C105.041 42.1635 104.71 42.1083 104.337 42.1083C103.798 42.1083 103.397 42.1912 103.135 42.3638C102.865 42.5366 102.734 42.7576 102.734 43.0409C102.734 43.3172 102.872 43.5452 103.141 43.711C103.418 43.8767 103.812 43.9597 104.323 43.9597C104.696 43.9597 105.028 43.8906 105.318 43.7593C105.608 43.6281 105.801 43.4623 105.898 43.2688V42.6678H105.891Z" fill="white"/>
<path d="M111.983 37.3619V40.3048H115.617V37.3619H117.655V45.6449H115.617V42.474H111.983V45.6449H109.939V37.3619H111.983Z" fill="white"/>
<path d="M127.928 41.5135C127.928 42.1491 127.811 42.7294 127.576 43.2544C127.341 43.7863 127.023 44.2422 126.622 44.6291C126.221 45.016 125.758 45.32 125.234 45.5341C124.708 45.7552 124.149 45.8657 123.562 45.8657C122.975 45.8657 122.415 45.7552 121.89 45.5341C121.365 45.3131 120.902 45.0091 120.501 44.6291C120.101 44.2422 119.783 43.7863 119.541 43.2544C119.307 42.7225 119.189 42.1422 119.189 41.5135C119.189 40.8917 119.307 40.3115 119.541 39.7795C119.776 39.2407 120.094 38.7778 120.501 38.391C120.902 37.9972 121.365 37.6932 121.89 37.4722C122.415 37.2511 122.975 37.1406 123.562 37.1406C124.149 37.1406 124.708 37.2511 125.234 37.4722C125.758 37.6932 126.221 37.9972 126.622 38.391C127.023 38.7847 127.341 39.2476 127.576 39.7795C127.811 40.3115 127.928 40.8917 127.928 41.5135ZM121.42 40.6154C121.303 40.8917 121.24 41.1888 121.24 41.5066C121.24 41.8313 121.296 42.1215 121.42 42.3909C121.538 42.6603 121.703 42.8882 121.911 43.0817C122.118 43.2751 122.366 43.4271 122.65 43.5307C122.933 43.6343 123.237 43.6896 123.555 43.6896C123.88 43.6896 124.177 43.6343 124.453 43.5307C124.729 43.4202 124.978 43.2751 125.185 43.0817C125.393 42.8882 125.558 42.6603 125.682 42.3909C125.807 42.1215 125.869 41.8313 125.869 41.5066C125.869 41.1888 125.807 40.8849 125.682 40.6154C125.558 40.3391 125.393 40.1111 125.185 39.9177C124.978 39.7243 124.729 39.5723 124.453 39.4687C124.177 39.3651 123.873 39.3098 123.555 39.3098C123.237 39.3098 122.933 39.3651 122.65 39.4687C122.366 39.5723 122.118 39.7243 121.911 39.9177C121.703 40.1111 121.538 40.346 121.42 40.6154Z" fill="white"/>
<path d="M132.639 37.3619C133.06 37.3619 133.447 37.4102 133.814 37.5069C134.179 37.6037 134.49 37.7487 134.76 37.949C135.029 38.1494 135.236 38.3912 135.395 38.6883C135.554 38.9853 135.63 39.3307 135.63 39.7245C135.63 40.0699 135.582 40.3462 135.478 40.5673C135.375 40.7883 135.223 40.9956 135.023 41.189C135.334 41.3894 135.589 41.645 135.789 41.9559C135.99 42.2598 136.086 42.6467 136.086 43.1233C136.086 43.531 136.003 43.8902 135.838 44.201C135.672 44.5119 135.451 44.7744 135.167 44.9886C134.891 45.2027 134.566 45.3686 134.193 45.4791C133.82 45.5896 133.434 45.6449 133.026 45.6449H129.454V37.3619H132.639ZM131.416 39.2616V40.664H132.86C133.109 40.664 133.302 40.5949 133.44 40.4567C133.579 40.3186 133.648 40.1597 133.648 39.9732C133.648 39.7798 133.579 39.6139 133.44 39.4758C133.302 39.3376 133.102 39.2686 132.846 39.2686H131.416V39.2616ZM131.416 42.3151V43.7451H133.295C133.53 43.7451 133.716 43.676 133.862 43.5447C134 43.4135 134.069 43.2339 134.069 43.0197C134.069 42.8401 134 42.6743 133.862 42.5293C133.724 42.3842 133.53 42.3151 133.281 42.3151H131.416Z" fill="white"/>
<path d="M143.589 37.3619V45.6449H141.544V43.1855H140.867L139.195 45.6449H136.832L138.711 42.8816C138.228 42.6328 137.855 42.2944 137.585 41.8661C137.316 41.4377 137.185 40.9196 137.185 40.3048C137.185 39.842 137.267 39.4343 137.426 39.0682C137.585 38.7021 137.806 38.3981 138.083 38.1425C138.359 37.8938 138.691 37.7004 139.078 37.5622C139.465 37.431 139.879 37.3619 140.314 37.3619H143.589ZM140.169 39.4206C139.865 39.4206 139.63 39.5104 139.465 39.683C139.292 39.8627 139.209 40.0699 139.209 40.3186C139.209 40.5742 139.299 40.7815 139.485 40.9403C139.665 41.0992 139.9 41.1752 140.176 41.1752H141.557V39.4206H140.169Z" fill="white"/>
<path d="M152.079 39.5311H149.523V45.6449H147.485V39.5311H144.922V37.3619H152.079V39.5311Z" fill="white"/>
<path d="M160.293 44.3874C160.044 44.7949 159.644 45.1404 159.084 45.4305C158.524 45.7206 157.875 45.8657 157.136 45.8657C156.556 45.8657 156.01 45.7552 155.485 45.541C154.967 45.3269 154.504 45.0298 154.103 44.6429C153.702 44.2561 153.384 43.7932 153.143 43.2613C152.908 42.7294 152.79 42.1352 152.79 41.4928C152.79 40.8503 152.908 40.2562 153.143 39.7243C153.378 39.1854 153.695 38.7295 154.103 38.3426C154.51 37.9558 154.967 37.6587 155.485 37.4514C156.003 37.2442 156.556 37.1406 157.136 37.1406C157.875 37.1406 158.517 37.2857 159.057 37.5758C159.595 37.8659 159.989 38.2114 160.224 38.6051L159.644 40.3115C159.429 40.0559 159.126 39.821 158.724 39.6206C158.331 39.4203 157.875 39.3167 157.357 39.3167C156.604 39.3167 156.01 39.517 155.554 39.9177C155.105 40.3184 154.877 40.8503 154.877 41.4997C154.877 42.156 155.105 42.681 155.554 43.0886C156.003 43.4962 156.604 43.6965 157.357 43.6965C157.882 43.6965 158.345 43.5929 158.739 43.3787C159.133 43.1646 159.443 42.9297 159.671 42.6741L160.293 44.3874Z" fill="white"/>
<path d="M167.837 37.3619V45.6449H165.792V43.1855H165.115L163.443 45.6449H161.081L162.96 42.8816C162.476 42.6328 162.104 42.2944 161.834 41.8661C161.564 41.4377 161.434 40.9196 161.434 40.3048C161.434 39.842 161.516 39.4343 161.675 39.0682C161.834 38.7021 162.055 38.3981 162.332 38.1425C162.608 37.8938 162.946 37.7004 163.326 37.5622C163.713 37.431 164.128 37.3619 164.563 37.3619H167.837ZM164.411 39.4206C164.107 39.4206 163.872 39.5104 163.706 39.683C163.534 39.8627 163.45 40.0699 163.45 40.3186C163.45 40.5742 163.541 40.7815 163.727 40.9403C163.906 41.0992 164.141 41.1752 164.417 41.1752H165.8V39.4206H164.411Z" fill="white"/>
<path d="M6.36329 37.3688L9.78976 45.6517L7.33044 45.6449L5.38232 40.7883L3.4411 45.6449H0.974854L4.40826 37.3619L6.36329 37.3688Z" fill="white"/>
</g>
<defs>
<clipPath id="clip0_1_3039">
<rect width="244.628" height="48.2819" fill="white" transform="translate(0.954346 0.997009)"/>
</clipPath>
</defs>
</svg>
