<svg width="167" height="148" viewBox="0 0 167 148" fill="none" xmlns="http://www.w3.org/2000/svg">
<g clip-path="url(#clip0_1_3028)">
<path d="M0.684326 146.29L45.4335 20.801H152.722V61.5816L138.764 69.6556" stroke="white" stroke-width="0.821087"/>
<path d="M121.668 30.0853V30.9896H118.155V30.0853H121.668ZM118.437 27.3226V33.9384H117.296V27.3226H118.437ZM122.545 27.3226V33.9384H121.409V27.3226H122.545ZM126.561 28.2042L124.585 33.9384H123.39L125.88 27.3226H126.643L126.561 28.2042ZM128.215 33.9384L126.234 28.2042L126.148 27.3226H126.916L129.415 33.9384H128.215ZM128.12 31.4847V32.389H124.521V31.4847H128.12ZM132.218 31.6347L133.9 27.3226H135.158L132.859 32.7388C132.786 32.9054 132.703 33.0675 132.609 33.2251C132.518 33.3795 132.408 33.5174 132.277 33.6384C132.147 33.7596 131.989 33.8565 131.805 33.9293C131.62 33.9989 131.396 34.0339 131.132 34.0339C131.063 34.0339 130.978 34.0309 130.878 34.0246C130.781 34.0186 130.71 34.0125 130.664 34.0065L130.673 33.1115C130.71 33.1176 130.77 33.1219 130.855 33.1249C130.943 33.128 131.007 33.1296 131.046 33.1296C131.222 33.1296 131.361 33.1009 131.464 33.0431C131.567 32.9826 131.649 32.9024 131.709 32.8025C131.773 32.6994 131.829 32.5874 131.878 32.4662L132.218 31.6347ZM130.955 27.3226L132.618 30.9849L132.945 32.1755L132.059 32.2072L129.71 27.3226H130.955ZM137.185 27.3226V33.9384H136.049V27.3226H137.185ZM141.165 27.3226L138.475 31.0939H136.862L136.707 30.1034H137.844L139.77 27.3226H141.165ZM140.002 33.9384L137.862 30.9214L138.598 30.0442L141.369 33.9384H140.002ZM144.6 28.2042L142.624 33.9384H141.428L143.919 27.3226H144.682L144.6 28.2042ZM146.254 33.9384L144.273 28.2042L144.186 27.3226H144.954L147.454 33.9384H146.254ZM146.159 31.4847V32.389H142.56V31.4847H146.159ZM67.0243 43.0278L69.9594 38.2704H71.0999V44.8862H69.9594V40.1244L67.0243 44.8862H65.8882V38.2704H67.0243V43.0278ZM76.8478 42.5825L78.5291 38.2704H79.7878L77.4885 43.6866C77.4157 43.8533 77.3325 44.0153 77.2386 44.1729C77.1477 44.3273 77.0372 44.4653 76.9069 44.5862C76.7766 44.7075 76.6192 44.8044 76.4345 44.8772C76.2495 44.9467 76.0253 44.9817 75.762 44.9817C75.6922 44.9817 75.6074 44.9787 75.5075 44.9724C75.4106 44.9664 75.3394 44.9604 75.294 44.9543L75.303 44.0594C75.3394 44.0654 75.3999 44.0698 75.4848 44.0728C75.5726 44.0758 75.6361 44.0774 75.6755 44.0774C75.8513 44.0774 75.9906 44.0487 76.0935 43.9909C76.1967 43.9305 76.2785 43.8503 76.339 43.7504C76.4025 43.6472 76.4586 43.5352 76.507 43.414L76.8478 42.5825ZM75.5847 38.2704L77.2476 41.9327L77.575 43.1233L76.6888 43.1551L74.3396 38.2704H75.5847ZM85.0266 41.0331V41.9374H81.5143V41.0331H85.0266ZM81.7959 38.2704V44.8862H80.6554V38.2704H81.7959ZM85.9035 38.2704V44.8862H84.7677V38.2704H85.9035ZM88.389 43.0278L91.3244 38.2704H92.4648V44.8862H91.3244V40.1244L88.389 44.8862H87.2531V38.2704H88.389V43.0278ZM96.3133 41.8963H94.6276L94.6186 41.0649H96.0908C96.339 41.0649 96.5497 41.0285 96.7224 40.9559C96.8979 40.8801 97.0312 40.7725 97.122 40.6332C97.2132 40.4909 97.2586 40.3196 97.2586 40.1198C97.2586 39.8986 97.2162 39.7183 97.1314 39.579C97.0465 39.4397 96.9162 39.3381 96.7405 39.2746C96.5678 39.2111 96.3467 39.1791 96.0771 39.1791H94.973V44.8862H93.8325V38.2704H96.0771C96.4405 38.2704 96.7646 38.3052 97.0495 38.375C97.3372 38.4448 97.581 38.5537 97.7811 38.702C97.9839 38.8476 98.1369 39.0324 98.2398 39.2565C98.346 39.4807 98.3991 39.7473 98.3991 40.0563C98.3991 40.3289 98.334 40.5788 98.2037 40.8059C98.0734 41.0301 97.881 41.2132 97.6265 41.3558C97.3722 41.4981 97.0555 41.583 96.677 41.6101L96.3133 41.8963ZM96.2635 44.8862H94.2688L94.7822 43.9819H96.2635C96.521 43.9819 96.7359 43.9395 96.9086 43.8546C97.0813 43.7668 97.2099 43.6472 97.2947 43.4958C97.3826 43.3412 97.4267 43.1611 97.4267 42.955C97.4267 42.7401 97.3886 42.5538 97.3131 42.3961C97.2373 42.2357 97.1177 42.1131 96.954 42.0283C96.7906 41.9404 96.5768 41.8963 96.3133 41.8963H95.0321L95.0411 41.0649H96.7088L96.9677 41.3785C97.3311 41.3906 97.6295 41.4707 97.8629 41.6191C98.0991 41.7677 98.2749 41.9601 98.3898 42.1963C98.505 42.4325 98.5625 42.687 98.5625 42.9597C98.5625 43.3806 98.4703 43.7337 98.2853 44.0183C98.1035 44.3029 97.8416 44.5197 97.4992 44.6681C97.1571 44.8134 96.7452 44.8862 96.2635 44.8862ZM104.042 43.9819V44.8862H100.53V43.9819H104.042ZM100.853 38.2704V44.8862H99.712V38.2704H100.853ZM103.583 41.0331V41.9237H100.53V41.0331H103.583ZM104.02 38.2704V39.1791H100.53V38.2704H104.02ZM107.487 42.4188H105.765V41.5148H107.487C107.786 41.5148 108.029 41.4664 108.214 41.3692C108.398 41.2723 108.533 41.139 108.618 40.9693C108.706 40.7969 108.75 40.5998 108.75 40.3787C108.75 40.1699 108.706 39.9745 108.618 39.7927C108.533 39.608 108.398 39.4594 108.214 39.3474C108.029 39.2352 107.786 39.1791 107.487 39.1791H106.114V44.8862H104.974V38.2704H107.487C107.998 38.2704 108.433 38.3613 108.791 38.543C109.151 38.7218 109.425 38.9703 109.613 39.2883C109.801 39.6033 109.895 39.9638 109.895 40.3697C109.895 40.7969 109.801 41.1634 109.613 41.4694C109.425 41.7751 109.151 42.0099 108.791 42.1736C108.433 42.3373 107.998 42.4188 107.487 42.4188ZM114.825 42.7325H115.961C115.924 43.1657 115.803 43.5519 115.597 43.891C115.391 44.2274 115.102 44.4923 114.729 44.6864C114.357 44.8802 113.904 44.9771 113.371 44.9771C112.962 44.9771 112.594 44.9043 112.266 44.7589C111.939 44.6106 111.659 44.4015 111.426 44.1319C111.193 43.8593 111.014 43.5306 110.89 43.146C110.769 42.7612 110.708 42.331 110.708 41.8556V41.3057C110.708 40.83 110.77 40.4001 110.894 40.0152C111.022 39.6307 111.203 39.302 111.44 39.0294C111.676 38.7535 111.959 38.543 112.289 38.3977C112.623 38.2524 112.997 38.1796 113.412 38.1796C113.939 38.1796 114.384 38.2764 114.747 38.4705C115.111 38.6643 115.393 38.9322 115.593 39.2746C115.795 39.617 115.92 40.0092 115.965 40.4515H114.829C114.799 40.1669 114.732 39.923 114.629 39.7199C114.529 39.5168 114.381 39.3625 114.184 39.2565C113.987 39.1473 113.73 39.0929 113.412 39.0929C113.151 39.0929 112.924 39.1413 112.73 39.2382C112.536 39.3351 112.374 39.4777 112.244 39.6655C112.114 39.8532 112.015 40.085 111.948 40.3606C111.885 40.6332 111.853 40.9452 111.853 41.2967V41.8556C111.853 42.1887 111.882 42.4916 111.939 42.7642C112 43.0338 112.091 43.2656 112.212 43.4594C112.336 43.6532 112.494 43.8032 112.685 43.9094C112.875 44.0153 113.104 44.0684 113.371 44.0684C113.695 44.0684 113.957 44.0169 114.157 43.9138C114.36 43.8108 114.513 43.6609 114.616 43.4641C114.722 43.264 114.791 43.0201 114.825 42.7325ZM118.124 43.0278L121.059 38.2704H122.199V44.8862H121.059V40.1244L118.124 44.8862H116.988V38.2704H118.124V43.0278ZM126.152 38.2704V44.8862H125.021V38.2704H126.152ZM128.229 38.2704V39.1791H122.963V38.2704H128.229ZM133.432 43.9819V44.8862H129.919V43.9819H133.432ZM130.242 38.2704V44.8862H129.101V38.2704H130.242ZM132.973 41.0331V41.9237H129.919V41.0331H132.973ZM133.409 38.2704V39.1791H129.919V38.2704H133.409ZM137.175 38.2704V44.8862H136.044V38.2704H137.175ZM139.252 38.2704V39.1791H133.986V38.2704H139.252ZM140.933 40.8103H142.601C143.104 40.8103 143.532 40.8952 143.887 41.0649C144.244 41.2315 144.517 41.4664 144.705 41.7691C144.895 42.0721 144.991 42.4249 144.991 42.8277C144.991 43.1307 144.936 43.408 144.827 43.6595C144.721 43.9107 144.565 44.1289 144.359 44.3136C144.153 44.4954 143.902 44.6363 143.605 44.7362C143.311 44.8361 142.976 44.8862 142.601 44.8862H140.147V38.2704H141.288V43.9819H142.601C142.889 43.9819 143.125 43.9291 143.31 43.8229C143.494 43.714 143.631 43.5716 143.718 43.3959C143.81 43.2202 143.855 43.0278 143.855 42.8187C143.855 42.6159 143.81 42.4311 143.718 42.2645C143.631 42.0978 143.494 41.9645 143.31 41.8646C143.125 41.7647 142.889 41.7146 142.601 41.7146H140.933V40.8103ZM146.813 38.2704V44.8862H145.672V38.2704H146.813Z" fill="white"/>
<path d="M49.9199 59.8033H47.7744V54.6918H45.8867V66.6618H47.7744V61.515H49.9199V66.6618H51.8426V54.6918H49.9199V59.8033ZM129.49 54.6918H127.602V66.6618H129.49V54.6918ZM54.9611 54.6918L53.0384 66.6618H54.7733L55.1018 64.481H57.4465L57.7747 66.6618H59.6741L57.7279 54.6918H54.9611ZM55.3363 62.8983L56.2507 56.8255L57.1534 62.8983H55.3363ZM71.2807 59.6509L70.5888 62.3005V54.6918H68.9124V66.6618H70.8469L72.4297 61.1515L73.2035 58.2088V66.6736H74.9034V54.6918H72.8164L71.2807 59.6509ZM101.235 63.6723L101.434 56.4152H103.087V66.7086H104.998V54.6918H99.6641L99.3594 63.7541C99.3594 64.9266 99.0545 64.9969 98.1869 64.9969V66.7086H98.4683C100.356 66.7086 101.153 65.8528 101.223 63.6605M126.512 63.7308V62.1245C126.512 60.2136 125.585 59.1585 123.698 59.1585H122.807V54.6918H120.92V66.6618H123.698C125.585 66.6618 126.512 65.6065 126.512 63.6955M122.807 60.8819H123.698C124.296 60.8819 124.624 61.1515 124.624 62.0542V63.8597C124.624 64.7156 124.296 65.0323 123.698 65.0323H122.807V60.8819ZM112.15 63.6955V62.1245C112.15 60.2136 111.224 59.1585 109.325 59.1585H108.434V54.6918H106.558V66.6618H109.325C111.224 66.6618 112.15 65.6065 112.15 63.6955ZM108.434 60.8819H109.325C109.934 60.8819 110.263 61.1515 110.263 62.0542V63.8597C110.263 64.7156 109.934 65.0323 109.325 65.0323H108.434V60.8819ZM115.362 61.515H117.52V66.6618H119.431V54.6918H117.52V59.8383H115.362V54.6918H113.486V66.6618H115.362V61.515ZM66.7905 54.6918H64.8678V64.9734H62.7223V54.6918H60.8346V66.6618H65.7704V68.2679H67.5993V64.9734H66.7787L66.7905 54.6918ZM95.3145 66.6969H97.2139L95.2912 54.6918H92.5244L90.6017 66.6969H92.3367L92.6651 64.5163H95.0099L95.3145 66.6969ZM92.9697 62.8868L93.8727 56.8137L94.7871 62.8868H92.9697ZM136.207 56.4035V54.6918H131.061V66.6618H136.207V64.9384H132.948V61.4211H135.539V59.7094H132.948V56.3682L136.207 56.4035ZM79.1591 54.5158C78.7617 54.4824 78.3618 54.5385 77.9887 54.6803C77.616 54.822 77.2799 55.0459 77.0051 55.3352C76.7306 55.6245 76.5245 55.9718 76.4021 56.3517C76.2798 56.7313 76.2445 57.1337 76.2984 57.5289V63.7776C76.2984 64.1534 76.3726 64.5254 76.5163 64.8724C76.6599 65.2195 76.8707 65.5348 77.1365 65.8005C77.4019 66.066 77.7172 66.2767 78.0643 66.4204C78.4113 66.5644 78.7836 66.6383 79.1591 66.6383C79.5348 66.6383 79.9068 66.5644 80.2538 66.4204C80.6009 66.2767 80.9162 66.066 81.1819 65.8005C81.4474 65.5348 81.6582 65.2195 81.8019 64.8724C81.9458 64.5254 82.0197 64.1534 82.0197 63.7776V57.5289C82.0739 57.1337 82.0383 56.7313 81.916 56.3517C81.7939 55.9718 81.5878 55.6245 81.313 55.3352C81.0382 55.0459 80.7022 54.822 80.3294 54.6803C79.9566 54.5385 79.5565 54.4824 79.1591 54.5158ZM80.1321 63.8948C80.1321 64.7506 79.7571 65.0673 79.1591 65.0673C78.5613 65.0673 78.1743 64.7391 78.1743 63.8948V57.4118C78.1743 56.5559 78.5613 56.2392 79.1591 56.2392C79.7571 56.2392 80.1321 56.5674 80.1321 57.4118V63.8948ZM85.326 61.55H87.53V66.6969H89.441V54.6918H87.53V59.8383H85.3845V54.6918H83.4969V66.6618H85.3845L85.326 61.55ZM111.787 70.8119V69.0652H106.64V81.0703H111.787V79.3118H108.527V75.7945H111.118V74.1181H108.527V70.7769L111.787 70.8119ZM117.449 81.1056H119.384L116.757 74.4463L119.384 69.1002H117.496L115.022 74.3291V69.0652H113.147V81.0703H115.022V77.3773L115.608 76.2754L117.449 81.1056ZM124.214 81.1056V70.7769H126.219V69.0652H120.357V70.7769H122.326V81.0703L124.214 81.1056ZM132.972 78.1395V76.5332C132.972 74.6105 132.046 73.5672 130.158 73.5672H129.267V69.0652H127.391V81.0703H130.17C132.057 81.0703 132.983 80.0269 132.983 78.1042M129.279 75.2906H130.17C130.779 75.2906 131.096 75.5602 131.096 76.4629V78.2684C131.096 79.1243 130.779 79.4407 130.17 79.4407H129.279V75.2906ZM98.3629 73.5904V72.0312C98.3629 70.1085 97.4367 69.0652 95.549 69.0652H92.7705V81.0703H94.6582V76.5568H95.549C97.4367 76.5568 98.3629 75.5132 98.3629 73.5904ZM94.6582 70.7769H95.549C96.1471 70.7769 96.4752 71.0464 96.4752 71.9491V73.7547C96.4752 74.6105 96.1471 74.9272 95.549 74.9272H94.6582V70.7769ZM85.2789 81.0703H87.1666V70.7769H89.3121V81.0703H91.223V69.0652H85.3024L85.2789 81.0703ZM134.027 81.0703H135.914V69.0652H134.027V81.0703ZM102.372 68.9245C101.975 68.8908 101.575 68.9472 101.202 69.089C100.829 69.2307 100.493 69.4546 100.218 69.7439C99.9438 70.0332 99.7377 70.3805 99.6153 70.7602C99.493 71.14 99.4577 71.5424 99.5116 71.9376V78.1395C99.4867 78.5312 99.5423 78.9239 99.675 79.2937C99.8075 79.6632 100.015 80.0015 100.283 80.288C100.552 80.5743 100.877 80.8026 101.237 80.9586C101.597 81.1146 101.986 81.1951 102.378 81.1951C102.771 81.1951 103.159 81.1146 103.52 80.9586C103.88 80.8026 104.204 80.5743 104.473 80.288C104.742 80.0015 104.949 79.6632 105.082 79.2937C105.214 78.9239 105.27 78.5312 105.245 78.1395V71.9376C105.297 71.5416 105.26 71.1392 105.136 70.7596C105.012 70.38 104.805 70.0329 104.529 69.7439C104.254 69.4549 103.917 69.2313 103.544 69.0895C103.171 68.9477 102.77 68.8914 102.372 68.9245ZM103.357 78.3035C103.357 79.1593 102.982 79.476 102.372 79.476C101.763 79.476 101.399 79.1476 101.399 78.3035V71.8202C101.399 70.9643 101.775 70.6479 102.372 70.6479C102.97 70.6479 103.357 70.9761 103.357 71.8202V78.3035ZM132.339 88.4212L131.647 91.0708V83.4621H129.97V95.479H131.905L133.487 89.9687L134.261 87.0144V95.479H135.95V83.4621H133.874L132.339 88.4212ZM104.447 83.3332C104.051 83.3014 103.652 83.3589 103.281 83.5018C102.91 83.6444 102.575 83.8685 102.302 84.1575C102.028 84.4466 101.823 84.7934 101.702 85.1719C101.58 85.5507 101.545 85.9519 101.599 86.346V92.595C101.599 93.3537 101.9 94.0812 102.436 94.6176C102.973 95.1541 103.701 95.4554 104.459 95.4554C105.218 95.4554 105.945 95.1541 106.482 94.6176C107.019 94.0812 107.32 93.3537 107.32 92.595V86.346C107.374 85.9508 107.338 85.5485 107.216 85.1689C107.094 84.7892 106.888 84.4419 106.613 84.1526C106.338 83.8633 106.002 83.6394 105.63 83.4977C105.257 83.3556 104.857 83.2995 104.459 83.3332M105.432 92.7122C105.432 93.568 105.057 93.8844 104.459 93.8844C103.861 93.8844 103.474 93.5563 103.474 92.7122V86.2289C103.474 85.373 103.861 85.0564 104.459 85.0564C105.057 85.0564 105.432 85.3848 105.432 86.2289V92.7122ZM97.6242 83.4621H94.8456V95.479H96.7331V90.9652H97.6242C99.5116 90.9652 100.438 89.9219 100.438 87.9991V86.4399C100.438 84.5172 99.5116 83.4621 97.6242 83.4621ZM98.5504 88.1516C98.5504 89.0074 98.2337 89.3241 97.6242 89.3241H96.7331V85.1738H97.6242C98.2337 85.1738 98.5504 85.4434 98.5504 86.346V88.1516ZM111.447 83.3682C109.594 83.3682 108.633 84.4586 108.633 86.3813V92.6301C108.633 94.5528 109.594 95.6432 111.447 95.6432C113.299 95.6432 114.26 94.5528 114.26 92.6301V91.0355H112.467V92.7472C112.467 93.6031 112.091 93.9197 111.493 93.9197C110.896 93.9197 110.52 93.6031 110.52 92.7472V86.2289C110.52 85.373 110.896 85.0564 111.493 85.0564C112.091 85.0564 112.467 85.3848 112.467 86.2289V87.5185H114.26V86.346C114.26 84.4233 113.299 83.3332 111.447 83.3332M118.34 83.3332C116.488 83.3332 115.527 84.4233 115.527 86.346V92.595C115.527 94.5177 116.488 95.6079 118.34 95.6079C120.193 95.6079 121.154 94.5177 121.154 92.595V91.0355H119.372V92.7472C119.372 93.6031 118.997 93.9197 118.399 93.9197C117.801 93.9197 117.414 93.6031 117.414 92.7472V86.2289C117.414 85.373 117.801 85.0564 118.399 85.0564C118.997 85.0564 119.372 85.3848 119.372 86.2289V87.5185H121.154V86.346C121.154 84.4233 120.193 83.3332 118.34 83.3332ZM124.87 88.4212L124.179 91.0708V83.4621H122.502V95.479H124.437L126.019 89.9687L126.793 87.0144V95.479H128.493V83.4621H126.418L124.87 88.4212Z" fill="white"/>
<mask id="mask0_1_3028" style="mask-type:alpha" maskUnits="userSpaceOnUse" x="-1" y="52" width="140" height="96">
<path d="M43.5785 52.9446L0.11822 146.138C0.00297069 146.352 -0.0425389 146.597 -0.0119819 146.839C0.018575 147.081 0.123679 147.307 0.288721 147.486C0.453765 147.666 0.670546 147.789 0.908932 147.839C1.14732 147.89 1.39546 147.864 1.61887 147.767L137.944 98.1635C138.187 98.0819 138.396 97.9232 138.54 97.7116C138.684 97.4998 138.754 97.2469 138.741 96.9912V53.4487C138.741 53.1378 138.618 52.8398 138.398 52.6197C138.178 52.3999 137.88 52.2765 137.569 52.2765H44.6689C44.4395 52.2724 44.2137 52.3356 44.02 52.4585C43.8262 52.5817 43.6726 52.7587 43.5785 52.9681" fill="white"/>
</mask>
<g mask="url(#mask0_1_3028)">
<path d="M0.118001 146.138L1.15093 146.692L1.16656 146.663L1.18053 146.633L0.118001 146.138ZM1.61865 147.767L1.21778 146.666L1.18394 146.678L1.15093 146.692L1.61865 147.767ZM137.944 98.1637L137.57 97.0524L137.557 97.0571L137.543 97.062L137.944 98.1637ZM138.741 96.9914H137.569V97.0221L137.57 97.0524L138.741 96.9914ZM44.6687 52.2767L44.6479 53.4489H44.6583H44.6687V52.2767ZM42.5158 52.4494L-0.944526 145.642L1.18053 146.633L44.6408 53.4404L42.5158 52.4494ZM-0.914926 145.583C-1.14543 146.012 -1.23644 146.503 -1.17533 146.987L1.15093 146.692L-0.914926 145.583ZM-1.17533 146.987C-1.11422 147.47 -0.904014 147.922 -0.573921 148.281L1.15093 146.692L-1.17533 146.987ZM-0.573921 148.281C-0.2438 148.639 0.189778 148.886 0.666497 148.986L1.15093 146.692L-0.573921 148.281ZM0.666497 148.986C1.14324 149.087 1.63953 149.037 2.08638 148.842L1.15093 146.692L0.666497 148.986ZM2.01953 148.869L138.345 99.2655L137.543 97.062L1.21778 146.666L2.01953 148.869ZM138.317 99.2751C138.803 99.112 139.221 98.7945 139.509 98.3711L137.57 97.0524L138.317 99.2751ZM139.509 98.3711C139.797 97.9477 139.939 97.4416 139.912 96.9304L137.57 97.0524L139.509 98.3711ZM139.913 96.9914V53.4489H137.569V96.9914H139.913ZM139.913 53.4489C139.913 52.8271 139.666 52.2307 139.227 51.7909L137.569 53.4489H139.913ZM139.227 51.7909C138.787 51.3513 138.19 51.1042 137.569 51.1042V53.4489L139.227 51.7909ZM137.569 51.1042H44.6687V53.4489H137.569V51.1042ZM44.6895 51.1044C44.2305 51.0962 43.7794 51.223 43.3916 51.4687L44.6479 53.4489L44.6895 51.1044ZM43.3916 51.4687C43.0041 51.7148 42.6973 52.0689 42.5089 52.4877L44.6479 53.4489L43.3916 51.4687Z" fill="white"/>
</g>
</g>
<defs>
<clipPath id="clip0_1_3028">
<rect width="166.954" height="147.796" fill="white"/>
</clipPath>
</defs>
</svg>
