<svg width="197" height="32" viewBox="0 0 197 32" fill="none" xmlns="http://www.w3.org/2000/svg">
<g clip-path="url(#clip0_1_3073)">
<path d="M128.789 0.746516H112.718C112.54 0.746516 112.451 0.835797 112.451 1.01436C112.004 8.24607 110.665 16.1027 108.701 22.4416V22.7095C108.79 22.7988 108.879 22.7988 108.969 22.7988H114.504C114.593 22.7988 114.772 22.7095 114.772 22.6202C116.29 17.7098 117.54 11.2816 117.986 5.8355H123.254V22.5309C123.254 22.7095 123.343 22.7988 123.521 22.7988H128.789C128.968 22.7988 129.057 22.7095 129.057 22.5309V1.10364C129.057 0.925077 128.968 0.746516 128.789 0.746516ZM196.731 0.746516H191.464C191.285 0.746516 191.196 0.835797 191.196 1.01436V17.6205C190.035 17.9776 188.875 18.0669 187.625 18.0669C184.143 18.0669 183.339 16.9955 183.339 12.353V1.10364C183.339 0.925077 183.25 0.835797 183.071 0.835797H177.804C177.625 0.835797 177.536 0.925077 177.536 1.10364V13.0672C177.536 20.5668 180.036 23.513 186.553 23.513C190.214 23.513 194.41 22.5309 196.821 21.6381C196.91 21.6381 196.999 21.4596 196.999 21.3703V1.10364C196.999 0.925077 196.91 0.746516 196.731 0.746516ZM85.5773 0.835797H80.2204C80.0419 0.835797 79.9526 0.925077 79.9526 1.01436C79.1491 4.31773 77.4528 9.85311 75.1315 15.6563L69.7746 0.925077C69.7746 0.835797 69.5961 0.746516 69.5068 0.746516H64.15C64.0607 0.746516 63.9714 0.835797 63.8821 0.835797C63.7929 0.925077 63.7929 1.01436 63.8821 1.10364L71.9174 23.0666C71.1139 24.7629 70.3103 26.1914 69.5961 27.5306C69.0604 28.5127 68.5247 29.4948 67.989 30.5662C67.8998 30.6554 67.989 30.7447 67.989 30.834C68.0783 30.9233 68.1676 31.0126 68.2569 31.0126H74.0601C74.1494 31.0126 74.2387 30.9233 74.3279 30.834C75.31 28.9591 76.56 26.2807 77.7206 23.6023C81.1133 15.5671 83.8809 8.06751 85.9344 1.19292C85.9344 1.10364 85.9344 1.01436 85.8451 0.925077C85.7558 0.835797 85.6665 0.835797 85.5773 0.835797ZM104.683 17.7098C104.683 17.6205 104.594 17.5312 104.505 17.5312H104.237C102.987 17.9776 100.576 18.424 98.88 18.424C95.2195 18.424 93.5232 17.4419 93.5232 11.8173C93.5232 7.35326 94.0589 5.21053 98.88 5.21053C100.219 5.21053 101.558 5.38909 103.166 5.92478C103.344 5.92478 103.433 5.92478 103.523 5.74622C104.148 4.58557 104.862 3.24637 105.665 1.46076V1.19292C105.665 1.10364 105.576 1.01436 105.487 1.01436C103.344 0.300115 100.755 -0.0570068 98.5229 -0.0570068C90.8448 -0.0570068 87.4522 3.51421 87.4522 11.6387C87.4522 19.8525 90.8448 23.513 98.5229 23.513C100.398 23.513 104.237 23.0666 106.022 22.3524C106.201 22.2631 106.201 22.1738 106.201 21.9952L104.683 17.7098ZM154.591 0.835797H149.234C149.145 0.835797 148.966 0.925077 148.966 1.01436C148.163 4.31773 146.466 9.85311 144.145 15.6563L138.788 0.925077C138.788 0.835797 138.61 0.746516 138.521 0.746516H133.164C133.074 0.746516 132.985 0.835797 132.896 0.835797C132.807 0.925077 132.807 1.01436 132.896 1.10364L140.931 23.0666C140.128 24.7629 139.324 26.1021 138.61 27.5306C138.074 28.5127 137.538 29.4948 137.003 30.5662C136.913 30.6554 137.003 30.7447 137.003 30.834C137.092 30.9233 137.181 31.0126 137.271 31.0126H143.074C143.163 31.0126 143.252 30.9233 143.342 30.834C144.324 28.9591 145.574 26.2807 146.734 23.6023C150.127 15.5671 152.895 8.06751 154.859 1.19292C154.859 1.10364 154.859 1.01436 154.77 0.925077C154.77 0.835797 154.68 0.835797 154.591 0.835797ZM174.233 0.746516H158.698C158.519 0.746516 158.43 0.835797 158.43 1.01436V22.5309C158.43 22.7095 158.519 22.7988 158.698 22.7988H163.965C164.144 22.7988 164.233 22.7095 164.233 22.5309V5.92478H172.358C172.447 5.92478 172.626 5.8355 172.626 5.74622C173.251 4.31773 173.876 2.71068 174.501 1.19292V0.925077C174.411 0.835797 174.322 0.746516 174.233 0.746516Z" fill="white"/>
<path d="M28.5273 18.6025C25.0453 18.6025 23.974 17.6205 23.974 11.8172C23.974 5.56761 25.1346 5.03193 28.5273 5.03193C31.9199 5.03193 33.1698 5.56761 33.1698 11.8172C33.1698 17.7097 32.0092 18.6025 28.5273 18.6025ZM28.5273 0.121507C20.9384 0.121507 17.9922 3.3356 17.9922 11.728C17.9922 20.2096 20.9384 23.513 28.5273 23.513C36.1161 23.513 39.1516 20.2096 39.1516 11.728C39.1516 3.42488 36.1161 0.121507 28.5273 0.121507ZM60.0432 17.7097C60.0432 17.6205 59.954 17.5312 59.8647 17.5312H59.5968C58.3469 17.9776 55.9363 18.424 54.24 18.424C50.5795 18.424 48.8832 17.4419 48.8832 11.8172C48.8832 7.35322 49.4189 5.21049 54.24 5.21049C55.5792 5.21049 56.9184 5.38905 58.5255 5.92473C58.6148 5.92473 58.7933 5.92473 58.8826 5.74617C59.5076 4.58553 60.2218 3.24632 61.0253 1.46071V1.19287C61.0253 1.10359 60.936 1.01431 60.8468 1.01431C58.7933 0.389348 56.2042 0.0322266 53.9722 0.0322266C46.2941 0.0322266 42.9014 3.60344 42.9014 11.728C42.9014 19.9417 46.2941 23.6022 53.9722 23.6022C55.8471 23.6022 59.6861 23.1558 61.4717 22.4416C61.6503 22.3523 61.6503 22.263 61.6503 22.0845L60.0432 17.7097ZM16.3851 0.746469H0.850361C0.6718 0.746469 0.58252 0.92503 0.58252 1.10359V22.6202C0.58252 22.7987 0.6718 22.888 0.850361 22.888H6.1179C6.29646 22.888 6.38574 22.7987 6.38574 22.6202V5.92473H14.5103C14.5995 5.92473 14.6888 5.83545 14.7781 5.74617C15.4031 4.31768 16.028 2.71064 16.653 1.19287V0.92503C16.5637 0.83575 16.4744 0.746469 16.3851 0.746469Z" fill="white"/>
</g>
<defs>
<clipPath id="clip0_1_3073">
<rect width="196.417" height="30.9803" fill="white" transform="translate(0.58252 0.0322266)"/>
</clipPath>
</defs>
</svg>
