<svg width="195" height="104" viewBox="0 0 195 104" fill="none" xmlns="http://www.w3.org/2000/svg">
<path d="M10.1415 27.7201C8.06545 27.7201 6.18937 27.2154 4.51328 26.2059C2.83719 25.1964 1.55156 23.8537 0.656371 22.1776L4.65613 20.0063C5.87511 22.2157 7.70357 23.3204 10.1415 23.3204C11.4367 23.3204 12.589 22.9394 13.5985 22.1776C14.627 21.3967 15.3412 20.4063 15.7412 19.2063H7.59881V15.2066H15.7126C15.3126 14.0447 14.5984 13.0829 13.5699 12.321C12.5604 11.5401 11.4176 11.1497 10.1415 11.1497C7.70357 11.1497 5.87511 12.2544 4.65613 14.4638L0.656371 12.2925C1.55156 10.6164 2.83719 9.27359 4.51328 8.26413C6.18937 7.25466 8.06545 6.74993 10.1415 6.74993C13.0366 6.74993 15.5031 7.77844 17.5411 9.83546C19.5981 11.8734 20.6266 14.34 20.6266 17.235C20.6266 20.1301 19.5981 22.6061 17.5411 24.6631C15.5031 26.7011 13.0366 27.7201 10.1415 27.7201ZM24.9074 27.3201V7.03563H29.45V14.978H37.6209V7.03563H42.1635V27.3201H37.6209V19.292H29.45V27.3201H24.9074ZM62.7596 31.5484V27.3201H50.3317V31.5484H46.2463V22.9775H46.5891C48.3033 22.9775 49.1604 21.1681 49.1604 17.5493V7.03563H64.2166V22.9775H66.845V31.5484H62.7596ZM53.7315 11.3782V17.9207C53.7315 19.9968 53.3887 21.6824 52.703 22.9775H59.6455V11.3782H53.7315ZM68.8248 27.3201L77.51 7.03563H81.6241L90.3093 27.3201H85.5667L83.7668 23.0347H75.3673L73.5674 27.3201H68.8248ZM79.567 13.0067L76.9958 19.0921H82.1097L79.567 13.0067ZM92.8397 27.3487L93.7253 23.1204C94.4491 23.2728 95.03 23.3489 95.4681 23.3489C96.5347 23.3489 97.3347 22.9871 97.868 22.2633L90.0113 7.03563H95.211L100.468 17.2065L105.468 7.03563H110.667L103.125 22.149C102.134 24.1108 101.077 25.5202 99.9535 26.3773C98.8298 27.2344 97.4585 27.663 95.8395 27.663C94.8872 27.663 93.8872 27.5582 92.8397 27.3487ZM113.737 27.3201V7.03563H117.879L124.193 17.3779L130.536 7.03563H134.678V27.3201H130.107V15.7208L125.708 22.9775H122.736L118.279 15.6637V27.3201H113.737ZM140.101 27.3201V7.03563H152.958V11.3782H144.644V15.0066H151.244V19.3492H144.644V22.9775H152.958V27.3201H140.101ZM157.566 27.3201V7.03563H162.108V14.978H170.279V7.03563H174.822V27.3201H170.279V19.292H162.108V27.3201H157.566ZM183.904 27.3201V11.3782H178.733V7.03563H193.704V11.3782H188.475V27.3201H183.904ZM15.2269 62.1772H10.6558V59.6917C7.66547 59.6917 5.30371 58.9488 3.57048 57.4632C1.83725 55.9585 0.970638 53.8253 0.970638 51.0636C0.970638 48.34 1.83725 46.2258 3.57048 44.7211C5.32276 43.2165 7.68452 42.4641 10.6558 42.4641V40.1785H15.2269V42.4641C18.1982 42.4641 20.5504 43.2165 22.2836 44.7211C24.0359 46.2258 24.9121 48.34 24.9121 51.0636C24.9121 53.8253 24.0454 55.9585 22.3122 57.4632C20.579 58.9488 18.2172 59.6917 15.2269 59.6917V62.1772ZM15.2269 46.5496V55.5776C18.6172 55.5776 20.3123 54.0634 20.3123 51.035C20.3123 48.0447 18.6172 46.5496 15.2269 46.5496ZM10.6558 55.5776V46.5496C7.2655 46.5496 5.57036 48.0447 5.57036 51.035C5.57036 54.0634 7.2655 55.5776 10.6558 55.5776ZM34.3186 55.4633C35.4805 56.6633 36.8804 57.2632 38.5184 57.2632C40.1564 57.2632 41.5468 56.6633 42.6896 55.4633C43.8324 54.2634 44.4037 52.8349 44.4037 51.1779C44.4037 49.5208 43.8324 48.0924 42.6896 46.8924C41.5468 45.6925 40.1564 45.0925 38.5184 45.0925C36.8804 45.0925 35.4805 45.6925 34.3186 46.8924C33.1758 48.0924 32.6045 49.5208 32.6045 51.1779C32.6045 52.8349 33.1758 54.2634 34.3186 55.4633ZM45.9179 58.5774C43.88 60.6345 41.4135 61.663 38.5184 61.663C35.6233 61.663 33.1473 60.644 31.0903 58.606C29.0523 56.549 28.0333 54.0729 28.0333 51.1779C28.0333 48.2828 29.0523 45.8163 31.0903 43.7783C33.1473 41.7213 35.6233 40.6928 38.5184 40.6928C41.4135 40.6928 43.88 41.7213 45.9179 43.7783C47.975 45.8353 49.0035 48.3019 49.0035 51.1779C49.0035 54.0539 47.975 56.5204 45.9179 58.5774ZM53.2807 61.3201V41.0356H57.8233V48.978H65.9942V41.0356H70.5368V61.3201H65.9942V53.292H57.8233V61.3201H53.2807ZM91.1329 65.5484V61.3201H78.705V65.5484H74.6196V56.9775H74.9624C76.6766 56.9775 77.5337 55.1681 77.5337 51.5493V41.0356H92.5899V56.9775H95.2183V65.5484H91.1329ZM82.1048 45.3782V51.9207C82.1048 53.9968 81.762 55.6824 81.0763 56.9775H88.0188V45.3782H82.1048Z" fill="white"/>
<path d="M1.70928 95.6274C2.2633 95.8298 2.7747 95.8831 3.24349 95.7872C3.71228 95.6807 4.13312 95.3237 4.50602 94.7164L5.04939 93.8535L5.20921 93.6777L9.31643 85.8468H10.8986L5.92837 95.0521C5.55547 95.7552 5.11864 96.288 4.61789 96.6502C4.1278 97.0018 3.59508 97.1936 3.01975 97.2255C2.45508 97.2681 1.87975 97.1616 1.29376 96.9059L1.70928 95.6274ZM5.16126 95.1L0.25497 85.8468H1.96498L6.04024 93.8215L5.16126 95.1ZM12.5568 97.0338V85.8468H19.8922L19.8763 87.2372H13.7394L14.123 86.8376L14.1389 97.0338H12.5568ZM29.8187 85.8468H31.4168V97.0338H29.8187V85.8468ZM23.3942 97.0338H21.796V85.8468H23.3942V97.0338ZM29.9625 92.0476H23.2344V90.6572H29.9625V92.0476ZM37.1911 97.0338V86.8216L37.5907 87.2372H33.3716V85.8468H42.5928V87.2372H38.3737L38.7573 86.8216V97.0338H37.1911ZM44.0194 95.6274C44.5734 95.8298 45.0848 95.8831 45.5536 95.7872C46.0224 95.6807 46.4433 95.3237 46.8162 94.7164L47.3595 93.8535L47.5193 93.6777L51.6266 85.8468H53.2087L48.2385 95.0521C47.8656 95.7552 47.4288 96.288 46.928 96.6502C46.4379 97.0018 45.9052 97.1936 45.3299 97.2255C44.7652 97.2681 44.1899 97.1616 43.6039 96.9059L44.0194 95.6274ZM47.4714 95.1L42.5651 85.8468H44.2751L48.3504 93.8215L47.4714 95.1Z" fill="white"/>
</svg>
