<svg width="103" height="88" viewBox="0 0 103 88" fill="none" xmlns="http://www.w3.org/2000/svg">
<path d="M72.1343 20.9972C65.7911 20.9972 59.8918 22.9636 54.9441 26.2621L58.4963 8.24725L85.7723 8.24725L96.7462 0.0644531L51.7725 0.0644531L43.3359 42.5009H51.709H51.8993C55.3247 34.8255 63.0635 29.4337 72.0709 29.4337C84.25 29.4337 94.1454 39.3292 94.1454 51.5083C94.1454 63.6873 84.3134 73.5828 72.1343 73.5828V82.0194C88.944 81.9559 102.582 68.3179 102.582 51.5083C102.645 34.6352 88.944 20.9972 72.1343 20.9972Z" fill="white"/>
<path d="M72.3271 44.3408V48.1468L74.357 45.9901L73.913 44.3408H72.3271Z" fill="white"/>
<path d="M74.8631 47.7656L73.1504 49.4783H75.3705L74.8631 47.7656Z" fill="white"/>
<path d="M72.3271 57.0275L76.1331 52.9678H72.3271V57.0275Z" fill="white"/>
<path d="M72.2001 37.4287C64.3344 37.4287 57.9277 43.8354 57.9277 51.701C57.9277 59.5667 64.3344 65.9734 72.2001 65.9734C80.0657 65.9734 86.4724 59.5667 86.4724 51.701C86.4724 43.8354 80.0657 37.4287 72.2001 37.4287ZM78.8605 62.104L78.6068 61.1525L76.7672 54.6189L72.2635 59.2495V63.3726V64.007C72.2001 64.007 72.2001 64.007 72.1366 64.007C65.2859 64.007 59.7673 58.4249 59.7673 51.6376C59.7673 46.6899 62.6852 42.4399 66.8717 40.41V42.5667C63.7635 44.4063 61.6703 47.7682 61.6703 51.6376C61.6703 56.9025 65.6031 61.2794 70.6777 61.9771V52.9697H69.2187V49.4809H70.6777V44.2794H69.5359V39.4585C70.3605 39.2682 71.2486 39.2048 72.1366 39.2048C78.9873 39.2048 84.506 44.7869 84.506 51.5742C84.5694 56.0145 82.2858 59.8838 78.8605 62.104Z" fill="white"/>
<path d="M72.2005 41.1709C71.8833 41.1709 71.5662 41.1709 71.249 41.2343V42.6298H75.2453H75.3721L77.2751 49.4806H78.9878V52.9694H78.2266L79.8124 58.7417C81.5885 56.9022 82.6035 54.3649 82.6035 51.6373C82.6669 45.8649 77.9729 41.1709 72.2005 41.1709Z" fill="white"/>
<path d="M47.205 0L11.5559 0L0.582031 8.24624L37.2461 8.24624L24.8767 70.537H33.2498L47.205 0Z" fill="white"/>
<path d="M18.9764 79.6073L19.357 81.3199H19.4839L19.801 79.5438L21.8309 73.708H24.5585L20.8794 82.9692C20.6257 83.6669 20.3085 84.3013 20.0548 84.8721C19.801 85.3796 19.4839 85.8236 19.2301 86.2042C18.913 86.5848 18.5958 86.8386 18.2152 86.9654C17.8346 87.1557 17.3906 87.2192 16.8831 87.2192C16.4391 87.2192 16.122 87.2192 15.8682 87.1557C15.6145 87.0923 15.2973 86.9654 15.0436 86.7751L15.7414 84.6819C15.9317 84.8087 16.1854 84.8721 16.3123 84.8721C16.5026 84.8721 16.6928 84.9356 16.8831 84.9356C17.454 84.9356 17.8981 84.4915 18.1518 83.5401L13.1406 73.7714H16.2488L18.9764 79.6073Z" fill="white"/>
<path d="M63.4745 79.6073L63.8551 81.3199H63.9819L64.2991 79.5438L66.3289 73.708H69.0565L65.3774 82.9692C65.1237 83.6669 64.8066 84.3013 64.5528 84.8721C64.2991 85.3796 63.9819 85.8236 63.7282 86.2042C63.411 86.5848 63.0939 86.8386 62.7133 86.9654C62.3327 87.1557 61.8887 87.2192 61.3812 87.2192C60.9372 87.2192 60.62 87.2192 60.3663 87.1557C60.1125 87.0923 59.7954 86.9654 59.5416 86.7751L60.2394 84.6819C60.4297 84.8087 60.6834 84.8721 60.8103 84.8721C61.0006 84.8721 61.1909 84.9356 61.3812 84.9356C61.9521 84.9356 62.3961 84.4915 62.6498 83.5401L57.6387 73.7714H60.7469L63.4745 79.6073Z" fill="white"/>
<path d="M33.1196 75.9906H27.9815V87.0278H25.3174V73.6436H33.1196V75.9906Z" fill="white"/>
<path d="M41.8737 81.4458H36.9894V87.0278H34.3887V73.6436H36.9894V79.0988H41.8737V73.6436H44.4744V87.0278H41.8737V81.4458Z" fill="white"/>
<path d="M56.3394 75.9906H52.4066V87.0278H49.8059V75.9906H45.873V73.6436H56.3394V75.9906Z" fill="white"/>
</svg>
