<svg width="912" height="628" viewBox="0 0 912 628" fill="none" xmlns="http://www.w3.org/2000/svg">
<path d="M700.934 1.59998C634.667 7.59998 524.533 74.5333 413.733 176.133L393.6 194.667L357.733 193.2C337.733 192.4 304.133 192.133 281.333 192.533C130.8 195.6 29.4668 222.933 10.8001 265.6C8.00014 271.733 0.933469 332.933 1.0668 348.667C1.20014 361.067 8.00014 373.2 22.6668 387.067C38.1335 401.867 54.5335 412.533 84.0001 427.067L108.667 439.2L103.067 440.133C100 440.667 96.0001 442.133 94.1335 443.333C90.5335 445.733 86.1335 454 87.3335 456C87.7335 456.8 91.2001 457.333 95.0668 457.333C100.8 457.333 102.267 456.8 104.667 453.733C106.933 450.933 108.267 450.4 111.067 451.2C115.867 452.4 116.267 458.667 111.6 458.667C104 458.667 92.5335 462.8 88.8001 466.933C85.6001 470.533 85.0668 471.867 85.7335 476.8C86.4001 483.067 88.5335 485.867 94.0001 488C99.3335 490 104.133 489.6 109.733 486.667C115.6 483.467 116 483.467 116 486C116 487.6 117.733 488 124 488H131.867L132.267 470.267L132.667 452.667L139.2 465.333C142.8 472.267 146.4 479.067 147.2 480.4C148.4 482.267 147.733 485.333 144.533 494.667C142.133 501.333 140.667 506.933 141.2 507.2C142.133 507.733 157.6 506.933 158 506.4C158.133 506.133 161.333 496.667 165.333 485.333C169.2 474 172.8 464.133 173.333 463.6C173.867 463.067 175.867 462.933 177.867 463.467C181.333 464.267 181.333 464.4 181.333 476.133C181.333 485.733 181.733 488 183.333 488C185.867 488 185.867 486.933 182.533 503.067C180.4 513.6 179.867 519.6 180.4 529.333C181.467 549.733 183.6 553.867 205.733 577.6C250.667 626.133 250.4 626 280.667 625.867C296.533 625.867 301.333 625.333 312.8 622.4C360.4 610 424.8 575.067 486.667 528.267L498 519.733L511.333 520.533C564.933 524 655.067 523.733 698 520C760 514.667 808.934 505.467 843.067 492.4C849.6 490 856.934 488 859.467 488C862.934 488 864 487.467 864 485.6C864 484.267 867.2 481.6 872.267 478.667C883.334 472.4 894.667 461.733 899.2 453.333C902.667 446.933 903.2 443.6 906.934 408.933C909.067 388.267 910.534 368.267 910.134 364.533C908.134 341.6 880.4 314.933 834.8 292C812 280.533 769.067 262.667 764.4 262.667C763.067 262.667 762.667 258.8 762.667 248V233.467L772.267 216.4C808.267 152 820.267 101.2 806 73.3333C802.4 66.4 754.267 14.4 746.4 9.06665C736.4 2.26665 721.334 -0.266683 700.934 1.59998ZM730 7.19998C733.734 8.13332 738.534 9.86665 740.934 11.0667C751.2 16.4 760.4 30.2667 762.134 42.9333L762.934 48.9333L750.8 49.7333C706.534 52.9333 637.334 85.6 566.534 136.8L555.067 145.067L550.534 138.267C547.467 133.733 543.733 130.267 538.667 127.467C531.867 123.6 530.4 123.333 518 123.333C506.8 123.333 503.733 123.867 498.4 126.4C486.533 132.4 478.933 142.4 477.6 154.267L476.933 160H490.933C504.267 160 504.8 159.867 504.933 156.933C505.333 152.933 511.333 148 516 148C518.133 148 521.6 149.467 523.867 151.467C527.333 154.267 528 155.867 527.867 160.4C527.867 166 527.6 166.133 509.067 181.333C498.667 189.733 488.4 197.867 486.133 199.467L482 202.267L454 199.333C438.667 197.6 423.6 195.333 420.667 194.267C417.733 193.067 412.667 192.133 409.333 192H403.333L411.333 184.667C464.533 136 506 102.8 551.6 72.8C627.867 22.5333 694.934 -2.13335 730 7.19998ZM783.734 54C792.667 63.4667 801.2 74 802.8 77.3333C815.467 104 803.067 152.133 767.6 214.933L759.6 229.333H737.467H715.334V237.6C715.334 242.933 714.8 246 713.734 246.267C712.4 246.8 712 244.533 712 238.133V229.333H700.667H689.334L700.4 212.933C747.2 144.133 772.667 79.2 766.934 43.6C766.267 39.3333 766.134 36.1333 766.667 36.2667C767.2 36.5333 774.934 44.4 783.734 54ZM762.267 64.2667C759.6 99.2 735.334 153.067 695.734 211.6L683.734 229.333H671.2H658.667V218.667V208L636 207.733L613.334 207.333L622.267 201.333C633.734 193.6 645.467 182.133 648.667 175.333C650.4 171.867 651.467 166.267 651.734 159.333C652.134 149.733 651.867 148 648.4 141.333C642 129.067 630.134 122.667 613.734 122.667C592.8 122.667 576.267 135.467 573.867 153.867L572.934 160H586.4C599.734 160 600 160 600.8 156.667C602.534 149.733 611.2 146 617.734 149.6C622.267 152 623.867 154.933 624 160.933C624 168.667 621.067 171.6 595.334 190C574.4 204.933 573.334 205.867 573.334 210.133C573.334 213.6 572.8 214.667 571.067 214.667C566 214.667 562.667 212.933 562.667 210.533C562.667 208.133 561.333 208 543.067 208C532.133 208 522.533 207.467 521.467 206.8C520.133 206 521.867 204.133 528.133 199.867C539.067 192.533 549.334 182.133 552.667 175.333C554.134 172.267 555.467 165.733 555.867 159.733L556.667 149.6L564.667 143.733C616.534 105.6 677.867 72.4 718.134 60.6667C730.534 57.0667 748.934 53.7333 757.867 53.4667L763.067 53.3333L762.267 64.2667ZM344 197.467C367.067 198.267 386.133 199.067 386.4 199.2C386.933 199.867 380.533 207.2 364.667 223.867C356.667 232.4 346.267 243.467 341.6 248.4L333.067 257.333H298.267C186.533 257.333 93.6001 271.467 44.2668 295.867C29.7335 302.933 20.1335 309.467 13.4668 316.667C7.0668 323.6 7.20014 325.333 10.5335 294.533C12.1335 279.333 13.8668 269.467 15.3335 266.533C25.8668 246 56.2668 229.067 105.2 216.8C147.733 206.133 203.467 199.333 260.667 197.733C277.6 197.333 291.6 196.8 291.867 196.533C292.667 195.733 297.867 195.867 344 197.467ZM465.067 205.2C477.2 206.4 478.533 207.067 475.733 209.6C465.2 219.467 446.8 236 446.4 236C446.267 236 445.867 232.533 445.867 228.267C445.6 220.533 442.667 212.267 437.733 205.467L435.333 202.267L444.667 203.067C449.867 203.6 458.933 204.533 465.067 205.2ZM520 233.333H562.667V226C562.667 219.067 562.934 218.667 565.867 218.667C572.267 218.667 573.334 219.867 573.334 226.8V233.333H605.867H638.4L639.2 236.267C639.6 238 640 242.133 640 245.6V251.867L653.334 252.267L666.534 252.667L650.934 272.267C642.4 283.067 634.667 292.133 634 292.4C633.2 292.8 627.334 291.867 620.934 290.533C582.534 282.133 513.733 271.467 468 266.667C453.733 265.2 438.8 263.6 434.8 263.2L427.733 262.4L431.733 259.6C433.867 258 437.467 254.267 439.467 251.333C441.467 248.4 450.667 238.933 459.867 230.4L476.667 214.8L477.067 224.133L477.467 233.333H520ZM376.933 247.333C378.533 250.267 380.933 253.867 382.533 255.2C384.133 256.667 385.333 258.267 385.333 258.933C385.333 259.6 380.667 259.733 375.067 259.333C369.333 258.933 359.333 258.4 352.8 258C346.267 257.733 340.8 257.2 340.533 257.067C340.4 256.8 347.467 248.933 356.4 239.467L372.667 222.267L373.467 232.133C373.867 238.267 375.2 244 376.933 247.333ZM721.734 253.467C733.467 257.067 734.667 257.867 734.667 263.2C734.667 267.2 730 275.067 720 287.733L716.534 292.133L714.134 286.667C711.467 280.667 704 274.4 696.534 272L692 270.4L697.6 263.733C700.8 260.133 704.534 255.6 706 253.867C709.334 250 710 250 721.734 253.467ZM677.334 252.8C677.334 253.2 673.734 257.6 669.334 262.4L661.334 271.333V280.133V288.933L671.467 289.733C684.4 290.667 688 292.933 688 300C688 303.467 687.334 305.333 686.4 305.333C683.867 305.2 641.067 294.933 640.4 294.133C640 293.867 646.267 285.6 654 275.733C661.867 266 669.2 256.667 670.267 255.067C672.134 252.4 677.334 250.667 677.334 252.8ZM328 262.267C328 262.667 320.667 271.733 311.6 282.533C278.4 322 259.333 347.733 236.8 383.333C230.267 393.6 224.667 402.267 224.533 402.533C223.333 404 166.267 386.267 138 375.6C88.0001 356.8 45.7335 332.933 29.8668 314.667L27.0668 311.467L29.8668 309.2C35.2001 304.933 56.5335 294.933 70.2668 290.133C114.8 274.667 183.2 264.933 264.667 262.267C285.333 261.6 328 261.6 328 262.267ZM390.267 264.533C397.867 266 407.867 267.2 411.067 267.067C414.933 266.8 414.933 266.933 412.533 269.733C411.2 271.333 405.2 277.733 399.2 284C383.467 300.533 363.867 322.667 349.333 340.4L336.667 355.867L318.533 356H300.4L299.6 369.067C298.667 384.667 297.2 388.933 292.667 390.133C289.467 390.933 289.333 391.333 289.333 400.933C289.333 409.733 289.6 410.933 291.867 411.6C294.133 412.133 294.267 412.8 293.067 415.467C292.267 417.2 291.067 418.667 290.4 418.667C287.467 418.667 232.267 405.6 230.4 404.533C229.867 404.133 231.733 400.133 234.533 395.467C257.6 357.867 289.867 314.4 323.2 276.133L335.333 262.267L361.6 263.2C376.133 263.733 388.933 264.4 390.267 264.533ZM449.467 269.333C483.6 272.8 521.067 277.6 548.667 282C578 286.667 627.067 296.133 628.4 297.333C629.6 298.4 615.867 314.533 590.4 341.6L574.4 358.667H565.867C560 358.667 557.334 359.2 557.2 360.267C557.2 361.2 557.2 364.8 557.334 368.4C557.467 374.4 557.2 375.067 549.2 383.333C544.667 388.133 540.4 392 539.733 392C539.2 392 538.667 387.467 538.667 382V372H546H553.334V365.333V358.667H530.8C508.4 358.667 508.133 358.667 507.733 361.6C507.467 363.333 507.467 366.267 507.733 368.267C508.267 371.6 508.8 371.867 515.2 372.267L522 372.667L522.667 389.867L523.333 407.067L517.333 412.8C505.867 423.6 480 445.333 478.667 445.333C477.867 445.333 476.933 444.4 476.533 443.333C475.867 441.867 473.333 441.333 465.733 441.333C459.467 441.333 456.133 441.867 456.667 442.667C457.733 444.533 452.533 444.4 448.933 442.4C447.333 441.6 439.733 440.8 432 440.533C416.667 440.267 366 433.2 326.933 426C292.267 419.6 295.467 420.667 298.267 416C299.733 413.467 301.6 412 303.6 412C306.133 412 306.667 411.333 306.667 408V404H320H333.333V408V412H342.667H352V401.333V390.667H348H344.133L343.733 372.933L343.333 355.333L348.667 348.667C358.4 336.4 380.133 311.467 395.2 295.467C403.333 286.667 412.667 276.667 415.867 273.067C419.067 269.6 421.867 266.667 422 266.667C422.133 266.667 434.533 267.867 449.467 269.333ZM805.334 283.333C864.134 308.667 899.6 336.4 905.2 361.333C906.134 365.733 905.867 373.467 903.867 392C902.534 405.6 901.334 416.933 901.334 417.333C901.334 417.733 899.734 415.333 897.734 412C892.934 403.867 886.4 396.533 875.734 387.333C870 382.4 866.667 378.4 866.667 376.8C866.667 371.467 860.8 363.6 854.667 360.267C849.6 357.6 847.334 357.2 840.134 357.733C832 358.4 830.8 358 817.467 351.733C802.8 344.8 768 330.667 765.6 330.667C763.067 330.667 762.667 326.267 762.667 296.533V266.667L775.734 271.467C782.8 274 796.134 279.333 805.334 283.333ZM734.4 309.067L734 319.6L724.267 316.8C714.934 314.133 714.534 313.867 715.467 310.667C716 308.8 716.8 305.2 717.334 302.533C717.867 300 721.734 293.2 726.134 287.333L734 276.8L734.4 287.733C734.667 293.733 734.667 303.333 734.4 309.067ZM664.667 305.2C675.734 308 678.667 309.067 676.4 309.867C672.134 311.2 657.867 308.267 650.8 304.667C642.534 300.4 646.534 300.533 664.667 305.2ZM31.8668 322.933C60.1335 349.467 121.867 378.4 197.067 400.133C210.4 404.133 221.2 407.6 221.067 408C214.533 421.867 199.067 451.867 198.267 451.867C197.733 452 197.6 450 198 447.467C198.533 444.8 198.267 442.667 197.467 442C196.133 441.333 172.133 440.667 165.2 441.2C164 441.2 162.4 443.467 161.467 446.667C160.667 449.6 159.467 452 158.8 452C154.933 452 148.933 448.533 147.2 445.2C146.133 443.067 144.8 441.333 144.267 441.2C143.733 441.2 139.2 440.933 134 440.8C126.267 440.4 122 439.2 108.667 433.467C57.8668 411.467 22.2668 386.667 10.5335 364.933C6.53347 357.6 6.00014 355.6 6.13347 346.667C6.13347 339.867 6.93347 335.067 8.53347 331.733C10.8001 326.933 20.8001 314.667 22.2668 314.667C22.6668 314.667 26.9335 318.4 31.8668 322.933ZM630.934 320.533C642.4 328.533 653.6 332.133 670.4 333.2L684 334L672.4 347.6C665.867 355.067 660.534 360.667 660.267 359.867C660 359.2 651.067 358.667 640 358.667H620.134L619.467 362.933C619.067 365.333 618.4 370.933 618 375.333C616.667 388.533 616 390.667 612.534 392C609.867 393.067 609.334 394.133 609.334 399.333V405.333H614.4H619.334L602.667 422C586 438.533 584.667 439.6 576 442.8C573.467 443.733 569.734 446.267 567.734 448.267C563.467 452.8 560.267 452 559.734 446.267C559.334 442 559.334 442 551.067 441.6L542.667 441.2V446V450.8L536.4 450.4C530.267 450 530 449.867 529.6 445.6L529.2 441.2L520.933 441.6C513.333 442 512.667 442.267 513.067 444.933C513.467 448.133 511.467 449.867 508.533 448.8C506.8 448.133 506.8 447.6 508.8 444.667L510.933 441.333H501.2H491.333L496.667 436.933C499.6 434.667 508.933 426.533 517.6 418.933C526.667 410.933 534.267 405.333 535.867 405.333C537.867 405.333 538.667 404.533 538.667 402.4C538.667 400.533 541.733 396.667 547.067 391.867C551.6 387.6 555.734 384.133 556.4 384C556.934 384 557.334 388.8 557.334 394.667V405.333H565.867H574.534L580.934 393.6L587.334 382L587.734 393.6L588.134 405.333H596.667H605.334V382V358.667H596.134C589.867 358.667 586.667 359.2 586.4 360.267C585.6 363.467 575.334 381.333 574.4 381.333C573.734 381.333 573.334 377.867 573.334 373.6C573.334 366.4 573.734 365.467 578.134 361.2C580.8 358.8 591.6 347.2 602.267 335.6C612.934 324.133 621.867 314.667 622 314.667C622.267 314.667 626.267 317.333 630.934 320.533ZM724.667 321.6C733.334 324.133 734.534 324.933 734.934 327.867C735.334 331.2 735.6 331.333 748 332.133C759.467 332.8 762.534 333.733 780.667 340.933C797.6 347.733 823.467 359.333 825.2 360.8C825.467 361.067 824.134 363.067 822.267 365.333C811.867 377.6 815.334 396.667 829.334 403.6C836.134 407.2 847.067 407.733 853.734 404.8C857.867 403.067 865.334 395.733 865.334 393.333C865.334 392.667 862 391.733 858 391.333C852.267 390.533 850.267 390.8 848.667 392.533C845.867 395.333 840.267 395.333 837.067 392.4C831.6 387.467 833.734 386.667 851.734 386.667H868.667L876.4 393.867C880.534 397.867 884 401.733 884 402.4C884 406.267 855.467 420 847.334 420C844.267 420 842.667 420.667 842.667 421.867C842.667 423.6 840 425.333 837.334 425.333C836.8 425.333 836 424.133 835.6 422.667C835.067 420.667 833.734 420 830 420C825.067 420 824.934 420.133 825.734 424.4L826.4 428.933L814.934 431.733C782 440.133 771.2 441.6 745.734 441.467L721.334 441.2V444.667C721.334 447.467 720.667 448 717.334 448C715.2 448 711.334 446.533 708.667 444.8C699.067 438.267 682.667 439.2 674.534 446.8C672.267 448.933 668.934 450.667 667.2 450.667C664.4 450.667 664 450 664 446V441.2L644.4 441.6L624.667 442L624.267 446.933L623.867 452H617.2C612.534 452 610.4 451.467 609.867 450C608.934 447.6 598.667 441.333 595.6 441.333C594.4 441.333 593.2 440.8 592.8 440.267C592.534 439.733 603.6 427.733 617.467 413.733L642.667 388.267V396.8V405.333H651.334H660V386.933V368.667L672.134 354.667C678.934 347.067 685.867 338.8 687.734 336.267C689.6 333.867 693.867 330.667 697.334 329.2C700.8 327.733 705.334 324.667 707.467 322.533C711.867 317.867 712.134 317.867 724.667 321.6ZM324 371.067C324 372.133 314.267 385.467 313.867 384.933C313.733 384.8 314 381.2 314.267 377.067L314.933 369.333L319.467 369.733C322 369.867 324 370.4 324 371.067ZM845.467 371.6C851.867 375.333 850.4 377.333 841.334 377.333C833.334 377.333 833.2 377.333 834.8 374.267C837.734 368.8 839.867 368.267 845.467 371.6ZM642.667 376.267C642.534 379.467 641.067 382.267 637.2 386.667L631.867 392.533L632.667 384C633.867 372.267 634 372 638.667 372C642.267 372 642.667 372.4 642.667 376.267ZM326.667 384V390.667H322C319.467 390.667 317.333 390.267 317.333 389.867C317.333 388.8 325.333 377.333 326 377.333C326.4 377.333 326.667 380.267 326.667 384ZM891.6 411.067C899.734 423.067 901.6 438.533 896.134 449.067C892.134 456.8 884 465.467 875.334 471.333C863.2 479.333 864 480.133 864 459.467V441.333H854.934H845.867L839.334 453.6L832.667 465.733L832.267 453.6L831.867 441.333H823.334H814.667V464.533C814.667 478.533 815.2 488 816 488.267C816.667 488.4 820.8 488.533 825.067 488.267L832.667 487.733L839.067 476.533C842.667 470.4 845.734 465.333 846.134 465.333C846.4 465.333 846.667 470.133 846.667 475.867V486.533L829.734 492C775.734 509.6 700.534 518.667 606.934 518.667C567.867 518.667 506.8 516.533 505.333 515.2C505.067 514.8 506.8 512.933 509.333 510.933C511.867 508.933 520.267 502.133 528 495.6C537.6 487.6 542.133 484.533 542.4 486C542.8 487.467 544.8 488 551.467 488H560V478C560 472.267 560.534 468 561.334 468C562.134 468 562.667 469.467 562.667 471.2C562.667 475.067 567.467 482.133 572.4 485.867C575.6 488.267 578.134 488.667 588 488.667C597.867 488.667 600.4 488.267 603.6 485.867C610.667 480.667 613.334 475.067 613.334 465.867V457.333H618C622.534 457.333 622.667 457.467 622.667 462.667C622.667 469.6 620.267 474.533 616.4 475.467C613.734 476.133 613.334 477.067 613.334 482.133V488H620.534C625.6 488 628.534 487.2 631.067 485.333C635.2 482.133 636 479.733 637.867 466.667C639.334 456.667 639.334 456.667 643.6 456.267L647.867 455.867L648.267 472.133L648.667 488.4H655.734C659.6 488.4 663.067 488 663.467 487.6C663.867 487.2 664.134 480 664.134 471.467C664.134 459.467 664.534 456 665.867 456C667.2 456 667.6 458.267 667.6 464.267C667.6 473.867 669.734 479.2 676 484.533C681.334 488.933 684.667 489.733 695.867 489.067C703.334 488.667 705.867 487.867 710 484.8C716.934 479.467 719.067 473.6 718.4 461.733C717.867 454.133 718.134 452 719.6 452C720.934 452 721.334 455.733 721.334 469.867C721.334 480.4 721.867 488 722.667 488.267C723.334 488.4 727.334 488.4 731.334 488.267L738.667 487.733V471.2V454.667H748.534C758.267 454.667 758.534 454.667 758.934 451.067C759.2 449.2 760.134 447.333 761.067 446.933C762.267 446.533 762.667 451.2 762.667 467.2V488H771.734H780.667L785.6 478.933C794.4 462.933 794.534 462.933 794.667 476.267V488H802.667H810.667V464.667V441.333L803.734 441.2C797.067 441.2 797.467 440.933 812 437.2C823.867 434.267 829.067 433.467 834.8 434.133C843.334 434.933 849.867 432.533 851.334 428C851.867 426.4 856.667 423.333 864.534 419.6C871.334 416.267 879.334 412.133 882.134 410.133C884.934 408.267 887.6 406.667 888 406.667C888.4 406.667 890 408.667 891.6 411.067ZM251.467 414.667C263.867 417.6 277.067 420.8 280.933 421.733L287.867 423.333L282.4 431.467C277.6 438.933 276.533 439.867 271.467 440.533C266.133 441.333 265.733 441.733 259.333 453.467L252.667 465.467L252.267 453.333L251.867 441.333L240.933 441.2C214.267 440.8 217.333 439.733 208.133 452.8C205.2 457.067 203.333 458.667 202.933 457.467C202 454.8 225.067 409.333 227.333 409.333C228.267 409.333 239.2 411.733 251.467 414.667ZM308.8 427.2C322.667 430 374.8 438.933 386 440.4C388.267 440.667 385.333 441.067 379.733 441.2L369.333 441.333V448V454.667H376.667H384V471.2V487.733L391.067 488.267C394.8 488.533 398.8 488.533 399.733 488.267C400.933 487.867 401.333 483.2 401.333 471.067V454.533L406.4 454.933L411.333 455.333L410.933 462.933C410.267 472.267 414.133 481.467 420.133 484.933C422.267 486.267 424 487.6 424 488C424 488.4 418.4 492.4 411.6 496.933L399.333 505.2L377.333 501.867C338.8 496.267 286.267 486.8 284.667 485.2C284.4 484.8 284 474.267 284 461.6L283.733 438.533L288.133 431.2C290.533 427.333 292.667 424 292.8 424C292.933 424 300.133 425.467 308.8 427.2ZM793.334 442C793.334 442.667 781.467 464.133 780.534 465.2C780.267 465.467 780 460.933 780 454.933V444.133L785.734 442.933C793.067 441.2 793.334 441.2 793.334 442ZM181.333 450.667C181.333 457.733 181.067 458.667 178.667 458.667C177.2 458.667 176 457.867 176 456.933C176 454.667 180 442.667 180.8 442.667C181.067 442.667 181.333 446.267 181.333 450.667ZM489.867 444.667C489.333 445.733 488.4 446.667 487.733 446.667C486.933 446.667 487.067 445.867 488 444.667C488.933 443.6 489.867 442.667 490.133 442.667C490.4 442.667 490.267 443.6 489.867 444.667ZM234.667 458.8V473.6L230.4 472.8C226.533 472.133 220 466.4 220 463.733C220 462.8 233.6 444.267 234.4 444.133C234.533 444 234.667 450.667 234.667 458.8ZM418.4 445.6C418.133 446.4 417.067 447.467 416.267 447.733C415.333 448 414.933 447.467 415.467 446.133C416.4 443.733 419.2 443.2 418.4 445.6ZM463.333 452.8C465.333 455.867 465.333 456.533 463.733 458.267C462 459.867 461.467 459.467 459.6 454.667C458 450.533 457.867 449.333 459.333 449.333C460.267 449.333 462 450.933 463.333 452.8ZM484.533 453.467C484.133 454.133 483.2 454.4 482.533 453.867C481.867 453.467 481.6 452.533 482.133 451.867C482.533 451.2 483.467 450.933 484.133 451.467C484.8 451.867 485.067 452.8 484.533 453.467ZM441.067 454.133C446.533 458 444.8 460 436 460C431.6 460 428 459.6 428 459.067C428 457.2 433.867 452 436 452C437.067 452 439.467 452.933 441.067 454.133ZM512.667 471.067V488L518.667 488.267C522 488.267 525.467 488.4 526.4 488.4C528.8 488.267 528.4 489.067 523.733 493.2C511.733 503.733 496.533 514.667 494.133 514.667C481.733 514.667 408 506.4 408.8 505.2C409.067 504.533 414.267 500.8 420.133 496.667C429.733 490.133 431.6 489.333 437.733 489.333C446.133 489.333 455.333 485.067 458 480C460.133 476 459.467 474.667 455.733 474.667C452 474.667 452.933 471.867 457.333 470.267C459.6 469.467 461.333 468 461.333 467.2C461.333 464.8 468 460.8 469.6 462.4C470.4 463.2 468.267 467.867 463.467 475.467L456.133 487.333L462.4 488C473.467 489.2 475.333 488.4 479.333 481.2C481.2 477.6 483.067 474.667 483.333 474.667C483.6 474.667 485.467 477.6 487.6 481.333C491.6 488.533 490.4 488 505.333 488.4C511.2 488.533 511.067 487.867 502.533 474.533L495.867 464.133L499.467 458.667C502.8 453.733 503.6 453.2 507.867 453.6L512.667 454V471.067ZM542.667 456.8C542.667 458.4 541.333 458.667 536.4 458.4C527.6 457.867 527.067 454.667 535.867 454.667C541.067 454.667 542.667 455.2 542.667 456.8ZM698.267 456.667C702.267 459.467 703.334 465.467 700.667 470.533C698.934 474.133 697.867 474.667 693.334 474.667C689.467 474.667 687.6 473.867 686.134 471.733C683.067 467.333 683.467 461.733 687.334 458C691.067 454.133 694.134 453.867 698.267 456.667ZM157.333 457.867C157.333 458.933 156.8 460.267 156 460.667C155.333 461.067 154.667 461.2 154.667 460.8C154.667 460.533 154.267 459.333 153.867 458.133C153.333 456.667 153.733 456 155.2 456C156.4 456 157.333 456.8 157.333 457.867ZM562.667 457.867C562.667 458.933 562.134 460.267 561.334 460.667C560.667 461.067 560 460.267 560 458.8C560 457.2 560.667 456 561.334 456C562.134 456 562.667 456.8 562.667 457.867ZM595.734 459.733C599.6 464.667 596 474.267 590 474.8C584.534 475.2 582.667 474.533 580.534 471.333C577.6 466.8 579.067 458.933 583.067 457.333C586.934 455.733 593.6 457.067 595.734 459.733ZM114.8 471.6C113.467 476.4 107.6 479.867 104.4 477.867C98.8001 474.4 104 468 112.267 468C115.467 468 115.733 468.4 114.8 471.6ZM266.667 474.667C266.667 480.267 266.267 481.333 264.267 481.333C262.933 481.333 261.467 480.933 260.933 480.533C260.267 479.867 265.2 468 266.267 468C266.533 468 266.667 470.933 266.667 474.667ZM211.333 479.733L216.667 488H233.067C242 488 249.333 488.4 249.333 489.067C249.333 489.6 246.4 496.933 242.8 505.333C233.067 528.533 227.867 546.8 225.867 566.133L225.067 574.267L219.2 573.2C200.533 569.733 188 555.6 185.467 535.067C184.4 526.667 185.467 508 187.333 501.333C187.6 500.267 188.533 496.8 189.333 493.733C190.533 489.067 191.333 488.133 194.4 487.733C197.867 487.333 198 487.067 197.867 479.333C197.733 474.933 197.867 470.933 198.133 470.4C198.4 470 200.267 470 202.4 470.533C204.8 471.2 207.6 474 211.333 479.733ZM443.467 474C439.867 476.933 437.467 478 435.2 477.6C431.733 476.933 427.6 472.267 428.8 470.4C429.2 469.733 433.867 469.333 439.067 469.467L448.533 469.733L443.467 474ZM542.667 474.933C542.533 476.933 540.267 479.733 536 483.067L529.333 488.133V480.133V472H536C542 472 542.667 472.267 542.667 474.933ZM234.667 481.6C234.667 483.2 234.533 484.133 234.267 483.867C234.133 483.6 233.067 482.267 232.133 480.933C230.533 479.067 230.667 478.667 232.533 478.667C233.867 478.667 234.667 479.733 234.667 481.6ZM272 487.867C276 488.667 286.8 490.8 296 492.667C316.8 496.933 361.733 504.667 379.067 506.8C386.133 507.733 392 508.8 392 509.333C392 510.267 372.933 522.267 355.333 532.4C337.467 542.667 304.267 558.133 287.6 563.867C269.2 570.267 248.8 574.667 237.6 574.667H229.6L230.267 568.267C232 548.8 238.533 526.533 249.733 500.933C257.6 483.2 254.8 484.8 272 487.867ZM436 513.867C446.667 515.067 463.467 516.8 473.333 517.733L491.2 519.333L470.667 534.133C396.133 587.6 331.067 618.533 285.733 622.133C273.2 623.067 258.4 620.4 250.133 615.467C245.333 612.667 215.867 582.933 212.933 577.867C212.133 576.533 212.8 576.4 216.267 577.467C222.933 579.333 247.867 578.933 259.333 576.667C291.6 570.533 345.467 546 387.333 518.4L399.333 510.533L408 511.067C412.8 511.467 425.333 512.667 436 513.867Z" fill="white"/>
<path d="M370 358.4C364 360.533 358.8 364.667 356 369.733C351.867 376.933 352.667 391.067 357.467 397.2C364.134 405.6 377.067 408.8 389.6 405.067C394.8 403.6 401.334 397.333 401.334 394C401.334 390.667 388 389.467 385.334 392.667C381.867 396.8 370.667 393.2 370.667 388C370.667 387.2 377.2 386.667 387.467 386.667H404.4L403.6 379.2C402.667 370.667 400.667 366.933 394 362C390.4 359.067 387.6 358.267 381.067 357.867C376.4 357.6 371.467 357.867 370 358.4ZM384 372C388.267 376.267 387.2 377.333 378.667 377.333C374.267 377.333 370.667 376.8 370.667 376C370.667 373.733 375.867 369.333 378.667 369.333C380.134 369.333 382.534 370.533 384 372Z" fill="white"/>
<path d="M418.933 360.133C410.267 364.4 406 371.733 406 382C406 397.333 415.867 406.533 432.533 406.667C441.6 406.667 448.933 403.2 452.533 397.2L454.8 393.467L449.467 390.667C442.8 387.333 442 387.333 438.667 390.667C435.2 394.133 430.667 394 426.133 390.533C423.067 388.133 422.533 386.933 422.933 381.6C423.2 376.933 424.133 375.067 426.933 372.933C430.933 369.867 436.133 370.533 439.6 374.667C441.733 377.067 441.867 377.067 448.267 373.867C455.333 370.267 455.467 368.933 449.067 363.067C442.133 356.667 428.667 355.333 418.933 360.133Z" fill="white"/>
<path d="M467.2 360.533C460.666 363.467 457.333 368.667 457.333 376.267C457.333 381.867 458 383.467 461.333 386.933C463.6 389.067 465.333 391.2 465.333 391.467C465.333 391.867 463.6 394.8 461.333 398C459.2 401.2 457.333 404.133 457.333 404.533C457.333 404.933 461.066 405.333 465.733 405.333H474L477.733 399.333C480.8 394.4 482.266 393.333 485.466 393.333C489.2 393.333 489.333 393.6 489.333 399.2V405.067L496.133 405.6C499.866 405.733 503.2 405.733 503.466 405.467C503.733 405.2 504 394.533 504 381.733V358.667H487.733C477.066 358.8 469.866 359.333 467.2 360.533ZM489.333 376.533C489.333 382.267 488 383.2 480.666 382.133C474.666 381.2 472.533 378.4 474.933 374.133C475.733 372.667 478 372 482.666 372H489.333V376.533Z" fill="white"/>
<path d="M680 358.267C672.4 361.067 668.933 363.6 665.867 368.933C662.8 374 662.4 375.867 662.933 383.733C663.333 390.933 664.133 393.733 666.667 397.067C674.267 406.667 689.733 409.6 701.333 403.6C706.933 400.8 712.267 394.4 710.533 392.667C710 392.267 706.8 391.6 703.2 391.2C698 390.533 696.133 390.8 694.8 392.533C693.867 393.733 691.333 394.667 689.2 394.667C685.467 394.667 680 390.667 680 388C680 387.2 686.4 386.667 696.667 386.667H713.333V381.6C713.333 375.867 709.6 367.067 705.867 363.733C700 358.533 686.933 355.733 680 358.267ZM693.333 372C697.6 376.267 696.533 377.333 688 377.333C679.2 377.333 677.467 375.333 682.933 371.467C686.933 368.667 690.133 368.8 693.333 372Z" fill="white"/>
<path d="M716 365.2V371.867L723.067 372.267L730 372.667L730.4 388.933L730.8 405.333H738.667H746.667V388.667V372H754H761.333V365.333V358.667H738.667H716V365.2Z" fill="white"/>
<path d="M765.334 382V405.333H773.867H782.534L788.934 394C795.201 383.067 797.734 380.267 797.201 384.933C797.067 386.267 797.067 391.333 797.201 396.267L797.334 405.333H805.334H813.334V382V358.667H804.667H796.134L790.801 368.267C781.467 385.2 781.467 385.2 781.334 370.933V358.667H773.334H765.334V382Z" fill="white"/>
<path d="M304 441.067C303.2 441.333 302.667 450.667 302.667 464.8V488H311.334H319.867L326.134 476.667C329.6 470.4 332.934 465.333 333.467 465.333C334 465.333 334.4 468.8 334.4 472.933C334.534 489.6 333.6 488 343.067 488H351.334V464.667V441.333H343.734C339.467 441.333 335.6 441.2 335.067 441.067C334.4 440.933 331.067 446 327.334 452.4C323.734 458.667 320.267 464 319.734 464C319.2 464 318.934 458.933 319.067 452.8L319.334 441.6L312.267 441.067C308.4 440.8 304.667 440.8 304 441.067Z" fill="white"/>
<path d="M66 441.067C65.6 441.467 65.3333 445.333 65.3333 449.6V457.333H58.6667H52V449.333V441.333H44.1333H36.1333L35.7333 460.933C35.2 489.733 34.6667 488 44 488H51.8667L52.2667 479.6L52.6667 471.333H58.6667H64.6667L65.0667 479.6L65.4667 488H73.3333C82.6667 488 81.6 491.2 81.6 461.467C81.4667 450.933 81.2 442 80.8 441.6C79.8667 440.667 66.9333 440.133 66 441.067Z" fill="white"/>
</svg>
