<svg width="32" height="32" viewBox="0 0 32 32" fill="none" xmlns="http://www.w3.org/2000/svg">
<g clip-path="url(#clip0_40_924)">
<path d="M31.5602 16.0145C31.5602 7.53668 24.6876 0.664062 16.2098 0.664062C7.73199 0.664062 0.859375 7.53668 0.859375 16.0145C0.859375 23.6762 6.47277 30.0269 13.8113 31.1784V20.4517H9.91373V16.0145H13.8113V12.6326C13.8113 8.7854 16.1031 6.66032 19.6094 6.66032C21.2883 6.66032 23.0455 6.96014 23.0455 6.96014V10.7378H21.1099C19.2031 10.7378 18.6083 11.9211 18.6083 13.1363V16.0145H22.8657L22.1851 20.4517H18.6083V31.1784C25.9468 30.0269 31.5602 23.6762 31.5602 16.0145Z" fill="white"/>
<path d="M22.1854 20.452L22.866 16.0148H18.6086V13.1366C18.6086 11.9227 19.2035 10.7381 21.1103 10.7381H23.0459V6.96046C23.0459 6.96046 21.2893 6.66064 19.6097 6.66064C16.1034 6.66064 13.8116 8.78572 13.8116 12.6329V16.0148H9.91406V20.452H13.8116V31.1788C15.401 31.4274 17.0193 31.4274 18.6086 31.1788V20.452H22.1854Z" fill="#22366A"/>
</g>
<defs>
<clipPath id="clip0_40_924">
<rect width="30.7009" height="30.7009" fill="white" transform="translate(0.859375 0.664062)"/>
</clipPath>
</defs>
</svg>
