<svg width="31" height="31" viewBox="0 0 31 31" fill="none" xmlns="http://www.w3.org/2000/svg">
<path d="M15.2896 30.46C23.518 30.46 30.1885 23.7895 30.1885 15.5611C30.1885 7.33259 23.518 0.662109 15.2896 0.662109C7.06111 0.662109 0.390625 7.33259 0.390625 15.5611C0.390625 23.7895 7.06111 30.46 15.2896 30.46Z" fill="white"/>
<path fill-rule="evenodd" clip-rule="evenodd" d="M7.13575 15.4038C11.4791 13.5115 14.3753 12.264 15.8245 11.6612C19.9621 9.94027 20.8218 9.64132 21.3822 9.63145C21.5055 9.62928 21.781 9.65983 21.9595 9.80467C22.1103 9.92698 22.1517 10.0922 22.1716 10.2082C22.1914 10.3241 22.2161 10.5883 22.1965 10.7947C21.9723 13.1505 21.0021 18.8676 20.5085 21.5062C20.2997 22.6227 19.8884 22.9971 19.4903 23.0337C18.6251 23.1134 17.9681 22.4619 17.1301 21.9126C15.8188 21.0531 15.078 20.518 13.8052 19.6792C12.3342 18.7098 13.2878 18.177 14.1261 17.3063C14.3455 17.0785 18.1576 13.611 18.2314 13.2965C18.2406 13.2572 18.2492 13.1105 18.1621 13.0331C18.0749 12.9557 17.9464 12.9821 17.8536 13.0032C17.7221 13.033 15.6272 14.4176 11.5691 17.157C10.9745 17.5653 10.4359 17.7642 9.95338 17.7538C9.42141 17.7423 8.39811 17.453 7.6374 17.2057C6.70435 16.9024 5.96278 16.7421 6.02736 16.227C6.06099 15.9587 6.43045 15.6843 7.13575 15.4038Z" fill="#092059"/>
</svg>
