<svg xmlns="http://www.w3.org/2000/svg" xmlns:xlink="http://www.w3.org/1999/xlink"><defs><clipPath id="clip0_40_924"><path fill="#fff" transform="translate(.86 .664)" d="M0 0h30.701v30.701H0z"/></clipPath><clipPath id="clip0_40_921"><path fill="#fff" transform="translate(.71 .664)" d="M0 0h26.186v26.186H0z"/></clipPath></defs><symbol id="arrow-left" viewBox="0 0 10 10"><path d="M2.572 4.417L5.7 1.287 4.876.464.339 5l4.537 4.537.825-.825-3.13-3.129h7.1V4.417h-7.1z"/></symbol><symbol id="arrow-right" viewBox="0 0 10 10"><path d="M7.428 4.417L4.3 1.287l.825-.824L9.661 5 5.124 9.537 4.3 8.712l3.13-3.129H.33V4.417h7.1z"/></symbol><symbol id="burger" viewBox="0 0 14 12"><path d="M.25 0h13.5v1.5H.25V0zm0 5.25h9v1.5h-9v-1.5zm0 5.25h13.5V12H.25v-1.5z"/></symbol><symbol id="calendar" viewBox="0 0 16 15"><path fill-rule="evenodd" clip-rule="evenodd" d="M.422 2.274H15.58V3.79H.422V2.274zm0 3.789H15.58v1.516H.422V6.063zm0 6.821H15.58V14.4H.422v-1.516z"/><path fill-rule="evenodd" clip-rule="evenodd" d="M.422 2.274h1.516V14.4H.422V2.274zm13.641-.001h1.515V14.4h-1.515V2.273zM4.21 5.305h1.517V0H4.21v5.305zm6.063 0h1.516V0h-1.516v5.305z"/></symbol><symbol id="case" viewBox="0 0 16 16"><path d="M5.6 9.6V12h4.8V9.6H16v5.6a.8.8 0 01-.8.8H.8a.8.8 0 01-.8-.8V9.6h5.6zM7.2 8h1.6v2.4H7.2V8zM4 3.2V.8a.8.8 0 01.8-.8h6.4a.8.8 0 01.8.8v2.4h3.2a.8.8 0 01.8.8v4h-5.6V6.4H5.6V8H0V4a.8.8 0 01.8-.8H4zm1.6-1.6v1.6h4.8V1.6H5.6z"/></symbol><symbol id="chevron-down" viewBox="0 0 7 4"><path d="M3.5 2.546L6.222 0 7 .727 3.5 4 0 .727.778 0 3.5 2.546z"/></symbol><symbol id="chevron-right" viewBox="0 0 6 10"><path d="M3.877 5L.164 1.287l1.06-1.06L5.999 5 1.225 9.773l-1.06-1.06L3.876 5z"/></symbol><symbol id="close" viewBox="0 0 13 13"><path d="M6.332 5.547l2.343-2.396.778.727-3.121 3.124-3.181-3.06.778-.726 2.403 2.331z"/><path d="M6.34 7.123L3.996 9.519l-.777-.727L6.34 5.668l3.18 3.06-.777.726L6.34 7.123z"/></symbol><symbol id="external-link" viewBox="0 0 12 12"><path d="M8.652 7.19l1.458-1.457a2.674 2.674 0 000-3.781v0a2.673 2.673 0 00-3.781 0L4.808 3.473M3.41 4.871L1.952 6.33a2.673 2.673 0 000 3.78v0a2.673 2.673 0 003.78 0l1.522-1.52m-3.633-.223l4.746-4.746" stroke="#000" stroke-width="1.187"/></symbol><symbol id="eye" viewBox="0 0 18 12"><circle cx="8.713" cy="6" r="2.2" fill="none"/><path d="M16.56 6c0 1.294-.76 2.559-2.18 3.537-1.415.975-3.418 1.606-5.671 1.606-2.254 0-4.256-.63-5.672-1.606C1.617 8.559.857 7.294.857 6s.76-2.559 2.18-3.537C4.453 1.488 6.455.857 8.71.857c2.254 0 4.256.63 5.672 1.606 1.42.978 2.18 2.243 2.18 3.537z" fill="none"/></symbol><symbol id="file" viewBox="0 0 22 26"><path d="M0 0v25.26h22V6.03L15.97 0H0zm20.37 23.63H1.63v-22h12.426v6.315h6.314V23.63zM15.685 6.315V1.997l4.318 4.318h-4.318z"/><path d="M15.242 13.934l-1.14-1.141-2.282 2.281v-6.03h-1.63v6.03l-2.28-2.281-1.142 1.14 4.237 4.238 4.237-4.237z"/></symbol><symbol id="logo-2" viewBox="0 0 124 36"><path d="M48.563 25.787l.43-2.107c.441.078.819.117 1.13.117.456 0 .833-.104 1.132-.312.312-.208.605-.578.878-1.112L46.73 11.88h2.613l4.097 7.978 4.116-7.978h2.555l-5.579 10.768c-.598 1.17-1.222 2.015-1.872 2.535-.638.52-1.418.78-2.341.78-.716 0-1.3-.058-1.756-.175zm21.164-13.908v2.185H64.03v11.665h-2.302v-13.85h7.998zm2.08 13.85v-13.85h2.281v5.735h6.847v-5.735h2.282v13.85h-2.282v-5.95h-6.847v5.95h-2.282zm17.511 0V14.064H85.3v-2.185h10.338v2.185H91.6v11.665h-2.282zm9.058.058l.43-2.107c.442.078.819.117 1.131.117.455 0 .832-.104 1.131-.312.312-.208.605-.578.878-1.112L96.543 11.88h2.614l4.096 7.978 4.116-7.978h2.555l-5.579 10.768c-.598 1.17-1.222 2.015-1.872 2.535-.637.52-1.418.78-2.341.78-.715 0-1.3-.058-1.756-.175z" fill="#282828"/><path fill-rule="evenodd" clip-rule="evenodd" d="M14.588.154c-.582.111-.595.193-.595 3.665v3.55h1.588v7.404h-1.853v5.288h1.852v12.757l-.735-.147c-.404-.08-1.415-.401-2.246-.712-.832-.31-2.237-1.048-3.123-1.64-.887-.59-2.218-1.802-2.96-2.691-.742-.89-1.689-2.343-2.104-3.228-.415-.885-.929-2.432-1.142-3.437-.213-1.005-.387-2.363-.387-3.017 0-.655.172-2.003.383-2.997.21-.994.668-2.422 1.017-3.173.349-.751 1.17-2.088 1.827-2.971.657-.884 1.918-2.133 2.802-2.777l1.608-1.17.015-1.652c.009-.909-.094-1.653-.227-1.653-.134 0-1.124.59-2.201 1.309-1.078.72-2.515 1.902-3.194 2.627-.68.725-1.695 2.028-2.255 2.895-.561.867-1.353 2.57-1.759 3.784a17.174 17.174 0 00-.872 4.615c-.075 1.347.006 3.21.184 4.23.174 1.003.623 2.597.996 3.542.373.946 1.204 2.518 1.848 3.494.643.976 1.867 2.404 2.72 3.173.853.768 2.207 1.792 3.008 2.276.802.482 2.327 1.18 3.39 1.549 1.103.382 2.818.731 3.993.812l2.061.141.005-3.409.006-3.409 3.147-3.305c2.25-2.362 3.192-3.191 3.305-2.908.087.218.788 2.64 1.556 5.38l1.398 4.984 1.314-1.039c.723-.571 1.937-1.72 2.699-2.554.77-.843 1.855-2.475 2.446-3.68.584-1.191 1.25-2.88 1.48-3.752.257-.972.418-2.66.416-4.362-.002-1.66-.171-3.415-.42-4.363-.228-.872-.91-2.598-1.517-3.834-.884-1.805-1.548-2.69-3.372-4.502-1.575-1.564-2.855-2.558-4.177-3.246C25.466 1.456 23.69.775 22.567.488c-1.446-.37-2.82-.51-4.712-.485-1.47.02-2.94.087-3.267.15zm6.75 3.118c.908.215 2.457.778 3.44 1.252 1.198.578 2.408 1.475 3.662 2.714 1.03 1.018 2.253 2.522 2.717 3.343.465.822 1.081 2.417 1.37 3.546.29 1.129.524 2.836.522 3.795-.002.958-.185 2.51-.407 3.447-.22.937-.76 2.425-1.197 3.305-.438.88-1.126 2-1.53 2.488l-.734.888-1.011-3.664c-.556-2.015-1.067-3.813-1.137-3.995-.076-.2.095-.33.432-.33.53 0 .558-.132.558-2.644v-2.644h-2.556l-1.111-4.032c-.612-2.218-1.233-4.478-1.382-5.024l-.27-.991h-5.8V2.875l1.39.004c.765.002 2.134.18 3.043.393zm-.62 5.375c.24 1.138.234 1.152-1.124 2.508l-1.366 1.364V7.34l1.125.082c1.095.079 1.132.112 1.366 1.226zm1.726 5.928c.01.109-.6.198-1.358.198H19.71l1.042-1.066 1.042-1.066.315.868c.174.477.325.957.336 1.066zm-1.271 7.83c-1.179 1.289-2.323 2.493-2.544 2.676-.354.293-.4.017-.4-2.344v-2.676h5.086l-2.142 2.344z" fill="#092059"/></symbol><symbol id="logo" viewBox="0 0 118 30"><path d="M42.563 22.787l.43-2.107c.441.078.819.117 1.13.117.456 0 .833-.104 1.132-.312.312-.208.605-.578.878-1.112L40.73 8.88h2.613l4.097 7.978 4.116-7.978h2.555l-5.579 10.768c-.598 1.17-1.222 2.015-1.872 2.535-.638.52-1.418.78-2.341.78-.716 0-1.3-.058-1.756-.175zM63.727 8.879v2.185H58.03v11.665h-2.302V8.879h7.998zm2.08 13.85V8.879h2.281v5.735h6.847V8.879h2.282v13.85h-2.282v-5.95h-6.847v5.95h-2.282zm17.511 0V11.064H79.3V8.879h10.338v2.185H85.6v11.665h-2.282zm9.058.058l.43-2.107c.442.078.819.117 1.131.117.455 0 .832-.104 1.131-.312.313-.208.605-.578.878-1.112L90.543 8.88h2.614l4.096 7.978 4.116-7.978h2.555l-5.579 10.768c-.598 1.17-1.222 2.015-1.872 2.535-.637.52-1.418.78-2.34.78-.716 0-1.301-.058-1.757-.175z"/><path fill-rule="evenodd" clip-rule="evenodd" d="M12.157.128c-.486.093-.496.161-.496 3.055v2.959h1.323v6.168H11.44v4.406h1.544v10.631l-.612-.122c-.337-.068-1.18-.334-1.872-.593-.693-.26-1.864-.874-2.603-1.366-.738-.493-1.848-1.503-2.467-2.244-.618-.742-1.406-1.952-1.752-2.69-.346-.737-.774-2.026-.952-2.864-.178-.837-.323-1.969-.323-2.514 0-.546.144-1.67.32-2.498.175-.828.556-2.018.847-2.644.29-.626.976-1.74 1.523-2.476.547-.736 1.598-1.777 2.335-2.313l1.34-.976.012-1.377c.007-.757-.078-1.377-.19-1.377-.11 0-.936.491-1.834 1.09-.898.6-2.095 1.586-2.661 2.19a20.757 20.757 0 00-1.88 2.413C1.748 7.709 1.09 9.127.75 10.14a14.312 14.312 0 00-.727 3.846c-.062 1.122.005 2.674.153 3.525.146.836.52 2.164.83 2.952.311.788 1.004 2.098 1.54 2.911.537.814 1.557 2.004 2.268 2.644.71.64 1.838 1.494 2.506 1.897.668.402 1.94.983 2.825 1.29.919.32 2.348.61 3.328.677L15.19 30l.005-2.84.004-2.841 2.623-2.755c1.874-1.968 2.66-2.66 2.754-2.423.073.182.656 2.2 1.297 4.483l1.164 4.153 1.095-.865c.603-.476 1.615-1.434 2.25-2.128.642-.703 1.546-2.063 2.038-3.067.486-.993 1.041-2.4 1.234-3.127.214-.81.348-2.217.346-3.635-.002-1.383-.142-2.845-.35-3.636-.19-.727-.759-2.164-1.264-3.194-.737-1.505-1.29-2.243-2.81-3.752-1.313-1.303-2.38-2.133-3.481-2.705-.873-.455-2.354-1.022-3.289-1.261-1.205-.308-2.35-.426-3.927-.405-1.224.017-2.45.073-2.722.126zm5.624 2.599c.758.178 2.048.648 2.868 1.043.997.482 2.006 1.229 3.05 2.261.86.849 1.878 2.103 2.265 2.787.387.684.901 2.014 1.142 2.955.24.94.436 2.363.434 3.162a15.243 15.243 0 01-.338 2.872c-.184.782-.634 2.02-.998 2.754-.365.734-.938 1.667-1.275 2.074l-.612.74-.842-3.053c-.463-1.68-.89-3.178-.947-3.33-.064-.166.079-.275.36-.275.441 0 .464-.11.464-2.203v-2.203h-2.13l-.926-3.36c-.509-1.848-1.027-3.732-1.15-4.186l-.226-.827h-4.833V2.396l1.158.003c.637.002 1.778.15 2.536.328zm-.515 4.479c.2.948.194.96-.938 2.09l-1.138 1.137V6.116l.938.068c.912.066.943.094 1.138 1.022zm1.437 4.94c.01.09-.5.165-1.131.165h-1.148l.869-.889.868-.888.263.723c.144.398.27.798.279.889zm-1.06 6.524c-.981 1.075-1.935 2.078-2.119 2.23-.294.245-.334.015-.334-1.952v-2.23h4.24l-1.786 1.953z"/></symbol><symbol id="logo_en" viewBox="0 0 118 30"><path d="M48.245 22.963c-1.652 0-2.985-.514-3.999-1.541-1.014-1.028-1.522-2.4-1.522-4.116V8.879h2.283v8.466c0 1.08.292 1.918.878 2.516.585.598 1.371.897 2.36.897.988 0 1.768-.299 2.34-.897.586-.598.878-1.437.878-2.516V8.879h2.282v8.427c0 1.703-.513 3.075-1.54 4.116-1.028 1.027-2.348 1.54-3.96 1.54zm12.594 0c-1.105 0-2.107-.228-3.004-.683-.884-.455-1.534-1.06-1.95-1.814l1.794-1.424c.767 1.183 1.84 1.775 3.219 1.775.663 0 1.202-.156 1.619-.468.416-.312.624-.729.624-1.249 0-.923-.657-1.625-1.97-2.106l-1.522-.546c-1.105-.404-1.924-.917-2.458-1.542-.533-.637-.8-1.423-.8-2.36 0-1.183.417-2.126 1.25-2.828.844-.715 1.924-1.073 3.237-1.073 1.756 0 3.154.63 4.194 1.892l-1.58 1.541c-.702-.858-1.574-1.287-2.614-1.287-.611 0-1.131.143-1.56.429-.416.286-.625.676-.625 1.17 0 .481.157.865.469 1.151.325.286.87.566 1.638.839l1.405.526c2.171.82 3.257 2.172 3.257 4.058 0 1.196-.43 2.165-1.287 2.906-.859.729-1.97 1.093-3.336 1.093zm14.933-12.777c.897.858 1.346 1.931 1.346 3.219 0 1.287-.449 2.366-1.346 3.238-.897.858-2.048 1.287-3.453 1.287h-2.126v4.799h-2.282V8.879h4.408c1.405 0 2.556.436 3.453 1.307zm-1.6 4.935c.469-.455.703-1.027.703-1.716 0-.69-.234-1.255-.703-1.697-.455-.456-1.079-.683-1.872-.683h-2.107v4.76H72.3c.793 0 1.417-.222 1.873-.664zm7.898 7.607V11.065h-4.018V8.879H88.39v2.185h-4.037v11.665H82.07zm13.74.235c-1.651 0-2.984-.514-3.999-1.541-1.014-1.028-1.521-2.4-1.521-4.116V8.879h2.282v8.466c0 1.08.293 1.918.878 2.516.585.598 1.372.897 2.36.897.989 0 1.769-.299 2.341-.897.585-.598.878-1.437.878-2.516V8.879h2.282v8.427c0 1.703-.514 3.075-1.54 4.116-1.028 1.027-2.348 1.54-3.96 1.54z"/><path clip-rule="evenodd" d="M13.157.128c-.486.093-.496.161-.496 3.055v2.959h1.323v6.168H12.44v4.406h1.544v10.631l-.612-.122c-.337-.068-1.18-.334-1.872-.593-.693-.26-1.864-.874-2.603-1.366-.738-.493-1.848-1.503-2.467-2.244-.618-.742-1.406-1.952-1.752-2.69-.346-.737-.774-2.026-.952-2.864-.178-.837-.323-1.969-.323-2.514 0-.546.144-1.67.32-2.498.175-.828.556-2.018.847-2.644.29-.626.976-1.74 1.523-2.476.547-.736 1.598-1.777 2.335-2.313l1.34-.976.012-1.377c.007-.757-.078-1.377-.19-1.377-.11 0-.936.491-1.834 1.09-.898.6-2.095 1.586-2.661 2.19a20.757 20.757 0 00-1.88 2.413c-.467.722-1.126 2.14-1.465 3.153a14.311 14.311 0 00-.727 3.846c-.062 1.122.005 2.674.153 3.525.146.836.52 2.164.83 2.952.311.788 1.004 2.098 1.54 2.911.537.814 1.557 2.004 2.268 2.644.71.64 1.838 1.494 2.506 1.897.668.402 1.94.983 2.825 1.29.919.32 2.348.61 3.328.677L16.19 30l.005-2.84.004-2.841 2.622-2.755c1.875-1.968 2.66-2.66 2.755-2.423.073.182.656 2.2 1.297 4.483l1.164 4.153 1.095-.865c.603-.476 1.615-1.434 2.25-2.128.642-.703 1.546-2.063 2.038-3.067.486-.993 1.041-2.4 1.234-3.127.214-.81.348-2.217.346-3.635-.002-1.383-.142-2.845-.35-3.636-.19-.727-.759-2.164-1.264-3.194-.737-1.505-1.29-2.243-2.81-3.752-1.313-1.303-2.38-2.133-3.481-2.705-.873-.455-2.354-1.022-3.289-1.261-1.205-.308-2.35-.426-3.927-.405-1.224.017-2.45.073-2.722.126zm5.624 2.599c.758.178 2.048.648 2.868 1.043.997.482 2.006 1.229 3.05 2.261.86.849 1.878 2.103 2.265 2.787.387.684.901 2.014 1.142 2.955.24.94.436 2.363.434 3.162a15.243 15.243 0 01-.338 2.872c-.184.782-.634 2.02-.998 2.754-.365.734-.938 1.667-1.275 2.074l-.612.74-.842-3.053c-.463-1.68-.89-3.178-.947-3.33-.064-.166.079-.275.36-.275.441 0 .464-.11.464-2.203v-2.203h-2.13l-.926-3.36c-.509-1.848-1.027-3.732-1.15-4.186l-.226-.827h-4.833V2.396l1.158.003c.637.002 1.778.15 2.536.328zm-.515 4.479c.2.948.194.96-.938 2.09l-1.138 1.137V6.116l.938.068c.912.066.943.094 1.138 1.022zm1.437 4.94c.01.09-.5.165-1.131.165h-1.148l.869-.889.868-.888.263.723c.144.398.27.798.279.889zm-1.06 6.524c-.981 1.075-1.935 2.078-2.119 2.23-.294.245-.334.015-.334-1.952v-2.23h4.24l-1.786 1.953z"/></symbol><symbol id="logo_ru" viewBox="0 0 118 30"><path d="M42.563 22.787l.43-2.107c.441.078.819.117 1.13.117.456 0 .833-.104 1.132-.312.312-.208.605-.578.878-1.112L40.73 8.88h2.613l4.097 7.978 4.116-7.978h2.555l-5.579 10.768c-.598 1.17-1.222 2.015-1.872 2.535-.638.52-1.418.78-2.341.78-.716 0-1.3-.058-1.756-.175zM63.727 8.879v2.185H58.03v11.665h-2.302V8.879h7.998zm2.08 13.85V8.879h2.281v5.735h6.847V8.879h2.282v13.85h-2.282v-5.95h-6.847v5.95h-2.282zm17.511 0V11.064H79.3V8.879h10.338v2.185H85.6v11.665h-2.282zm9.058.058l.43-2.107c.442.078.819.117 1.131.117.455 0 .832-.104 1.131-.312.313-.208.605-.578.878-1.112L90.543 8.88h2.614l4.096 7.978 4.116-7.978h2.555l-5.579 10.768c-.598 1.17-1.222 2.015-1.872 2.535-.637.52-1.418.78-2.34.78-.716 0-1.301-.058-1.757-.175z"/><path fill-rule="evenodd" clip-rule="evenodd" d="M12.157.128c-.486.093-.496.161-.496 3.055v2.959h1.323v6.168H11.44v4.406h1.544v10.631l-.612-.122c-.337-.068-1.18-.334-1.872-.593-.693-.26-1.864-.874-2.603-1.366-.738-.493-1.848-1.503-2.467-2.244-.618-.742-1.406-1.952-1.752-2.69-.346-.737-.774-2.026-.952-2.864-.178-.837-.323-1.969-.323-2.514 0-.546.144-1.67.32-2.498.175-.828.556-2.018.847-2.644.29-.626.976-1.74 1.523-2.476.547-.736 1.598-1.777 2.335-2.313l1.34-.976.012-1.377c.007-.757-.078-1.377-.19-1.377-.11 0-.936.491-1.834 1.09-.898.6-2.095 1.586-2.661 2.19a20.757 20.757 0 00-1.88 2.413C1.748 7.709 1.09 9.127.75 10.14a14.312 14.312 0 00-.727 3.846c-.062 1.122.005 2.674.153 3.525.146.836.52 2.164.83 2.952.311.788 1.004 2.098 1.54 2.911.537.814 1.557 2.004 2.268 2.644.71.64 1.838 1.494 2.506 1.897.668.402 1.94.983 2.825 1.29.919.32 2.348.61 3.328.677L15.19 30l.005-2.84.004-2.841 2.623-2.755c1.874-1.968 2.66-2.66 2.754-2.423.073.182.656 2.2 1.297 4.483l1.164 4.153 1.095-.865c.603-.476 1.615-1.434 2.25-2.128.642-.703 1.546-2.063 2.038-3.067.486-.993 1.041-2.4 1.234-3.127.214-.81.348-2.217.346-3.635-.002-1.383-.142-2.845-.35-3.636-.19-.727-.759-2.164-1.264-3.194-.737-1.505-1.29-2.243-2.81-3.752-1.313-1.303-2.38-2.133-3.481-2.705-.873-.455-2.354-1.022-3.289-1.261-1.205-.308-2.35-.426-3.927-.405-1.224.017-2.45.073-2.722.126zm5.624 2.599c.758.178 2.048.648 2.868 1.043.997.482 2.006 1.229 3.05 2.261.86.849 1.878 2.103 2.265 2.787.387.684.901 2.014 1.142 2.955.24.94.436 2.363.434 3.162a15.243 15.243 0 01-.338 2.872c-.184.782-.634 2.02-.998 2.754-.365.734-.938 1.667-1.275 2.074l-.612.74-.842-3.053c-.463-1.68-.89-3.178-.947-3.33-.064-.166.079-.275.36-.275.441 0 .464-.11.464-2.203v-2.203h-2.13l-.926-3.36c-.509-1.848-1.027-3.732-1.15-4.186l-.226-.827h-4.833V2.396l1.158.003c.637.002 1.778.15 2.536.328zm-.515 4.479c.2.948.194.96-.938 2.09l-1.138 1.137V6.116l.938.068c.912.066.943.094 1.138 1.022zm1.437 4.94c.01.09-.5.165-1.131.165h-1.148l.869-.889.868-.888.263.723c.144.398.27.798.279.889zm-1.06 6.524c-.981 1.075-1.935 2.078-2.119 2.23-.294.245-.334.015-.334-1.952v-2.23h4.24l-1.786 1.953z"/></symbol><symbol id="person" viewBox="0 0 16 16"><circle cx="7.938" cy="3.36" r="2.471" fill="none"/><path d="M14.1 14.223c0-2.94-2.758-5.322-6.16-5.322-3.401 0-6.159 2.383-6.159 5.322" fill="none"/></symbol><symbol id="search" viewBox="0 0 487.95 487.95"><path d="M481.8 453l-140-140.1c27.6-33.1 44.2-75.4 44.2-121.6C386 85.9 299.5.2 193.1.2S0 86 0 191.4s86.5 191.1 192.9 191.1c45.2 0 86.8-15.5 119.8-41.4l140.5 140.5c8.2 8.2 20.4 8.2 28.6 0 8.2-8.2 8.2-20.4 0-28.6zM41 191.4c0-82.8 68.2-150.1 151.9-150.1s151.9 67.3 151.9 150.1-68.2 150.1-151.9 150.1S41 274.1 41 191.4z"/></symbol><symbol id="share" viewBox="0 0 20 16"><path d="M10.415 13.158v-3.81a.102.102 0 00-.115-.098c-6.226.801-7.196 2.368-9.092 5.433l-.023.038c-.052.084-.18.045-.182-.054-.154-8.51 6.045-10.196 9.305-9.97a.1.1 0 00.107-.1V1.195a.1.1 0 01.158-.081l8.314 5.981a.1.1 0 010 .163l-8.314 5.981a.1.1 0 01-.158-.081z"/></symbol><symbol id="fb" viewBox="0 0 32 32"><g clip-path="url(#clip0_40_924)"><path d="M31.56 16.015c0-8.478-6.872-15.35-15.35-15.35S.86 7.536.86 16.014c0 7.661 5.613 14.012 12.951 15.163V20.452H9.914v-4.438h3.897v-3.381c0-3.848 2.292-5.973 5.798-5.973 1.68 0 3.436.3 3.436.3v3.778H21.11c-1.907 0-2.502 1.183-2.502 2.398v2.879h4.258l-.68 4.437h-3.578v10.726c7.339-1.151 12.952-7.502 12.952-15.163z" fill="#fff"/><path d="M22.185 20.452l.681-4.437h-4.257v-2.878c0-1.214.594-2.399 2.501-2.399h1.936V6.96s-1.757-.3-3.436-.3c-3.507 0-5.798 2.126-5.798 5.973v3.382H9.914v4.437h3.898v10.727a15.52 15.52 0 004.797 0V20.452h3.576z" fill="#22366A"/></g></symbol><symbol id="ok" viewBox="0 0 32 32"><path d="M15 8.328a2.354 2.354 0 012.352 2.352A2.353 2.353 0 0115 13.027a2.353 2.353 0 01-2.352-2.347A2.354 2.354 0 0115 8.328zm0 8.027a5.684 5.684 0 005.68-5.675A5.685 5.685 0 0015 5a5.681 5.681 0 00-5.676 5.68A5.68 5.68 0 0015 16.355zm2.297 4.633a10.706 10.706 0 003.297-1.367 1.664 1.664 0 10-1.774-2.816 7.215 7.215 0 01-7.644 0 1.664 1.664 0 00-1.77 2.816 10.706 10.706 0 003.297 1.367L9.527 24.16a1.664 1.664 0 002.356 2.352L15 23.395l3.121 3.117c.649.652 1.7.652 2.352 0a1.664 1.664 0 000-2.352l-3.176-3.172z"/></symbol><symbol id="rutube" viewBox="1.328 0.964 397.979 93.429"><path d="M180.599 23.934V1.315L159.32 4.073v19.861h-8.281V42.65h8.281v51.009h21.279V42.65h15.427V23.934zM64.304 57.505c6.482-5.229 10.642-12.383 10.642-21.363v-3.906c0-15.769-12.782-27.355-28.543-27.355L1.328 4.706l.027 88.484 21.29.168V63.325h21.883l14.265 30.033H83.71zM53.191 35.069c0 6.279-5.092 9.843-11.371 9.843H22.646V23.663H41.82c6.279 0 11.371 4.411 11.371 10.692zm250.293-11.505h-11.266V.964l-20.817 2.757-.005 89.637h32.088c15.768 0 28.545-12.104 28.545-27.866V52.109c0-15.764-12.777-28.545-28.545-28.545zm8.147 40.137c0 6.639-4.48 10.578-11.116 10.578h-8.228V42.657h8.228c6.636 0 11.116 3.943 11.116 10.581zM241.53 23.934V64.2c0 6.636-2.413 11.122-9.053 11.122h-.329c-6.634 0-9.054-4.486-9.054-11.122V23.934h-21.003v41.803c0 15.766 6.9 28.549 27.868 28.549h4.028c22.084 0 28.551-12.783 28.551-28.549V23.934zm-118.382 0V64.2c0 6.636-2.416 11.122-9.054 11.122h-.329c-6.634 0-9.052-4.486-9.052-11.122V23.934H83.71v41.803c0 15.766 6.896 28.549 27.864 28.549h4.031c22.079 0 28.548-12.783 28.548-28.549V23.934zm262.161 46.048s-6.145 7.53-16.948 6.686c-6.731-.524-10.722-3.944-10.722-10.58v-2.313h41.203V51.826c0-15.375-11.266-28.862-30.429-28.862-19.157 0-30.45 12.809-30.45 28.185v14.373c0 15.385 11.269 28.871 30.429 28.871 21.657 0 30.915-15.104 30.915-15.104zm-27.67-22.091c0-6.48 4.131-10.381 10.28-10.561h.531c6.4 0 10.721 3.942 10.721 10.577v.586h-21.532z"/></symbol><symbol id="tg" viewBox="0 0 31 31"><path d="M15.29 30.46c8.228 0 14.899-6.67 14.899-14.899 0-8.228-6.671-14.899-14.9-14.899C7.062.662.392 7.332.392 15.562.39 23.79 7.06 30.46 15.29 30.46z" fill="#fff"/><path fill-rule="evenodd" clip-rule="evenodd" d="M7.136 15.404c4.343-1.893 7.24-3.14 8.689-3.743 4.137-1.72 4.997-2.02 5.557-2.03.123-.002.399.029.577.174a.627.627 0 01.213.403c.02.116.044.38.024.587-.224 2.355-1.194 8.073-1.688 10.711-.208 1.117-.62 1.491-1.018 1.528-.865.08-1.522-.572-2.36-1.121-1.311-.86-2.052-1.395-3.325-2.234-1.47-.97-.517-1.502.321-2.373.22-.228 4.032-3.695 4.105-4.01.01-.039.018-.185-.069-.263-.087-.077-.216-.05-.308-.03-.132.03-2.227 1.415-6.285 4.154-.595.408-1.133.607-1.616.597-.532-.012-1.555-.301-2.316-.548-.933-.304-1.674-.464-1.61-.979.034-.268.403-.543 1.109-.823z" fill="#092059"/></symbol><symbol id="tt" viewBox="0 0 31 32"><path opacity=".4" d="M22.247 11.745a11.976 11.976 0 007.005 2.25V8.95a7.06 7.06 0 01-1.471-.155v3.97c-2.612 0-5.03-.832-7.005-2.249v10.295c0 5.15-4.16 9.324-9.291 9.324a9.223 9.223 0 01-5.172-1.577 9.247 9.247 0 006.643 2.805c5.131 0 9.291-4.174 9.291-9.324V11.744zm1.815-5.09a7.043 7.043 0 01-1.815-4.116V1.89h-1.394a7.063 7.063 0 003.209 4.765zM9.558 24.606a4.257 4.257 0 01-.867-2.582 4.258 4.258 0 015.54-4.065v-5.157a9.33 9.33 0 00-1.471-.085v4.014a4.257 4.257 0 00-5.54 4.065c0 1.666.951 3.108 2.338 3.81z" fill="#092059"/><path d="M20.775 10.516a11.978 11.978 0 007.005 2.25V8.795a7.026 7.026 0 01-3.719-2.14 7.063 7.063 0 01-3.209-4.765h-3.661v20.148a4.258 4.258 0 01-4.25 4.251 4.24 4.24 0 01-3.384-1.683 4.266 4.266 0 01-2.338-3.81 4.258 4.258 0 015.54-4.065v-4.014c-5.04.104-9.095 4.238-9.095 9.321a9.31 9.31 0 002.648 6.52 9.224 9.224 0 005.173 1.577c5.13 0 9.29-4.175 9.29-9.324V10.516z"/><path opacity=".2" d="M27.775 8.795V7.721a6.985 6.985 0 01-3.72-1.066 7.019 7.019 0 003.72 2.14zM20.847 1.89a7.284 7.284 0 01-.077-.58V.663h-5.056v20.149a4.258 4.258 0 01-4.25 4.25 4.22 4.22 0 01-1.912-.455 4.239 4.239 0 003.383 1.683 4.258 4.258 0 004.25-4.25V1.89h3.662zm-8.093 10.827v-1.143a9.341 9.341 0 00-1.275-.087c-5.132 0-9.291 4.174-9.291 9.324a9.324 9.324 0 004.119 7.747 9.31 9.31 0 01-2.648-6.52c0-5.083 4.054-9.217 9.095-9.321z"/></symbol><symbol id="vk" viewBox="0 0 27 27"><g clip-path="url(#clip0_40_921)"><path d="M.71 13.211c0-5.914 0-8.872 1.838-10.71C4.386.664 7.345.664 13.258.664h1.092c5.914 0 8.872 0 10.71 1.837 1.837 1.838 1.837 4.797 1.837 10.71v1.092c0 5.914 0 8.872-1.837 10.71-1.838 1.837-4.797 1.837-10.71 1.837h-1.092c-5.914 0-8.872 0-10.71-1.837C.711 23.175.711 20.216.711 14.303V13.21z" fill="#fff"/><path fill-rule="evenodd" clip-rule="evenodd" d="M7.798 8.847H5.889c-.546 0-.655.257-.655.54 0 .506.647 3.014 3.014 6.331 1.578 2.266 3.8 3.494 5.823 3.494 1.214 0 1.365-.273 1.365-.741v-1.713c0-.546.115-.655.499-.655.283 0 .768.142 1.902 1.234 1.294 1.295 1.507 1.875 2.235 1.875h1.91c.546 0 .819-.273.66-.811-.171-.536-.79-1.315-1.61-2.238-.445-.525-1.112-1.091-1.314-1.375-.284-.364-.203-.526 0-.85 0 0 2.326-3.276 2.569-4.39.122-.403 0-.7-.578-.7h-1.91c-.484 0-.709.256-.83.54 0 0-.97 2.366-2.346 3.903-.446.445-.648.587-.89.587-.122 0-.297-.142-.297-.546V9.549c0-.485-.141-.702-.546-.702h-3c-.304 0-.486.225-.486.44 0 .46.688.566.758 1.86v2.812c0 .617-.11.729-.354.729-.647 0-2.222-2.378-3.155-5.098-.184-.529-.367-.743-.855-.743z" fill="#092059"/></g></symbol></svg>