<svg width="124" height="36" viewBox="0 0 124 36" fill="none" xmlns="http://www.w3.org/2000/svg">
<path d="M48.5632 25.787L48.9923 23.6804C49.4345 23.7584 49.8116 23.7974 50.1237 23.7974C50.5788 23.7974 50.956 23.6934 51.255 23.4853C51.5671 23.2772 51.8597 22.9066 52.1328 22.3734L46.7296 11.8791H49.3434L53.4397 19.8571L57.5556 11.8791H60.1109L54.5321 22.6465C53.9339 23.8169 53.3097 24.6622 52.6595 25.1823C52.0223 25.7025 51.242 25.9626 50.3187 25.9626C49.6035 25.9626 49.0183 25.9041 48.5632 25.787ZM69.7267 11.8791V14.0638H64.0309V25.7285H61.7291V11.8791H69.7267ZM71.8061 25.7285V11.8791H74.0883V17.6139H80.935V11.8791H83.2173V25.7285H80.935V19.7791H74.0883V25.7285H71.8061ZM89.3181 25.7285V14.0638H85.2999V11.8791H95.6382V14.0638H91.6004V25.7285H89.3181ZM98.3765 25.787L98.8056 23.6804C99.2478 23.7584 99.6249 23.7974 99.937 23.7974C100.392 23.7974 100.769 23.6934 101.068 23.4853C101.38 23.2772 101.673 22.9066 101.946 22.3734L96.5429 11.8791H99.1568L103.253 19.8571L107.369 11.8791H109.924L104.345 22.6465C103.747 23.8169 103.123 24.6622 102.473 25.1823C101.836 25.7025 101.055 25.9626 100.132 25.9626C99.4168 25.9626 98.8317 25.9041 98.3765 25.787Z" fill="#282828"/>
<path fill-rule="evenodd" clip-rule="evenodd" d="M14.5882 0.153574C14.0058 0.265412 13.9926 0.346845 13.9926 3.81912V7.36992H14.7868H15.5809V11.0714V14.7729H14.6544H13.7279V17.4169V20.0608H14.6544H15.5809V26.4393V32.8178L14.8461 32.671C14.4418 32.5901 13.4311 32.27 12.5999 31.9593C11.7684 31.6486 10.3633 30.911 9.47697 30.3198C8.59042 29.7286 7.2586 28.5171 6.51659 27.6275C5.77484 26.7375 4.82846 25.2855 4.41337 24.4C3.99829 23.5148 3.48446 21.9681 3.2711 20.9629C3.058 19.9579 2.88354 18.6 2.88354 17.9457C2.88354 17.2913 3.05588 15.9426 3.26686 14.9488C3.47758 13.9549 3.93528 12.5272 4.28392 11.776C4.63256 11.0249 5.45479 9.68786 6.1113 8.80452C6.76781 7.92118 8.02868 6.67192 8.91311 6.02839L10.5213 4.85819L10.5361 3.20573C10.5446 2.29701 10.4421 1.55327 10.3087 1.55327C10.1753 1.55327 9.18472 2.14208 8.10756 2.86175C7.03015 3.58143 5.59297 4.76353 4.9137 5.48903C4.23442 6.21426 3.21948 7.51692 2.65853 8.38387C2.09759 9.25055 1.30633 10.9535 0.899985 12.1681C0.397013 13.6712 0.118526 15.1447 0.0277269 16.7828C-0.0469247 18.1299 0.0340801 19.9921 0.211708 21.0131C0.386425 22.0162 0.834598 23.6103 1.20759 24.5555C1.58058 25.5007 2.41234 27.0728 3.05588 28.0492C3.69942 29.0253 4.92349 30.453 5.77642 31.2219C6.62909 31.9905 7.98261 33.0145 8.78419 33.4975C9.58577 33.9803 11.1114 34.6775 12.174 35.0466C13.2765 35.4294 14.9917 35.7784 16.1673 35.8588L18.2281 36L18.2334 32.5912L18.2387 29.1824L21.3857 25.8774C23.6353 23.5151 24.578 22.6857 24.6913 22.9691C24.7784 23.1872 25.4786 25.6083 26.2471 28.3493L27.6446 33.3325L28.9586 32.294C29.6816 31.7227 30.8961 30.5733 31.6577 29.7402C32.4283 28.8971 33.5134 27.2647 34.1038 26.0599C34.6875 24.8688 35.3538 23.1806 35.5844 22.3081C35.8414 21.3357 36.0024 19.6473 36 17.9457C35.9976 16.2858 35.829 14.5315 35.5807 13.5832C35.3519 12.7107 34.6695 10.9855 34.0635 9.74946C33.1788 7.94445 32.5152 7.0582 30.691 5.24737C29.1161 3.68349 27.8357 2.68858 26.5139 2.00115C25.4659 1.45571 23.6896 0.775162 22.5672 0.488295C21.121 0.118938 19.7471 -0.0225119 17.8549 0.00286984C16.3859 0.0226993 14.9157 0.0903839 14.5882 0.153574ZM21.3373 3.27236C22.2464 3.48651 23.795 4.04994 24.7784 4.52426C25.9758 5.10196 27.1855 5.99851 28.4398 7.23773C29.4698 8.25564 30.6926 9.7603 31.1572 10.5815C31.6215 11.4027 32.238 12.9983 32.5271 14.127C32.8162 15.256 33.0507 16.9634 33.0486 17.9219C33.0465 18.88 32.8638 20.4312 32.6425 21.3687C32.4212 22.3063 31.8822 23.7935 31.4449 24.6737C31.0073 25.5538 30.319 26.6738 29.9151 27.1621L29.1807 28.0502L28.17 24.386C27.6141 22.3708 27.1027 20.5732 27.0333 20.3913C26.9571 20.1917 27.1281 20.0608 27.4651 20.0608C27.9951 20.0608 28.0228 19.9294 28.0228 17.4169V14.7729H26.7448H25.4667L24.3557 10.7409C23.7444 8.5232 23.1228 6.26291 22.9741 5.71746L22.7035 4.72599H19.804H16.9045V3.80061V2.87524L18.2943 2.8792C19.0588 2.88132 20.428 3.0582 21.3373 3.27236ZM20.7189 8.64668C20.9582 9.78489 20.9519 9.7989 19.5938 11.1552L18.2281 12.5192V9.92951V7.33952L19.3532 7.42095C20.4478 7.5 20.4849 7.53305 20.7189 8.64668ZM22.4436 14.5746C22.4547 14.6836 21.844 14.7729 21.0863 14.7729H19.709L20.7512 13.7069L21.7934 12.6409L22.1084 13.5086C22.2816 13.9858 22.4325 14.4657 22.4436 14.5746ZM21.1726 22.4046C19.9944 23.6938 18.8497 24.8981 18.6292 25.0811C18.2755 25.3743 18.2281 25.0978 18.2281 22.737V20.0608H20.7716H23.315L21.1726 22.4046Z" fill="#092059"/>
</svg>
