<svg width="118" height="30" viewBox="0 0 118 30" fill="none" xmlns="http://www.w3.org/2000/svg">
<path d="M48.2448 22.9626C46.5932 22.9626 45.2603 22.4489 44.246 21.4216C43.2317 20.3943 42.7245 19.0223 42.7245 17.3058V8.87908H45.0067V17.3448C45.0067 18.4241 45.2993 19.2629 45.8845 19.8611C46.4697 20.4593 47.2564 20.7584 48.2448 20.7584C49.2331 20.7584 50.0133 20.4593 50.5855 19.8611C51.1707 19.2629 51.4633 18.4241 51.4633 17.3448V8.87908H53.7455V17.3058C53.7455 19.0093 53.2319 20.3813 52.2045 21.4216C51.1772 22.4489 49.8573 22.9626 48.2448 22.9626ZM60.8391 22.9626C59.7337 22.9626 58.7324 22.735 57.8351 22.2799C56.9508 21.8247 56.3006 21.22 55.8845 20.4658L57.6791 19.0418C58.4463 20.2252 59.5192 20.8169 60.8976 20.8169C61.5608 20.8169 62.1005 20.6609 62.5166 20.3488C62.9328 20.0367 63.1408 19.6205 63.1408 19.1004C63.1408 18.1771 62.4841 17.4748 61.1707 16.9937L59.6492 16.4475C58.5439 16.0444 57.7246 15.5307 57.1914 14.9065C56.6583 14.2693 56.3917 13.4826 56.3917 12.5463C56.3917 11.3629 56.8078 10.4201 57.6401 9.71785C58.4853 9.00262 59.5647 8.645 60.8781 8.645C62.6337 8.645 64.0316 9.2757 65.072 10.5371L63.4919 12.0781C62.7897 11.2198 61.9184 10.7907 60.8781 10.7907C60.2669 10.7907 59.7467 10.9337 59.3176 11.2198C58.9015 11.5059 58.6934 11.896 58.6934 12.3902C58.6934 12.8714 58.8495 13.255 59.1616 13.5411C59.4867 13.8272 60.0328 14.1068 60.8001 14.3798L62.2045 14.9065C64.3762 15.7258 65.4621 17.0782 65.4621 18.9638C65.4621 20.1602 65.0329 21.129 64.1747 21.8702C63.3164 22.5985 62.2045 22.9626 60.8391 22.9626ZM75.772 10.186C76.6693 11.0443 77.118 12.1171 77.118 13.4045C77.118 14.6919 76.6693 15.7713 75.772 16.6426C74.8748 17.5008 73.7239 17.93 72.3194 17.93H70.1933V22.7285H67.911V8.87908H72.3194C73.7239 8.87908 74.8748 9.31472 75.772 10.186ZM74.1725 15.1211C74.6407 14.6659 74.8748 14.0937 74.8748 13.4045C74.8748 12.7153 74.6407 12.1496 74.1725 11.7075C73.7174 11.2523 73.0932 11.0248 72.2999 11.0248H70.1933V15.7843H72.2999C73.0932 15.7843 73.7174 15.5632 74.1725 15.1211ZM82.0704 22.7285V11.0638H78.0521V8.87908H88.3905V11.0638H84.3527V22.7285H82.0704ZM95.8103 22.9626C94.1588 22.9626 92.8258 22.4489 91.8115 21.4216C90.7972 20.3943 90.29 19.0223 90.29 17.3058V8.87908H92.5723V17.3448C92.5723 18.4241 92.8649 19.2629 93.45 19.8611C94.0352 20.4593 94.822 20.7584 95.8103 20.7584C96.7986 20.7584 97.5789 20.4593 98.151 19.8611C98.7362 19.2629 99.0288 18.4241 99.0288 17.3448V8.87908H101.311V17.3058C101.311 19.0093 100.797 20.3813 99.7701 21.4216C98.7427 22.4489 97.4228 22.9626 95.8103 22.9626Z"/>
<path fill-rule="evenodd" clip-rule="evenodd" d="M13.1568 0.127978C12.6715 0.221177 12.6605 0.289037 12.6605 3.1826V6.1416H13.3223H13.9841V9.22619V12.3108H13.212H12.4399V14.5141V16.7173H13.212H13.9841V22.0327V27.3481L13.3717 27.2259C13.0349 27.1584 12.1926 26.8916 11.4999 26.6327C10.807 26.3739 9.63605 25.7591 8.89747 25.2665C8.15868 24.7738 7.04883 23.7643 6.43049 23.0229C5.81236 22.2813 5.02371 21.0712 4.67781 20.3333C4.33191 19.5957 3.90372 18.3068 3.72591 17.4691C3.54833 16.6316 3.40295 15.5 3.40295 14.9547C3.40295 14.4094 3.54657 13.2855 3.72239 12.4573C3.89798 11.6291 4.2794 10.4393 4.56994 9.81336C4.86047 9.18741 5.54566 8.07321 6.09275 7.3371C6.63984 6.60099 7.69056 5.55994 8.42759 5.02366L9.76775 4.04849L9.7801 2.67144C9.78716 1.91417 9.70179 1.29439 9.5906 1.29439C9.47942 1.29439 8.65393 1.78506 7.7563 2.38479C6.85846 2.98453 5.66081 3.96961 5.09475 4.57419C4.52868 5.17855 3.6829 6.2641 3.21544 6.98656C2.74799 7.70879 2.08861 9.12792 1.74999 10.1401C1.33084 11.3927 1.09877 12.6206 1.02311 13.9857C0.960896 15.1083 1.0284 16.66 1.17642 17.511C1.32202 18.3469 1.6955 19.6752 2.00633 20.4629C2.31715 21.2506 3.01028 22.5606 3.54657 23.3743C4.08285 24.1878 5.10291 25.3775 5.81369 26.0182C6.52424 26.6587 7.65218 27.5121 8.32016 27.9146C8.98814 28.3169 10.2595 28.8979 11.145 29.2055C12.0638 29.5245 13.493 29.8154 14.4727 29.8823L16.1901 30L16.1945 27.1593L16.1989 24.3186L18.8215 21.5645C20.6961 19.5959 21.4817 18.9047 21.5761 19.1409C21.6487 19.3227 22.2322 21.3402 22.8726 23.6244L24.0371 27.7771L25.1322 26.9117C25.7347 26.4355 26.7468 25.4778 27.3814 24.7835C28.0236 24.0809 28.9279 22.7206 29.4198 21.7166C29.9062 20.724 30.4615 19.3172 30.6536 18.5901C30.8678 17.7798 31.002 16.3727 31 14.9547C30.998 13.5715 30.8575 12.1096 30.6505 11.3193C30.4599 10.5922 29.8912 9.15458 29.3863 8.12455C28.649 6.62037 28.096 5.88184 26.5758 4.37281C25.2635 3.06957 24.1964 2.24048 23.0949 1.66763C22.2216 1.21309 20.7413 0.645968 19.806 0.406913C18.6008 0.0991151 17.4559 -0.0187599 15.8791 0.00239153C14.6549 0.0189161 13.4297 0.0753199 13.1568 0.127978ZM18.7811 2.72696C19.5386 2.90543 20.8291 3.37495 21.6487 3.77021C22.6465 4.25163 23.6546 4.99876 24.6998 6.03144C25.5582 6.8797 26.5771 8.13358 26.9643 8.81792C27.3512 9.50226 27.865 10.8319 28.1059 11.7725C28.3468 12.7133 28.5423 14.1362 28.5405 14.9349C28.5387 15.7333 28.3865 17.026 28.2021 17.8073C28.0177 18.5886 27.5685 19.8279 27.2041 20.5614C26.8394 21.2949 26.2659 22.2282 25.9292 22.6351L25.3173 23.3752L24.475 20.3217C24.0118 18.6423 23.5856 17.1443 23.5278 16.9927C23.4642 16.8264 23.6067 16.7173 23.8876 16.7173C24.3292 16.7173 24.3524 16.6078 24.3524 14.5141V12.3108H23.2873H22.2222L21.2964 8.95078C20.787 7.10267 20.269 5.21909 20.1451 4.76455L19.9196 3.93832H17.5034H15.0871V3.16718V2.39603L16.2453 2.39934C16.8824 2.4011 18.0233 2.5485 18.7811 2.72696ZM18.2658 7.20556C18.4652 8.15408 18.4599 8.16575 17.3282 9.29603L16.1901 10.4327V8.27459V6.11626L17.1277 6.18413C18.0399 6.25 18.0707 6.27754 18.2658 7.20556ZM19.703 12.1455C19.7122 12.2363 19.2033 12.3108 18.572 12.3108H17.4242L18.2927 11.4224L19.1612 10.5341L19.4237 11.2572C19.568 11.6549 19.6937 12.0548 19.703 12.1455ZM18.6439 18.6705C17.662 19.7449 16.7081 20.7484 16.5243 20.9009C16.2296 21.1453 16.1901 20.9148 16.1901 18.9475V16.7173H18.3097H20.4292L18.6439 18.6705Z"/>
</svg>
