<svg width="118" height="30" viewBox="0 0 118 30" xmlns="http://www.w3.org/2000/svg">
<path d="M42.5632 22.787L42.9923 20.6804C43.4345 20.7584 43.8116 20.7974 44.1237 20.7974C44.5788 20.7974 44.956 20.6934 45.255 20.4853C45.5671 20.2772 45.8597 19.9066 46.1328 19.3734L40.7296 8.87908H43.3434L47.4397 16.8571L51.5556 8.87908H54.1109L48.5321 19.6465C47.9339 20.8169 47.3097 21.6622 46.6595 22.1823C46.0223 22.7025 45.242 22.9626 44.3187 22.9626C43.6035 22.9626 43.0183 22.9041 42.5632 22.787ZM63.7267 8.87908V11.0638H58.0309V22.7285H55.7291V8.87908H63.7267ZM65.8061 22.7285V8.87908H68.0883V14.6139H74.935V8.87908H77.2173V22.7285H74.935V16.7791H68.0883V22.7285H65.8061ZM83.3181 22.7285V11.0638H79.2999V8.87908H89.6382V11.0638H85.6004V22.7285H83.3181ZM92.3765 22.787L92.8056 20.6804C93.2478 20.7584 93.6249 20.7974 93.937 20.7974C94.3922 20.7974 94.7693 20.6934 95.0684 20.4853C95.3805 20.2772 95.6731 19.9066 95.9462 19.3734L90.5429 8.87908H93.1568L97.2531 16.8571L101.369 8.87908H103.924L98.3454 19.6465C97.7472 20.8169 97.123 21.6622 96.4728 22.1823C95.8356 22.7025 95.0554 22.9626 94.1321 22.9626C93.4168 22.9626 92.8317 22.9041 92.3765 22.787Z" />
<path fill-rule="evenodd" clip-rule="evenodd" d="M12.1568 0.127978C11.6715 0.221177 11.6605 0.289037 11.6605 3.1826V6.1416H12.3223H12.9841V9.22619V12.3108H12.212H11.4399V14.5141V16.7173H12.212H12.9841V22.0327V27.3481L12.3717 27.2259C12.0349 27.1584 11.1926 26.8916 10.4999 26.6327C9.807 26.3739 8.63605 25.7591 7.89747 25.2665C7.15868 24.7738 6.04883 23.7643 5.43049 23.0229C4.81236 22.2813 4.02371 21.0712 3.67781 20.3333C3.33191 19.5957 2.90372 18.3068 2.72591 17.4691C2.54833 16.6316 2.40295 15.5 2.40295 14.9547C2.40295 14.4094 2.54657 13.2855 2.72239 12.4573C2.89798 11.6291 3.2794 10.4393 3.56994 9.81336C3.86047 9.18741 4.54566 8.07321 5.09275 7.3371C5.63984 6.60099 6.69056 5.55994 7.42759 5.02366L8.76775 4.04849L8.7801 2.67144C8.78716 1.91417 8.70179 1.29439 8.5906 1.29439C8.47942 1.29439 7.65393 1.78506 6.7563 2.38479C5.85846 2.98453 4.66081 3.96961 4.09475 4.57419C3.52868 5.17855 2.6829 6.2641 2.21544 6.98656C1.74799 7.70879 1.08861 9.12792 0.749987 10.1401C0.330844 11.3927 0.098772 12.6206 0.0231057 13.9857C-0.0391039 15.1083 0.0284001 16.66 0.176424 17.511C0.322021 18.3469 0.695498 19.6752 1.00633 20.4629C1.31715 21.2506 2.01028 22.5606 2.54657 23.3743C3.08285 24.1878 4.10291 25.3775 4.81369 26.0182C5.52424 26.6587 6.65218 27.5121 7.32016 27.9146C7.98814 28.3169 9.25947 28.8979 10.145 29.2055C11.0638 29.5245 12.493 29.8154 13.4727 29.8823L15.1901 30L15.1945 27.1593L15.1989 24.3186L17.8215 21.5645C19.6961 19.5959 20.4817 18.9047 20.5761 19.1409C20.6487 19.3227 21.2322 21.3402 21.8726 23.6244L23.0371 27.7771L24.1322 26.9117C24.7347 26.4355 25.7468 25.4778 26.3815 24.7835C27.0236 24.0809 27.9279 22.7206 28.4198 21.7166C28.9062 20.724 29.4615 19.3172 29.6536 18.5901C29.8678 17.7798 30.002 16.3727 30 14.9547C29.998 13.5715 29.8575 12.1096 29.6505 11.3193C29.4599 10.5922 28.8912 9.15458 28.3863 8.12455C27.649 6.62037 27.096 5.88184 25.5758 4.37281C24.2635 3.06957 23.1964 2.24048 22.0949 1.66763C21.2216 1.21309 19.7413 0.645968 18.806 0.406913C17.6008 0.0991151 16.4559 -0.0187599 14.8791 0.00239153C13.655 0.0189161 12.4297 0.0753199 12.1568 0.127978ZM17.7811 2.72696C18.5386 2.90543 19.8291 3.37495 20.6487 3.77021C21.6465 4.25163 22.6546 4.99876 23.6998 6.03144C24.5582 6.8797 25.5771 8.13358 25.9643 8.81792C26.3512 9.50226 26.865 10.8319 27.1059 11.7725C27.3468 12.7133 27.5423 14.1362 27.5405 14.9349C27.5387 15.7333 27.3865 17.026 27.2021 17.8073C27.0177 18.5886 26.5685 19.8279 26.2041 20.5614C25.8394 21.2949 25.2659 22.2282 24.9292 22.6351L24.3173 23.3752L23.475 20.3217C23.0118 18.6423 22.5856 17.1443 22.5278 16.9927C22.4642 16.8264 22.6067 16.7173 22.8876 16.7173C23.3292 16.7173 23.3524 16.6078 23.3524 14.5141V12.3108H22.2873H21.2222L20.2964 8.95078C19.787 7.10267 19.269 5.21909 19.1451 4.76455L18.9196 3.93832H16.5034H14.0871V3.16718V2.39603L15.2453 2.39934C15.8824 2.4011 17.0233 2.5485 17.7811 2.72696ZM17.2658 7.20556C17.4652 8.15407 17.4599 8.16575 16.3282 9.29603L15.1901 10.4327V8.27459V6.11626L16.1277 6.18413C17.0399 6.25 17.0707 6.27754 17.2658 7.20556ZM18.703 12.1455C18.7122 12.2363 18.2033 12.3108 17.572 12.3108H16.4242L17.2927 11.4224L18.1612 10.5341L18.4237 11.2572C18.568 11.6549 18.6937 12.0548 18.703 12.1455ZM17.6439 18.6705C16.662 19.7449 15.7081 20.7484 15.5243 20.9009C15.2296 21.1453 15.1901 20.9148 15.1901 18.9475V16.7173H17.3097H19.4292L17.6439 18.6705Z" />
</svg>
