<svg width="20" height="16" viewBox="0 0 20 16" fill="none" xmlns="http://www.w3.org/2000/svg">
<path d="M10.4148 13.1578V9.34867C10.4148 9.28849 10.3596 9.24224 10.2999 9.24992C4.07405 10.0511 3.10447 11.6183 1.20804 14.6834L1.18479 14.721C1.13285 14.805 1.0046 14.766 1.00281 14.6673C0.848856 6.15762 7.04828 4.47111 10.3083 4.69772C10.3667 4.70177 10.4148 4.65566 10.4148 4.59714V1.19513C10.4148 1.11364 10.507 1.06637 10.5732 1.11396L18.8872 7.0953C18.9426 7.1352 18.9426 7.21774 18.8872 7.25765L10.5732 13.239C10.507 13.2866 10.4148 13.2393 10.4148 13.1578Z" stroke-width="1.78"/>
</svg>
