<svg width="40" height="40" viewBox="0 0 40 40" fill="none" xmlns="http://www.w3.org/2000/svg">
<path fill-rule="evenodd" clip-rule="evenodd" d="M16.2091 0.170638C15.562 0.294902 15.5473 0.385383 15.5473 4.24347V8.1888H16.4297H17.3121V12.3016V16.4144H16.2827H15.2532V19.3521V22.2898H16.2827H17.3121V29.377V36.4642L16.4956 36.3011C16.0465 36.2113 14.9235 35.8555 13.9999 35.5103C13.076 35.1651 11.5147 34.3455 10.53 33.6887C9.54491 33.0318 8.06511 31.6857 7.24065 30.6972C6.41648 29.7084 5.36495 28.095 4.90375 27.1111C4.44254 26.1276 3.87163 24.409 3.63455 23.2921C3.39777 22.1755 3.20394 20.6667 3.20394 19.9396C3.20394 19.2125 3.39542 17.714 3.62985 16.6097C3.86398 15.5054 4.37254 13.9191 4.75991 13.0845C5.14729 12.2499 6.06088 10.7643 6.79033 9.7828C7.51979 8.80131 8.92075 7.41325 9.90346 6.69821L11.6903 5.39798L11.7068 3.56192C11.7162 2.55223 11.6024 1.72586 11.4541 1.72586C11.3059 1.72586 10.2052 2.38008 9.0084 3.17973C7.81127 3.97937 6.21441 5.29282 5.45966 6.09892C4.70491 6.90473 3.5772 8.35214 2.95392 9.31541C2.33065 10.2784 1.45148 12.1706 0.999983 13.5201C0.441126 15.1902 0.131696 16.8274 0.0308076 18.6476C-0.0521385 20.1444 0.0378668 22.2134 0.235232 23.3479C0.429361 24.4625 0.927331 26.2336 1.34177 27.2839C1.7562 28.3341 2.68038 30.0809 3.39542 31.1658C4.11046 32.2504 5.47055 33.8367 6.41825 34.691C7.36566 35.545 8.86957 36.6828 9.76021 37.2195C10.6509 37.7559 12.346 38.5306 13.5266 38.9407C14.7517 39.366 16.6574 39.7538 17.9636 39.8431L20.2535 40L20.2594 36.2124L20.2653 32.4248L23.7619 28.7527C26.2615 26.1279 27.3089 25.2063 27.4348 25.5212C27.5316 25.7636 28.3096 28.4537 29.1634 31.4992L30.7162 37.0362L32.1763 35.8822C32.9795 35.2474 34.329 33.9704 35.1753 33.0447C36.0315 32.1079 37.2372 30.2941 37.8931 28.9554C38.5416 27.632 39.282 25.7563 39.5382 24.7868C39.8238 23.7063 40.0026 21.8303 40 19.9396C39.9973 18.0953 39.81 16.1462 39.5341 15.0924C39.2799 14.123 38.5216 12.2061 37.8484 10.8327C36.8654 8.82716 36.128 7.84245 34.1011 5.83042C32.3513 4.09276 30.9285 2.98731 29.4599 2.2235C28.2954 1.61746 26.3218 0.861291 25.0747 0.542551C23.4678 0.132153 21.9412 -0.0250132 19.8388 0.00318871C18.2066 0.0252215 16.573 0.100427 16.2091 0.170638ZM23.7081 3.63595C24.7182 3.8739 26.4389 4.49993 27.5316 5.02695C28.8619 5.66884 30.2061 6.66502 31.5998 8.04192C32.7442 9.17293 34.1029 10.8448 34.6191 11.7572C35.135 12.6697 35.82 14.4426 36.1412 15.6967C36.4624 16.9511 36.723 18.8483 36.7207 19.9132C36.7183 20.9778 36.5154 22.7013 36.2695 23.7431C36.0236 24.7848 35.4247 26.4372 34.9388 27.4152C34.4526 28.3931 33.6878 29.6376 33.239 30.1801L32.423 31.1669L31.3 27.0956C30.6824 24.8564 30.1141 22.8591 30.037 22.657C29.9523 22.4352 30.1423 22.2898 30.5168 22.2898C31.1056 22.2898 31.1365 22.1438 31.1365 19.3521V16.4144H29.7164H28.2963L27.0618 11.9344C26.3827 9.47023 25.6921 6.95879 25.5267 6.35274L25.2261 5.2511H22.0045H18.7828V4.2229V3.19471L20.327 3.19911C21.1765 3.20146 22.6978 3.398 23.7081 3.63595ZM23.021 9.60742C23.2869 10.8721 23.2798 10.8877 21.7709 12.3947L20.2535 13.9103V11.0328V8.15502L21.5036 8.2455C22.7198 8.33334 22.761 8.37006 23.021 9.60742ZM24.9373 16.194C24.9497 16.3151 24.2711 16.4144 23.4293 16.4144H21.8989L23.0569 15.2299L24.2149 14.0454L24.5649 15.0096C24.7573 15.5398 24.9249 16.073 24.9373 16.194ZM23.5252 24.894C22.216 26.3265 20.9441 27.6646 20.6991 27.8679C20.3061 28.1937 20.2535 27.8864 20.2535 25.2633V22.2898H23.0795H25.9056L23.5252 24.894Z" fill="white"/>
</svg>
