<svg width="19" height="21" viewBox="0 0 19 21" fill="none" xmlns="http://www.w3.org/2000/svg">
<path d="M17.0195 20.2891H1.01953C0.754315 20.2891 0.499961 20.1837 0.312424 19.9962C0.124888 19.8086 0.0195313 19.5543 0.0195312 19.2891V1.28906C0.0195312 1.02385 0.124888 0.769492 0.312424 0.581956C0.499961 0.394419 0.754315 0.289063 1.01953 0.289062H17.0195C17.2847 0.289063 17.5391 0.394419 17.7266 0.581956C17.9142 0.769492 18.0195 1.02385 18.0195 1.28906V19.2891C18.0195 19.5543 17.9142 19.8086 17.7266 19.9962C17.5391 20.1837 17.2847 20.2891 17.0195 20.2891ZM16.0195 18.2891V2.28906H2.01953V18.2891H16.0195ZM5.01953 5.28906H13.0195V7.28906H5.01953V5.28906ZM5.01953 9.28906H13.0195V11.2891H5.01953V9.28906ZM5.01953 13.2891H13.0195V15.2891H5.01953V13.2891Z" fill="white"/>
</svg>
