<svg width="31" height="32" viewBox="0 0 31 32" xmlns="http://www.w3.org/2000/svg">
<path opacity="0.4" d="M22.2469 11.7445C24.2211 13.1608 26.6397 13.9941 29.2519 13.9941V8.94961C28.7575 8.94971 28.2644 8.89798 27.7808 8.79514V12.7659C25.1688 12.7659 22.7506 11.9326 20.7758 10.5164V20.8107C20.7758 25.9605 16.6159 30.1349 11.4848 30.1349C9.57023 30.1349 7.79073 29.554 6.3125 28.5578C7.99966 30.289 10.3525 31.363 12.9556 31.363C18.087 31.363 22.2471 27.1886 22.2471 22.0386V11.7445H22.2469V11.7445ZM24.0616 6.65521C23.0527 5.54899 22.3902 4.11942 22.2469 2.53897V1.89014H20.8528C21.2037 3.89889 22.4006 5.61506 24.0616 6.65521ZM9.55795 24.606C8.99424 23.8643 8.68961 22.9569 8.69097 22.0239C8.69097 19.6686 10.5937 17.7588 12.9411 17.7588C13.3786 17.7587 13.8134 17.826 14.2303 17.9587V12.8015C13.7431 12.7345 13.2514 12.706 12.7599 12.7165V16.7306C12.3426 16.5978 11.9076 16.5304 11.47 16.5308C9.12257 16.5308 7.21998 18.4403 7.21998 20.796C7.21998 22.4615 8.17102 23.9036 9.55795 24.606Z" fill="#092059"/>
<path d="M20.7754 10.5163C22.7502 11.9325 25.1684 12.7658 27.7804 12.7658V8.79504C26.3224 8.48337 25.0317 7.71875 24.0612 6.65521C22.4001 5.61495 21.2033 3.89879 20.8524 1.89014H17.1906V22.0384C17.1823 24.3873 15.2829 26.2892 12.9405 26.2892C11.5602 26.2892 10.3339 25.6289 9.55725 24.606C8.17042 23.9036 7.21939 22.4614 7.21939 20.7961C7.21939 18.4407 9.12197 16.5309 11.4694 16.5309C11.9191 16.5309 12.3526 16.6012 12.7593 16.7307V12.7166C7.71825 12.8211 3.66406 16.9547 3.66406 22.0385C3.66406 24.5763 4.67365 26.8769 6.31222 28.5579C7.79045 29.554 9.56994 30.135 11.4845 30.135C16.6157 30.135 20.7755 25.9604 20.7755 20.8107V10.5163H20.7754Z" />
<path opacity="0.2" d="M27.7748 8.79502V7.72137C26.4601 7.72337 25.1711 7.35386 24.0557 6.65509C25.0431 7.74002 26.3434 8.4881 27.7748 8.79502ZM20.8468 1.89012C20.8134 1.69815 20.7877 1.50491 20.7698 1.31094V0.662109H15.7138V20.8106C15.7057 23.1591 13.8064 25.0611 11.4638 25.0611C10.7761 25.0611 10.1267 24.8972 9.55167 24.6061C10.3283 25.6289 11.5546 26.2891 12.9349 26.2891C15.2771 26.2891 17.1768 24.3874 17.185 22.0385V1.89012H20.8468ZM12.7539 12.7166V11.5736C12.3314 11.5156 11.9055 11.4865 11.479 11.4867C6.34736 11.4866 2.1875 15.6613 2.1875 20.8106C2.1875 24.0389 3.8224 26.8841 6.30675 28.5577C4.66818 26.8768 3.65859 24.5761 3.65859 22.0384C3.65859 16.9547 7.71268 12.8211 12.7539 12.7166Z" />
</svg>
