<svg width="27" height="27" viewBox="0 0 27 27" fill="none" xmlns="http://www.w3.org/2000/svg">
<g clip-path="url(#clip0_40_921)">
<path d="M0.710938 13.2115C0.710938 7.29698 0.710938 4.33883 2.54832 2.50145C4.38571 0.664062 7.34473 0.664062 13.2584 0.664062H14.3495C20.264 0.664062 23.2222 0.664062 25.0596 2.50145C26.897 4.33883 26.897 7.29785 26.897 13.2115V14.3026C26.897 20.2172 26.897 23.1753 25.0596 25.0127C23.2222 26.8501 20.2632 26.8501 14.3495 26.8501H13.2584C7.34386 26.8501 4.38571 26.8501 2.54832 25.0127C0.710938 23.1753 0.710938 20.2163 0.710938 14.3026V13.2115Z" fill="white"/>
<path fill-rule="evenodd" clip-rule="evenodd" d="M7.79799 8.84717H5.88903C5.34348 8.84717 5.23438 9.10379 5.23438 9.38747C5.23438 9.89286 5.88117 12.4015 8.24839 15.7184C9.82566 17.9843 12.0489 19.2125 14.0713 19.2125C15.2854 19.2125 15.4356 18.9393 15.4356 18.4705V16.758C15.4356 16.2124 15.5508 16.1033 15.9349 16.1033C16.2185 16.1033 16.703 16.2447 17.8368 17.3367C19.1313 18.632 19.3443 19.2125 20.0722 19.2125H21.9821C22.5276 19.2125 22.8008 18.9393 22.6428 18.4007C22.4709 17.8648 21.8529 17.0862 21.0324 16.1635C20.5872 15.6381 19.9204 15.0716 19.7179 14.7879C19.4342 14.4239 19.5154 14.2624 19.7179 13.9386C19.7179 13.9386 22.0441 10.6619 22.2867 9.54895C22.4089 9.14482 22.2867 8.84717 21.7089 8.84717H19.7999C19.3146 8.84717 19.0903 9.10379 18.9689 9.38747C18.9689 9.38747 17.9983 11.7538 16.6227 13.2909C16.1775 13.7361 15.975 13.8784 15.7324 13.8784C15.611 13.8784 15.4356 13.7361 15.4356 13.332V9.54895C15.4356 9.06364 15.295 8.84717 14.89 8.84717H11.8891C11.5862 8.84717 11.4038 9.07237 11.4038 9.28622C11.4038 9.74622 12.0916 9.85271 12.1623 11.1472V13.9587C12.1623 14.5758 12.0515 14.6875 11.8079 14.6875C11.1611 14.6875 9.58649 12.3098 8.65252 9.58998C8.46922 9.06102 8.28592 8.84717 7.79799 8.84717Z" fill="#092059"/>
</g>
<defs>
<clipPath id="clip0_40_921">
<rect width="26.186" height="26.186" fill="white" transform="translate(0.710938 0.664062)"/>
</clipPath>
</defs>
</svg>
