<svg width="118" height="30" viewBox="0 0 118 30" xmlns="http://www.w3.org/2000/svg"><path d="M42.563 22.787l.43-2.107c.441.078.819.117 1.13.117.456 0 .833-.104 1.132-.312.312-.208.605-.578.878-1.112L40.73 8.88h2.613l4.097 7.978 4.116-7.978h2.555l-5.579 10.768c-.598 1.17-1.222 2.015-1.872 2.535-.638.52-1.418.78-2.341.78-.716 0-1.3-.058-1.756-.175zM63.727 8.879v2.185H58.03v11.665h-2.302V8.879h7.998zm2.08 13.85V8.879h2.281v5.735h6.847V8.879h2.282v13.85h-2.282v-5.95h-6.847v5.95h-2.282zm17.511 0V11.064H79.3V8.879h10.338v2.185H85.6v11.665h-2.282zm9.058.058l.43-2.107c.442.078.819.117 1.131.117.455 0 .832-.104 1.131-.312.313-.208.605-.578.878-1.112L90.543 8.88h2.614l4.096 7.978 4.116-7.978h2.555l-5.579 10.768c-.598 1.17-1.222 2.015-1.872 2.535-.637.52-1.418.78-2.34.78-.716 0-1.301-.058-1.757-.175z"/><path fill-rule="evenodd" clip-rule="evenodd" d="M12.157.128c-.486.093-.496.161-.496 3.055v2.959h1.323v6.168H11.44v4.406h1.544v10.631l-.612-.122c-.337-.068-1.18-.334-1.872-.593-.693-.26-1.864-.874-2.603-1.366-.738-.493-1.848-1.503-2.467-2.244-.618-.742-1.406-1.952-1.752-2.69-.346-.737-.774-2.026-.952-2.864-.178-.837-.323-1.969-.323-2.514 0-.546.144-1.67.32-2.498.175-.828.556-2.018.847-2.644.29-.626.976-1.74 1.523-2.476.547-.736 1.598-1.777 2.335-2.313l1.34-.976.012-1.377c.007-.757-.078-1.377-.19-1.377-.11 0-.936.491-1.834 1.09-.898.6-2.095 1.586-2.661 2.19a20.757 20.757 0 00-1.88 2.413C1.748 7.709 1.09 9.127.75 10.14a14.312 14.312 0 00-.727 3.846c-.062 1.122.005 2.674.153 3.525.146.836.52 2.164.83 2.952.311.788 1.004 2.098 1.54 2.911.537.814 1.557 2.004 2.268 2.644.71.64 1.838 1.494 2.506 1.897.668.402 1.94.983 2.825 1.29.919.32 2.348.61 3.328.677L15.19 30l.005-2.84.004-2.841 2.623-2.755c1.874-1.968 2.66-2.66 2.754-2.423.073.182.656 2.2 1.297 4.483l1.164 4.153 1.095-.865c.603-.476 1.615-1.434 2.25-2.128.642-.703 1.546-2.063 2.038-3.067.486-.993 1.041-2.4 1.234-3.127.214-.81.348-2.217.346-3.635-.002-1.383-.142-2.845-.35-3.636-.19-.727-.759-2.164-1.264-3.194-.737-1.505-1.29-2.243-2.81-3.752-1.313-1.303-2.38-2.133-3.481-2.705-.873-.455-2.354-1.022-3.289-1.261-1.205-.308-2.35-.426-3.927-.405-1.224.017-2.45.073-2.722.126zm5.624 2.599c.758.178 2.048.648 2.868 1.043.997.482 2.006 1.229 3.05 2.261.86.849 1.878 2.103 2.265 2.787.387.684.901 2.014 1.142 2.955.24.94.436 2.363.434 3.162a15.243 15.243 0 01-.338 2.872c-.184.782-.634 2.02-.998 2.754-.365.734-.938 1.667-1.275 2.074l-.612.74-.842-3.053c-.463-1.68-.89-3.178-.947-3.33-.064-.166.079-.275.36-.275.441 0 .464-.11.464-2.203v-2.203h-2.13l-.926-3.36c-.509-1.848-1.027-3.732-1.15-4.186l-.226-.827h-4.833V2.396l1.158.003c.637.002 1.778.15 2.536.328zm-.515 4.479c.2.948.194.96-.938 2.09l-1.138 1.137V6.116l.938.068c.912.066.943.094 1.138 1.022zm1.437 4.94c.01.09-.5.165-1.131.165h-1.148l.869-.889.868-.888.263.723c.144.398.27.798.279.889zm-1.06 6.524c-.981 1.075-1.935 2.078-2.119 2.23-.294.245-.334.015-.334-1.952v-2.23h4.24l-1.786 1.953z"/></svg>