<svg width="124" height="36" viewBox="0 0 124 36" fill="none" xmlns="http://www.w3.org/2000/svg"><path d="M48.563 25.787l.43-2.107c.441.078.819.117 1.13.117.456 0 .833-.104 1.132-.312.312-.208.605-.578.878-1.112L46.73 11.88h2.613l4.097 7.978 4.116-7.978h2.555l-5.579 10.768c-.598 1.17-1.222 2.015-1.872 2.535-.638.52-1.418.78-2.341.78-.716 0-1.3-.058-1.756-.175zm21.164-13.908v2.185H64.03v11.665h-2.302v-13.85h7.998zm2.08 13.85v-13.85h2.281v5.735h6.847v-5.735h2.282v13.85h-2.282v-5.95h-6.847v5.95h-2.282zm17.511 0V14.064H85.3v-2.185h10.338v2.185H91.6v11.665h-2.282zm9.058.058l.43-2.107c.442.078.819.117 1.131.117.455 0 .832-.104 1.131-.312.312-.208.605-.578.878-1.112L96.543 11.88h2.614l4.096 7.978 4.116-7.978h2.555l-5.579 10.768c-.598 1.17-1.222 2.015-1.872 2.535-.637.52-1.418.78-2.341.78-.715 0-1.3-.058-1.756-.175z" fill="#282828"/><path fill-rule="evenodd" clip-rule="evenodd" d="M14.588.154c-.582.111-.595.193-.595 3.665v3.55h1.588v7.404h-1.853v5.288h1.852v12.757l-.735-.147c-.404-.08-1.415-.401-2.246-.712-.832-.31-2.237-1.048-3.123-1.64-.887-.59-2.218-1.802-2.96-2.691-.742-.89-1.689-2.343-2.104-3.228-.415-.885-.929-2.432-1.142-3.437-.213-1.005-.387-2.363-.387-3.017 0-.655.172-2.003.383-2.997.21-.994.668-2.422 1.017-3.173.349-.751 1.17-2.088 1.827-2.971.657-.884 1.918-2.133 2.802-2.777l1.608-1.17.015-1.652c.009-.909-.094-1.653-.227-1.653-.134 0-1.124.59-2.201 1.309-1.078.72-2.515 1.902-3.194 2.627-.68.725-1.695 2.028-2.255 2.895-.561.867-1.353 2.57-1.759 3.784a17.174 17.174 0 00-.872 4.615c-.075 1.347.006 3.21.184 4.23.174 1.003.623 2.597.996 3.542.373.946 1.204 2.518 1.848 3.494.643.976 1.867 2.404 2.72 3.173.853.768 2.207 1.792 3.008 2.276.802.482 2.327 1.18 3.39 1.549 1.103.382 2.818.731 3.993.812l2.061.141.005-3.409.006-3.409 3.147-3.305c2.25-2.362 3.192-3.191 3.305-2.908.087.218.788 2.64 1.556 5.38l1.398 4.984 1.314-1.039c.723-.571 1.937-1.72 2.699-2.554.77-.843 1.855-2.475 2.446-3.68.584-1.191 1.25-2.88 1.48-3.752.257-.972.418-2.66.416-4.362-.002-1.66-.171-3.415-.42-4.363-.228-.872-.91-2.598-1.517-3.834-.884-1.805-1.548-2.69-3.372-4.502-1.575-1.564-2.855-2.558-4.177-3.246C25.466 1.456 23.69.775 22.567.488c-1.446-.37-2.82-.51-4.712-.485-1.47.02-2.94.087-3.267.15zm6.75 3.118c.908.215 2.457.778 3.44 1.252 1.198.578 2.408 1.475 3.662 2.714 1.03 1.018 2.253 2.522 2.717 3.343.465.822 1.081 2.417 1.37 3.546.29 1.129.524 2.836.522 3.795-.002.958-.185 2.51-.407 3.447-.22.937-.76 2.425-1.197 3.305-.438.88-1.126 2-1.53 2.488l-.734.888-1.011-3.664c-.556-2.015-1.067-3.813-1.137-3.995-.076-.2.095-.33.432-.33.53 0 .558-.132.558-2.644v-2.644h-2.556l-1.111-4.032c-.612-2.218-1.233-4.478-1.382-5.024l-.27-.991h-5.8V2.875l1.39.004c.765.002 2.134.18 3.043.393zm-.62 5.375c.24 1.138.234 1.152-1.124 2.508l-1.366 1.364V7.34l1.125.082c1.095.079 1.132.112 1.366 1.226zm1.726 5.928c.01.109-.6.198-1.358.198H19.71l1.042-1.066 1.042-1.066.315.868c.174.477.325.957.336 1.066zm-1.271 7.83c-1.179 1.289-2.323 2.493-2.544 2.676-.354.293-.4.017-.4-2.344v-2.676h5.086l-2.142 2.344z" fill="#092059"/></svg>