<svg width="15" height="13" viewBox="0 0 15 13" xmlns="http://www.w3.org/2000/svg"><mask id="path-1-outside-1_110_4287" maskUnits="userSpaceOnUse" x="-1" y="0" width="16" height="13" fill="#000"><path fill="#fff" d="M-1 0h16v13H-1z"/><path d="M10.072 9.099c-1.477 1.969-4.283 2.376-6.267.91a4.422 4.422 0 01-.918-6.218C4.364 1.82 7.17 1.414 9.155 2.88a4.422 4.422 0 01.918 6.219z"/></mask><path d="M9.478 9.903l3.928 2.901 1.188-1.608-3.927-2.902-1.189 1.61zM8.473 7.898a2.503 2.503 0 01-3.48.503l-2.377 3.217c2.865 2.116 6.917 1.532 9.056-1.319l-3.2-2.4zm-3.48.503a2.422 2.422 0 01-.507-3.41l-3.199-2.4a6.422 6.422 0 001.33 9.027l2.376-3.217zm-.507-3.41a2.503 2.503 0 013.48-.503l2.377-3.217C7.478-.845 3.426-.26 1.287 2.591l3.2 2.4zm3.48-.503a2.422 2.422 0 01.507 3.41l3.2 2.401a6.422 6.422 0 00-1.33-9.028L7.966 4.488z" mask="url(#path-1-outside-1_110_4287)"/></svg>