<svg width="32" height="32" viewBox="0 0 32 32" fill="none" xmlns="http://www.w3.org/2000/svg"><g clip-path="url(#clip0_40_924)"><path d="M31.56 16.015c0-8.478-6.872-15.35-15.35-15.35S.86 7.536.86 16.014c0 7.661 5.613 14.012 12.951 15.163V20.452H9.914v-4.438h3.897v-3.381c0-3.848 2.292-5.973 5.798-5.973 1.68 0 3.436.3 3.436.3v3.778H21.11c-1.907 0-2.502 1.183-2.502 2.398v2.879h4.258l-.68 4.437h-3.578v10.726c7.339-1.151 12.952-7.502 12.952-15.163z" fill="#fff"/><path d="M22.185 20.452l.681-4.437h-4.257v-2.878c0-1.214.594-2.399 2.501-2.399h1.936V6.96s-1.757-.3-3.436-.3c-3.507 0-5.798 2.126-5.798 5.973v3.382H9.914v4.437h3.898v10.727a15.52 15.52 0 004.797 0V20.452h3.576z" fill="#22366A"/></g><defs><clipPath id="clip0_40_924"><path fill="#fff" transform="translate(.86 .664)" d="M0 0h30.701v30.701H0z"/></clipPath></defs></svg>