<svg width="31" height="31" viewBox="0 0 31 31" fill="none" xmlns="http://www.w3.org/2000/svg"><path d="M15.29 30.46c8.228 0 14.899-6.67 14.899-14.899 0-8.228-6.671-14.899-14.9-14.899C7.062.662.392 7.332.392 15.562.39 23.79 7.06 30.46 15.29 30.46z" fill="#fff"/><path fill-rule="evenodd" clip-rule="evenodd" d="M7.136 15.404c4.343-1.893 7.24-3.14 8.689-3.743 4.137-1.72 4.997-2.02 5.557-2.03.123-.002.399.029.577.174a.627.627 0 01.213.403c.02.116.044.38.024.587-.224 2.355-1.194 8.073-1.688 10.711-.208 1.117-.62 1.491-1.018 1.528-.865.08-1.522-.572-2.36-1.121-1.311-.86-2.052-1.395-3.325-2.234-1.47-.97-.517-1.502.321-2.373.22-.228 4.032-3.695 4.105-4.01.01-.039.018-.185-.069-.263-.087-.077-.216-.05-.308-.03-.132.03-2.227 1.415-6.285 4.154-.595.408-1.133.607-1.616.597-.532-.012-1.555-.301-2.316-.548-.933-.304-1.674-.464-1.61-.979.034-.268.403-.543 1.109-.823z" fill="#092059"/></svg>