<svg width="31" height="32" viewBox="0 0 31 32" xmlns="http://www.w3.org/2000/svg"><path opacity=".4" d="M22.247 11.745a11.976 11.976 0 007.005 2.25V8.95a7.06 7.06 0 01-1.471-.155v3.97c-2.612 0-5.03-.832-7.005-2.249v10.295c0 5.15-4.16 9.324-9.291 9.324a9.223 9.223 0 01-5.172-1.577 9.247 9.247 0 006.643 2.805c5.131 0 9.291-4.174 9.291-9.324V11.744zm1.815-5.09a7.043 7.043 0 01-1.815-4.116V1.89h-1.394a7.063 7.063 0 003.209 4.765zM9.558 24.606a4.257 4.257 0 01-.867-2.582 4.258 4.258 0 015.54-4.065v-5.157a9.33 9.33 0 00-1.471-.085v4.014a4.257 4.257 0 00-5.54 4.065c0 1.666.951 3.108 2.338 3.81z" fill="#092059"/><path d="M20.775 10.516a11.978 11.978 0 007.005 2.25V8.795a7.026 7.026 0 01-3.719-2.14 7.063 7.063 0 01-3.209-4.765h-3.661v20.148a4.258 4.258 0 01-4.25 4.251 4.24 4.24 0 01-3.384-1.683 4.266 4.266 0 01-2.338-3.81 4.258 4.258 0 015.54-4.065v-4.014c-5.04.104-9.095 4.238-9.095 9.321a9.31 9.31 0 002.648 6.52 9.224 9.224 0 005.173 1.577c5.13 0 9.29-4.175 9.29-9.324V10.516z"/><path opacity=".2" d="M27.775 8.795V7.721a6.985 6.985 0 01-3.72-1.066 7.019 7.019 0 003.72 2.14zM20.847 1.89a7.284 7.284 0 01-.077-.58V.663h-5.056v20.149a4.258 4.258 0 01-4.25 4.25 4.22 4.22 0 01-1.912-.455 4.239 4.239 0 003.383 1.683 4.258 4.258 0 004.25-4.25V1.89h3.662zm-8.093 10.827v-1.143a9.341 9.341 0 00-1.275-.087c-5.132 0-9.291 4.174-9.291 9.324a9.324 9.324 0 004.119 7.747 9.31 9.31 0 01-2.648-6.52c0-5.083 4.054-9.217 9.095-9.321z"/></svg>