<svg width="27" height="27" viewBox="0 0 27 27" fill="none" xmlns="http://www.w3.org/2000/svg"><g clip-path="url(#clip0_40_921)"><path d="M.71 13.211c0-5.914 0-8.872 1.838-10.71C4.386.664 7.345.664 13.258.664h1.092c5.914 0 8.872 0 10.71 1.837 1.837 1.838 1.837 4.797 1.837 10.71v1.092c0 5.914 0 8.872-1.837 10.71-1.838 1.837-4.797 1.837-10.71 1.837h-1.092c-5.914 0-8.872 0-10.71-1.837C.711 23.175.711 20.216.711 14.303V13.21z" fill="#fff"/><path fill-rule="evenodd" clip-rule="evenodd" d="M7.798 8.847H5.889c-.546 0-.655.257-.655.54 0 .506.647 3.014 3.014 6.331 1.578 2.266 3.8 3.494 5.823 3.494 1.214 0 1.365-.273 1.365-.741v-1.713c0-.546.115-.655.499-.655.283 0 .768.142 1.902 1.234 1.294 1.295 1.507 1.875 2.235 1.875h1.91c.546 0 .819-.273.66-.811-.171-.536-.79-1.315-1.61-2.238-.445-.525-1.112-1.091-1.314-1.375-.284-.364-.203-.526 0-.85 0 0 2.326-3.276 2.569-4.39.122-.403 0-.7-.578-.7h-1.91c-.484 0-.709.256-.83.54 0 0-.97 2.366-2.346 3.903-.446.445-.648.587-.89.587-.122 0-.297-.142-.297-.546V9.549c0-.485-.141-.702-.546-.702h-3c-.304 0-.486.225-.486.44 0 .46.688.566.758 1.86v2.812c0 .617-.11.729-.354.729-.647 0-2.222-2.378-3.155-5.098-.184-.529-.367-.743-.855-.743z" fill="#092059"/></g><defs><clipPath id="clip0_40_921"><path fill="#fff" transform="translate(.71 .664)" d="M0 0h26.186v26.186H0z"/></clipPath></defs></svg>