<svg width="16" height="16" viewBox="0 0 16 16" xmlns="http://www.w3.org/2000/svg">
<path d="M5.6 9.6V12H10.4V9.6H16V15.2C16 15.4122 15.9157 15.6157 15.7657 15.7657C15.6157 15.9157 15.4122 16 15.2 16H0.8C0.587827 16 0.384344 15.9157 0.234315 15.7657C0.0842854 15.6157 0 15.4122 0 15.2V9.6H5.6ZM7.2 8H8.8V10.4H7.2V8ZM4 3.2V0.8C4 0.587827 4.08429 0.384344 4.23431 0.234315C4.38434 0.0842854 4.58783 0 4.8 0H11.2C11.4122 0 11.6157 0.0842854 11.7657 0.234315C11.9157 0.384344 12 0.587827 12 0.8V3.2H15.2C15.4122 3.2 15.6157 3.28429 15.7657 3.43431C15.9157 3.58434 16 3.78783 16 4V8H10.4V6.4H5.6V8H0V4C0 3.78783 0.0842854 3.58434 0.234315 3.43431C0.384344 3.28429 0.587827 3.2 0.8 3.2H4ZM5.6 1.6V3.2H10.4V1.6H5.6Z" />
</svg>
